<svg xmlns="http://www.w3.org/2000/svg" width="165" height="27" viewBox="0 0 165 27"><path d="M68.9,11H67.4v-6h1.7c1.3,0,1.8.9,1.8,3s-.5,2.9-2,2.9m7.6,13.7V18.3c0-3.1-1.1-4.9-3.4-5.3,2.7-.7,3.4-2.9,3.4-5.8S75,.5,70.3.5H61.7V27h5.7V15.5h1.4c1.4,0,2,.9,2,2.2v7a6.1,6.1,0,0,0,.4,2.3H77a4.2,4.2,0,0,1-.5-2.3"/><path d="M12.7,22.5a3.3,3.3,0,0,0,1.2-2.9V15.7H8.4v5.4A1.3,1.3,0,0,1,7,22.4a1.3,1.3,0,0,1-1.3-1.3V5.9A1.3,1.3,0,0,1,7,4.5,1.4,1.4,0,0,1,8.4,5.9v5.4h5.5V5.6c0-3-2-5.6-6.9-5.6S0,2.6,0,5.7V21.5a5.4,5.4,0,0,0,5.6,5.4H7.3Z"/><path d="M156.9,11h-1.5V5.1h1.8c1.3,0,1.7.9,1.7,3s-.5,2.9-2,2.9m7.6,13.7V18.2c0-3-1.1-4.8-3.4-5.2,2.7-.7,3.4-3,3.4-5.9S163.1.5,158.3.5h-8.5V27h5.7V15.5h1.3a2,2,0,0,1,2.1,2.2v7a4.9,4.9,0,0,0,.4,2.3H165a4.5,4.5,0,0,1-.5-2.3"/><path d="M137.9,17.5l1.5-12.4,1.5,12.4Zm5.3-17h-7.6L131,27h5.8l.6-4.7h4.1L142,27h5.8Z"/><polygon points="105.1 27 105.1 0.5 110.9 0.5 110.9 21.9 117 21.9 117 27 105.1 27"/><rect x="96.2" y="0.5" width="5.8" height="26.45"/><polygon points="105.1 27 105.1 0.5 110.9 0.5 110.9 21.9 117 21.9 117 27 105.1 27"/><polygon points="118.4 27 118.4 0.5 124.2 0.5 124.2 21.9 130.3 21.9 130.3 27 118.4 27"/><path d="M86.7,11.8H84.9V5.1h1.8c1.4,0,1.7,1,1.7,3.4s-.3,3.3-1.7,3.3M88.1.5H79.3V27H85V16.5h3.1c5.3,0,6.2-3.4,6.2-8s-.9-8-6.2-8"/><polygon points="51.9 5.6 51.9 10.8 57.9 10.8 57.9 16 51.9 16 51.9 21.9 59.1 21.9 59.1 27 46.1 27 46.1 0.5 46.1 0.5 58.8 0.5 58.8 5.6 51.9 5.6"/><polygon points="34.5 23.1 34.5 5.7 30.7 5.7 30.7 0.5 44.5 0.5 44.5 5.7 40.7 5.7 40.7 26.9 39 26.9 34.5 23.1"/><polygon points="37 26.9 23.6 15.7 9.6 26.9 37 26.9" fill="#ffc400"/><path d="M22.1,12.6,23.6,5,25,12.6ZM27.4.5H19.7L15.2,20.7l8.4-6.8,8.7,7.3Z"/></svg>