<svg xmlns="http://www.w3.org/2000/svg" width="72.1" height="50.5" viewBox="0 0 72.1 50.5"><path d="M64.9,0H7.2A7.2,7.2,0,0,0,0,7.2v36a7.3,7.3,0,0,0,7.2,7.3H64.9a7.3,7.3,0,0,0,7.2-7.3V7.2A7.2,7.2,0,0,0,64.9,0" fill="#e30613"/><path d="M66.8,43.2a1.9,1.9,0,0,1-1.9,2.1H7.2a2,2,0,0,1-1.9-2.1V7.2A2,2,0,0,1,7.2,5.1H64.9a1.9,1.9,0,0,1,1.9,2.1" fill="#fff"/><path d="M51.5,41.8H38.7V8.7H52.1c6.4,0,9.8,2.6,9.8,8.8,0,3.2-2.7,5.5-5.6,7,4.1,1.1,6.8,3.6,6.8,7.7,0,6.7-5.6,9.6-11.6,9.6m-5-20h2.8c2.6,0,4.5-1.1,4.5-4s-2.4-4-5-4H46.5ZM54.7,32c0-3.3-2.1-4.1-5.3-4.1H46.5v8.5h2.9c2.8,0,5.3-.9,5.3-4.4" fill="#e30613"/><path d="M22.1,41.8H9.9V8.7H22.1c8.5,0,13.1,5.4,13.1,16.4S32.1,41.7,22.1,41.8m5.2-16c0-6.7-.7-11.9-7.8-11.9H17.9V36.4h2.8c4.2,0,6.6-3.4,6.6-10.6" fill="#e30613"/></svg>