<svg xmlns="http://www.w3.org/2000/svg" xmlns:xlink="http://www.w3.org/1999/xlink" width="165" height="50.5" viewBox="0 0 165 50.5"><defs><linearGradient id="a" x1="-90.31" y1="124.78" x2="-89.26" y2="124.78" gradientTransform="translate(6005.1 4287) rotate(90) scale(47.46 47.46)" gradientUnits="userSpaceOnUse"><stop offset="0" stop-color="#ee7100"/><stop offset="1" stop-color="#f39100"/></linearGradient></defs><path d="M0,19.6C0,31.4,7.9,38.5,18.1,38.5h0a29.3,29.3,0,0,0,13.5-3.1h0V20.6a.9.9,0,0,0-.9-.9H21.4l-.4.2h0c-.5.9-2.4,3.8-2.6,4.1h0a.4.4,0,0,0,.4.6h6.7v7.3a14,14,0,0,1-6.4,1.2h0c-7.9,0-12.6-5.7-12.6-14h0c0-8.6,5.7-13.6,12.7-13.6h0a15.2,15.2,0,0,1,8.5,2.4h0a.4.4,0,0,0,.6-.2h0l2.3-3.6a.4.4,0,0,0-.1-.6h0C29.4,2.6,25.5,0,18.9,0h0C8.3,0,0,7.2,0,19.6M155.5,3.9h-4.1a.9.9,0,0,0-.9.9h0v5.9h-2.3a.9.9,0,0,0-.9.9h0v3.2h0a.9.9,0,0,0,.9.9h2.3V27.9c0,3.4-.1,6.1,2.1,8.2h0a8.2,8.2,0,0,0,6.3,2.3h0a12.5,12.5,0,0,0,5.9-1.4h0c.2-.1.3-.3.1-.6h0l-2-3.2h0a.6.6,0,0,0-.6-.2h0a11.7,11.7,0,0,1-2.3.3h0c-3.8,0-3.6-2.5-3.6-4.9h0V15.7h3.8l.4-.2h0l2.4-4.1h0c.1-.3-.1-.7-.4-.7h-6.2V4.8a.9.9,0,0,0-.9-.9h0M75,12.6a.4.4,0,0,0-.2.6h0l2,3h0c.2.3.4.3.6.2h0A15.9,15.9,0,0,1,84,14.6h0c2.9,0,4.7.7,5.5,1.5h0v4.2H88.3c-3.8,0-15.2.2-15.2,9.4h0c0,5.1,3.3,8.5,8.7,8.5h0c2.5,0,6.6-2.2,7.7-2.9h0v1.3a.9.9,0,0,0,.9.9h3.7s.9,0,.9-.8h0V21.1c0-3.6,0-6.2-2.1-8.3h0c-1.9-2-4.3-2.9-8.4-2.9h0A16.5,16.5,0,0,0,75,12.6m3.5,16.9a3.8,3.8,0,0,1,1.1-2.8h0c1.5-1.6,4.6-2.1,8.4-2.1h1.5v7.1c-.5.2-4.9,1.8-6.2,1.8h0c-2.6,0-4.8-1.3-4.8-4m42.9-5.1c0,7.9,4.7,14,13.2,14h0a18.2,18.2,0,0,0,9.6-2.7h0a.5.5,0,0,0,.1-.6h0l-2-3.1h0c-.2-.3-.4-.2-.6-.2h0a13.9,13.9,0,0,1-6.6,1.7h0a7.3,7.3,0,0,1-7.7-7.5h17.9a.4.4,0,0,0,.4-.4h0a8.6,8.6,0,0,0,.1-1.7h0c0-8.6-4.2-14-11.6-14h0c-7.6,0-12.8,6-12.8,14.5m12.9-9.8c4.8,0,5.8,4.6,5.8,6.9H127.4c.5-4.1,3.2-6.9,6.9-6.9M99.6,18c0,4.9,4.1,6.7,7.1,8h0c3.7,1.5,5.8,2.2,5.8,4.3h0c0,1.9-1.6,3.4-4.7,3.4h0a14.4,14.4,0,0,1-6.4-1.8h0a.4.4,0,0,0-.6.2h0l-2,3.1a.5.5,0,0,0,.1.6h0a18.3,18.3,0,0,0,9.5,2.6h0c6,0,10.3-3.1,10.3-8.4h0c0-5.3-4.5-7.1-8.2-8.6h0c-2.8-1.2-4.8-2-4.8-3.9h0c0-1.6,1.2-3.1,4.3-3.1h0a14,14,0,0,1,5.6,1.5h0a.4.4,0,0,0,.6-.2h0l1.9-3a.5.5,0,0,0-.1-.6h0a15.8,15.8,0,0,0-8.4-2.2h0c-5.9,0-10,3.3-10,8.1M44.9,24.4c0,7.1,4.2,13.3,11.9,13.3h0a12.7,12.7,0,0,0,6.8-1.9h0v1.8c0,2.7-.1,4.8-1.8,6.2h0a7.3,7.3,0,0,1-5.1,1.6h0a15.5,15.5,0,0,1-8-2.5h0c-.3-.2-.5.2-.5.2h0s-2,3.1-2.2,3.2h0a.6.6,0,0,0,.1.6h0a18,18,0,0,0,11.2,3.6h0c4.9,0,7.7-1.5,9.6-3.4h0c2.6-2.7,2.8-5.5,2.8-9.6h0V12.9h0c0-.2-.2-.3-.3-.4h0A25,25,0,0,0,59.1,10h0c-8.5,0-14.2,6.3-14.2,14.4m6.1-.2c0-5.7,3.4-9.3,7.9-9.3h0a12.4,12.4,0,0,1,4.7,1h0V31a10.9,10.9,0,0,1-5.5,1.8h0c-3.9,0-7.1-3.2-7.1-8.6M40.3,10.8H36.6a.9.9,0,0,0-.9.9h0v25a.8.8,0,0,0,.9.8h3.7a.9.9,0,0,0,.9-.9h0V24.2h0V11.7h0a.9.9,0,0,0-.9-.9h0" fill="url(#a)"/></svg>