<?xml version="1.0" encoding="UTF-8" standalone="no"?>
<!DOCTYPE svg PUBLIC "-//W3C//DTD SVG 1.1//EN" "http://www.w3.org/Graphics/SVG/1.1/DTD/svg11.dtd">
<svg width="100%" height="100%" viewBox="0 0 1124 255" version="1.1" xmlns="http://www.w3.org/2000/svg" xmlns:xlink="http://www.w3.org/1999/xlink" xml:space="preserve" xmlns:serif="http://www.serif.com/" style="fill-rule:evenodd;clip-rule:evenodd;stroke-linejoin:round;stroke-miterlimit:2;">
    <g>
        <path d="M236.938,114.774C236.834,111.174 236.314,108.607 235.378,107.074C234.442,105.541 232.414,104.774 229.294,104.774C225.654,104.774 222.118,105.907 218.686,108.174L218.686,189.374C218.686,190.174 218.608,190.807 218.452,191.274C218.296,191.741 217.802,192.074 216.97,192.274C216.138,192.474 214.864,192.574 213.148,192.574L206.05,192.574L206.05,97.174C209.482,95.174 213.174,93.574 217.126,92.374C221.078,91.174 225.238,90.574 229.606,90.574C232.934,90.574 235.742,91.107 238.03,92.174C240.318,93.241 242.19,94.774 243.646,96.774C246.35,94.907 249.418,93.407 252.85,92.274C256.282,91.141 259.61,90.574 262.834,90.574C266.682,90.574 269.776,91.207 272.116,92.474C274.456,93.741 276.224,95.574 277.42,97.974C278.616,100.374 279.396,103.307 279.76,106.774C280.124,110.241 280.306,114.241 280.306,118.774L280.306,189.374C280.306,190.174 280.228,190.807 280.072,191.274C279.916,191.741 279.422,192.074 278.59,192.274C277.758,192.474 276.484,192.574 274.768,192.574L267.67,192.574L267.67,118.574C267.67,113.774 267.176,110.307 266.188,108.174C265.2,106.041 263.146,104.974 260.026,104.974C258.258,104.974 256.516,105.241 254.8,105.774C253.084,106.307 251.342,107.307 249.574,108.774L249.574,189.374C249.574,190.174 249.522,190.807 249.418,191.274C249.314,191.741 248.872,192.074 248.092,192.274C247.312,192.474 246.064,192.574 244.348,192.574L236.938,192.574L236.938,114.774Z" style="fill:white;fill-rule:nonzero;"/>
        <path d="M318.682,90.574C319.722,90.574 320.944,90.707 322.348,90.974C323.752,91.241 325.13,91.641 326.482,92.174L345.202,92.174C345.514,92.841 345.8,93.841 346.06,95.174C346.32,96.507 346.45,98.107 346.45,99.974C346.45,104.107 344.994,106.174 342.082,106.174C340.626,106.174 338.754,105.841 336.466,105.174C338.234,107.441 339.664,110.374 340.756,113.974C341.848,117.574 342.394,121.841 342.394,126.774C342.394,137.441 340.444,145.941 336.544,152.274C332.644,158.607 326.17,161.774 317.122,161.774C314.21,161.774 311.87,161.507 310.102,160.974C309.062,162.307 308.126,163.774 307.294,165.374C306.462,166.974 306.046,168.441 306.046,169.774C306.046,170.707 306.514,171.474 307.45,172.074C308.386,172.674 309.686,173.174 311.35,173.574C313.014,173.974 314.964,174.374 317.2,174.774C319.436,175.174 321.854,175.574 324.454,175.974C327.574,176.641 330.382,177.474 332.878,178.474C335.374,179.474 337.532,180.874 339.352,182.674C341.172,184.474 342.576,186.707 343.564,189.374C344.552,192.041 345.046,195.374 345.046,199.374C345.046,203.641 344.474,207.741 343.33,211.674C342.186,215.607 340.392,219.074 337.948,222.074C335.504,225.074 332.384,227.474 328.588,229.274C324.792,231.074 320.294,231.974 315.094,231.974C309.894,231.974 305.656,231.341 302.38,230.074C299.104,228.807 296.556,227.107 294.736,224.974C292.916,222.841 291.694,220.507 291.07,217.974C290.446,215.441 290.134,212.841 290.134,210.174C290.134,205.241 291.278,200.741 293.566,196.674C295.854,192.607 298.662,189.107 301.99,186.174C298.974,185.107 296.608,183.674 294.892,181.874C293.176,180.074 292.37,177.841 292.474,175.174C292.578,172.507 293.514,169.607 295.282,166.474C297.05,163.341 299.442,160.241 302.458,157.174C298.818,154.107 296.296,149.941 294.892,144.674C293.488,139.407 292.786,133.574 292.786,127.174C292.786,120.507 293.41,114.841 294.658,110.174C295.906,105.507 297.674,101.741 299.962,98.874C302.25,96.007 304.98,93.907 308.152,92.574C311.324,91.241 314.834,90.574 318.682,90.574ZM318.214,102.574C314.886,102.574 312.052,104.407 309.712,108.074C307.372,111.741 306.202,117.974 306.202,126.774C306.202,130.374 306.358,133.574 306.67,136.374C306.982,139.174 307.554,141.541 308.386,143.474C309.218,145.407 310.388,146.874 311.896,147.874C313.404,148.874 315.354,149.374 317.746,149.374C321.906,149.374 324.922,147.174 326.794,142.774C328.666,138.374 329.602,131.774 329.602,122.974C329.602,115.641 328.64,110.407 326.716,107.274C324.792,104.141 321.958,102.574 318.214,102.574ZM314.47,188.774C313.95,188.774 313.482,188.741 313.066,188.674C312.65,188.607 312.182,188.507 311.662,188.374C309.374,190.641 307.398,193.374 305.734,196.574C304.07,199.774 303.238,203.041 303.238,206.374C303.238,207.974 303.42,209.407 303.784,210.674C304.148,211.941 304.798,213.041 305.734,213.974C306.67,214.907 307.996,215.641 309.712,216.174C311.428,216.707 313.638,216.974 316.342,216.974C319.15,216.974 321.542,216.507 323.518,215.574C325.494,214.641 327.132,213.407 328.432,211.874C329.732,210.341 330.694,208.674 331.318,206.874C331.942,205.074 332.254,203.307 332.254,201.574C332.254,199.307 331.968,197.441 331.396,195.974C330.824,194.507 329.862,193.274 328.51,192.274C327.158,191.274 325.338,190.507 323.05,189.974C320.762,189.441 317.902,189.041 314.47,188.774Z" style="fill:white;fill-rule:nonzero;"/>
        <path d="M361.426,106.574L350.818,106.574C350.818,103.507 350.844,101.041 350.896,99.174C350.948,97.307 351.052,95.874 351.208,94.874C351.364,93.874 351.65,93.241 352.066,92.974C352.482,92.707 353.002,92.574 353.626,92.574L361.426,92.574L361.426,62.174C361.426,60.841 361.608,59.774 361.972,58.974C362.336,58.174 362.986,57.607 363.922,57.274C364.858,56.941 366.158,56.741 367.822,56.674C369.486,56.607 371.618,56.574 374.218,56.574L374.218,92.574L390.13,92.574C390.13,95.774 390.104,98.274 390.052,100.074C390,101.874 389.896,103.274 389.74,104.274C389.584,105.274 389.35,105.907 389.038,106.174C388.726,106.441 388.258,106.574 387.634,106.574L374.218,106.574L374.218,164.774C374.218,166.907 374.244,168.941 374.296,170.874C374.348,172.807 374.556,174.474 374.92,175.874C375.284,177.274 375.83,178.407 376.558,179.274C377.286,180.141 378.378,180.574 379.834,180.574C381.602,180.574 383.162,180.341 384.514,179.874C385.866,179.407 387.322,178.641 388.882,177.574C389.09,178.641 389.298,179.841 389.506,181.174C389.714,182.507 389.818,183.974 389.818,185.574C389.818,187.441 389.402,188.941 388.57,190.074C387.738,191.207 386.672,192.107 385.372,192.774C384.072,193.441 382.642,193.907 381.082,194.174C379.522,194.441 377.962,194.574 376.402,194.574C373.074,194.574 370.422,193.874 368.446,192.474C366.47,191.074 364.962,189.074 363.922,186.474C362.882,183.874 362.206,180.741 361.894,177.074C361.582,173.407 361.426,169.307 361.426,164.774L361.426,106.574Z" style="fill:white;fill-rule:nonzero;"/>
        <path d="M386.178,143.374C386.178,138.307 386.282,134.674 386.49,132.474C386.698,130.274 387.426,129.174 388.674,129.174L418.002,129.174C418.002,134.241 417.898,137.874 417.69,140.074C417.482,142.274 416.702,143.374 415.35,143.374L386.178,143.374Z" style="fill:white;fill-rule:nonzero;"/>
        <path d="M469.638,99.574C469.638,100.641 469.534,101.974 469.326,103.574C469.118,105.174 468.754,106.841 468.234,108.574C466.986,107.641 465.374,106.807 463.398,106.074C461.422,105.341 459.394,104.974 457.314,104.974C455.442,104.974 453.596,105.374 451.776,106.174C449.956,106.974 448.318,108.741 446.862,111.474C445.406,114.207 444.21,118.207 443.274,123.474C442.338,128.741 441.87,135.841 441.87,144.774C441.87,151.841 442.156,157.641 442.728,162.174C443.3,166.707 444.158,170.307 445.302,172.974C446.446,175.641 447.876,177.507 449.592,178.574C451.308,179.641 453.362,180.174 455.754,180.174C458.25,180.174 460.59,179.674 462.774,178.674C464.958,177.674 466.726,176.641 468.078,175.574C468.494,177.441 468.806,179.041 469.014,180.374C469.222,181.707 469.326,183.041 469.326,184.374C469.326,187.041 467.714,189.407 464.49,191.474C461.266,193.541 457.054,194.574 451.854,194.574C448.11,194.574 444.808,193.974 441.948,192.774C439.088,191.574 436.67,189.174 434.694,185.574C432.718,181.974 431.21,176.907 430.17,170.374C429.13,163.841 428.61,155.307 428.61,144.774C428.61,132.774 429.468,123.207 431.184,116.074C432.9,108.941 435.11,103.474 437.814,99.674C440.518,95.874 443.534,93.407 446.862,92.274C450.19,91.141 453.466,90.574 456.69,90.574C460.33,90.574 463.398,91.407 465.894,93.074C468.39,94.741 469.638,96.907 469.638,99.574Z" style="fill:white;fill-rule:nonzero;"/>
        <path d="M473.946,142.574C473.946,124.307 476.208,111.074 480.732,102.874C485.256,94.674 491.626,90.574 499.842,90.574C503.898,90.574 507.46,91.341 510.528,92.874C513.596,94.407 516.118,97.141 518.094,101.074C520.07,105.007 521.552,110.274 522.54,116.874C523.528,123.474 524.022,131.841 524.022,141.974C524.022,160.641 521.838,174.074 517.47,182.274C513.102,190.474 506.758,194.574 498.438,194.574C494.382,194.574 490.846,193.974 487.83,192.774C484.814,191.574 482.266,189.141 480.186,185.474C478.106,181.807 476.546,176.541 475.506,169.674C474.466,162.807 473.946,153.774 473.946,142.574ZM487.674,142.974C487.674,151.241 487.908,157.841 488.376,162.774C488.844,167.707 489.546,171.507 490.482,174.174C491.418,176.841 492.588,178.607 493.992,179.474C495.396,180.341 496.982,180.774 498.75,180.774C500.414,180.774 501.948,180.241 503.352,179.174C504.756,178.107 505.978,176.107 507.018,173.174C508.058,170.241 508.864,166.307 509.436,161.374C510.008,156.441 510.294,150.041 510.294,142.174C510.294,134.174 510.06,127.741 509.592,122.874C509.124,118.007 508.448,114.241 507.564,111.574C506.68,108.907 505.562,107.107 504.21,106.174C502.858,105.241 501.246,104.774 499.374,104.774C497.606,104.774 496.02,105.307 494.616,106.374C493.212,107.441 491.99,109.374 490.95,112.174C489.91,114.974 489.104,118.874 488.532,123.874C487.96,128.874 487.674,135.241 487.674,142.974Z" style="fill:white;fill-rule:nonzero;"/>
        <path d="M565.674,114.774C565.57,111.174 565.05,108.607 564.114,107.074C563.178,105.541 561.15,104.774 558.03,104.774C554.39,104.774 550.854,105.907 547.422,108.174L547.422,189.374C547.422,190.174 547.344,190.807 547.188,191.274C547.032,191.741 546.538,192.074 545.706,192.274C544.874,192.474 543.6,192.574 541.884,192.574L534.786,192.574L534.786,97.174C538.218,95.174 541.91,93.574 545.862,92.374C549.814,91.174 553.974,90.574 558.342,90.574C561.67,90.574 564.478,91.107 566.766,92.174C569.054,93.241 570.926,94.774 572.382,96.774C575.086,94.907 578.154,93.407 581.586,92.274C585.018,91.141 588.346,90.574 591.57,90.574C595.418,90.574 598.512,91.207 600.852,92.474C603.192,93.741 604.96,95.574 606.156,97.974C607.352,100.374 608.132,103.307 608.496,106.774C608.86,110.241 609.042,114.241 609.042,118.774L609.042,189.374C609.042,190.174 608.964,190.807 608.808,191.274C608.652,191.741 608.158,192.074 607.326,192.274C606.494,192.474 605.22,192.574 603.504,192.574L596.406,192.574L596.406,118.574C596.406,113.774 595.912,110.307 594.924,108.174C593.936,106.041 591.882,104.974 588.762,104.974C586.994,104.974 585.252,105.241 583.536,105.774C581.82,106.307 580.078,107.307 578.31,108.774L578.31,189.374C578.31,190.174 578.258,190.807 578.154,191.274C578.05,191.741 577.608,192.074 576.828,192.274C576.048,192.474 574.8,192.574 573.084,192.574L565.674,192.574L565.674,114.774Z" style="fill:white;fill-rule:nonzero;"/>
        <path d="M653.502,114.774C653.398,111.174 652.878,108.607 651.942,107.074C651.006,105.541 648.978,104.774 645.858,104.774C642.218,104.774 638.682,105.907 635.25,108.174L635.25,189.374C635.25,190.174 635.172,190.807 635.016,191.274C634.86,191.741 634.366,192.074 633.534,192.274C632.702,192.474 631.428,192.574 629.712,192.574L622.614,192.574L622.614,97.174C626.046,95.174 629.738,93.574 633.69,92.374C637.642,91.174 641.802,90.574 646.17,90.574C649.498,90.574 652.306,91.107 654.594,92.174C656.882,93.241 658.754,94.774 660.21,96.774C662.914,94.907 665.982,93.407 669.414,92.274C672.846,91.141 676.174,90.574 679.398,90.574C683.246,90.574 686.34,91.207 688.68,92.474C691.02,93.741 692.788,95.574 693.984,97.974C695.18,100.374 695.96,103.307 696.324,106.774C696.688,110.241 696.87,114.241 696.87,118.774L696.87,189.374C696.87,190.174 696.792,190.807 696.636,191.274C696.48,191.741 695.986,192.074 695.154,192.274C694.322,192.474 693.048,192.574 691.332,192.574L684.234,192.574L684.234,118.574C684.234,113.774 683.74,110.307 682.752,108.174C681.764,106.041 679.71,104.974 676.59,104.974C674.822,104.974 673.08,105.241 671.364,105.774C669.648,106.307 667.906,107.307 666.138,108.774L666.138,189.374C666.138,190.174 666.086,190.807 665.982,191.274C665.878,191.741 665.436,192.074 664.656,192.274C663.876,192.474 662.628,192.574 660.912,192.574L653.502,192.574L653.502,114.774Z" style="fill:white;fill-rule:nonzero;"/>
        <path d="M735.714,90.574C748.922,90.574 755.526,101.307 755.526,122.774C755.526,127.174 755.396,131.707 755.136,136.374C754.876,141.041 754.434,145.174 753.81,148.774C751.106,149.441 748.246,149.974 745.23,150.374C742.214,150.774 739.224,151.107 736.26,151.374C733.296,151.641 730.514,151.807 727.914,151.874C725.314,151.941 723.078,151.974 721.206,151.974C721.31,157.307 721.7,161.707 722.376,165.174C723.052,168.641 723.962,171.374 725.106,173.374C726.25,175.374 727.706,176.774 729.474,177.574C731.242,178.374 733.322,178.774 735.714,178.774C738.834,178.774 741.902,178.207 744.918,177.074C747.934,175.941 750.794,174.441 753.498,172.574C753.914,174.041 754.2,175.841 754.356,177.974C754.512,180.107 754.59,181.974 754.59,183.574C754.59,185.174 754.018,186.641 752.874,187.974C751.73,189.307 750.17,190.474 748.194,191.474C746.218,192.474 743.93,193.241 741.33,193.774C738.73,194.307 735.974,194.574 733.062,194.574C729.422,194.574 726.068,193.974 723,192.774C719.932,191.574 717.306,189.274 715.122,185.874C712.938,182.474 711.222,177.707 709.974,171.574C708.726,165.441 708.102,157.507 708.102,147.774C708.102,135.241 708.908,125.207 710.52,117.674C712.132,110.141 714.212,104.374 716.76,100.374C719.308,96.374 722.246,93.741 725.574,92.474C728.902,91.207 732.282,90.574 735.714,90.574ZM734.31,104.774C732.75,104.774 731.242,105.274 729.786,106.274C728.33,107.274 727.004,109.074 725.808,111.674C724.612,114.274 723.624,117.741 722.844,122.074C722.064,126.407 721.57,131.974 721.362,138.774L726.354,138.774C728.226,138.774 730.124,138.674 732.048,138.474C733.972,138.274 735.844,138.041 737.664,137.774C739.484,137.507 741.07,137.107 742.422,136.574C742.734,134.707 742.942,132.707 743.046,130.574C743.15,128.441 743.202,126.441 743.202,124.574C743.098,117.374 742.422,112.274 741.174,109.274C739.926,106.274 737.638,104.774 734.31,104.774Z" style="fill:white;fill-rule:nonzero;"/>
        <path d="M766.602,99.574C769.618,96.907 772.946,94.741 776.586,93.074C780.226,91.407 783.97,90.574 787.818,90.574C791.77,90.574 794.578,91.307 796.242,92.774C797.906,94.241 798.738,96.307 798.738,98.974C798.738,100.041 798.634,101.474 798.426,103.274C798.218,105.074 797.854,106.841 797.334,108.574C794.942,106.974 792.446,106.174 789.846,106.174C788.078,106.174 786.284,106.541 784.464,107.274C782.644,108.007 781.006,109.174 779.55,110.774L779.394,189.374C779.394,190.174 779.316,190.807 779.16,191.274C779.004,191.741 778.536,192.074 777.756,192.274C776.976,192.474 775.702,192.574 773.934,192.574L766.602,192.574L766.602,99.574Z" style="fill:white;fill-rule:nonzero;"/>
        <path d="M842.474,99.574C842.474,100.641 842.37,101.974 842.162,103.574C841.954,105.174 841.59,106.841 841.07,108.574C839.822,107.641 838.21,106.807 836.234,106.074C834.258,105.341 832.23,104.974 830.15,104.974C828.278,104.974 826.432,105.374 824.612,106.174C822.792,106.974 821.154,108.741 819.698,111.474C818.242,114.207 817.046,118.207 816.11,123.474C815.174,128.741 814.706,135.841 814.706,144.774C814.706,151.841 814.992,157.641 815.564,162.174C816.136,166.707 816.994,170.307 818.138,172.974C819.282,175.641 820.712,177.507 822.428,178.574C824.144,179.641 826.198,180.174 828.59,180.174C831.086,180.174 833.426,179.674 835.61,178.674C837.794,177.674 839.562,176.641 840.914,175.574C841.33,177.441 841.642,179.041 841.85,180.374C842.058,181.707 842.162,183.041 842.162,184.374C842.162,187.041 840.55,189.407 837.326,191.474C834.102,193.541 829.89,194.574 824.69,194.574C820.946,194.574 817.644,193.974 814.784,192.774C811.924,191.574 809.506,189.174 807.53,185.574C805.554,181.974 804.046,176.907 803.006,170.374C801.966,163.841 801.446,155.307 801.446,144.774C801.446,132.774 802.304,123.207 804.02,116.074C805.736,108.941 807.946,103.474 810.65,99.674C813.354,95.874 816.37,93.407 819.698,92.274C823.026,91.141 826.302,90.574 829.526,90.574C833.166,90.574 836.234,91.407 838.73,93.074C841.226,94.741 842.474,96.907 842.474,99.574Z" style="fill:white;fill-rule:nonzero;"/>
        <path d="M874.686,90.574C887.894,90.574 894.498,101.307 894.498,122.774C894.498,127.174 894.368,131.707 894.108,136.374C893.848,141.041 893.406,145.174 892.782,148.774C890.078,149.441 887.218,149.974 884.202,150.374C881.186,150.774 878.196,151.107 875.232,151.374C872.268,151.641 869.486,151.807 866.886,151.874C864.286,151.941 862.05,151.974 860.178,151.974C860.282,157.307 860.672,161.707 861.348,165.174C862.024,168.641 862.934,171.374 864.078,173.374C865.222,175.374 866.678,176.774 868.446,177.574C870.214,178.374 872.294,178.774 874.686,178.774C877.806,178.774 880.874,178.207 883.89,177.074C886.906,175.941 889.766,174.441 892.47,172.574C892.886,174.041 893.172,175.841 893.328,177.974C893.484,180.107 893.562,181.974 893.562,183.574C893.562,185.174 892.99,186.641 891.846,187.974C890.702,189.307 889.142,190.474 887.166,191.474C885.19,192.474 882.902,193.241 880.302,193.774C877.702,194.307 874.946,194.574 872.034,194.574C868.394,194.574 865.04,193.974 861.972,192.774C858.904,191.574 856.278,189.274 854.094,185.874C851.91,182.474 850.194,177.707 848.946,171.574C847.698,165.441 847.074,157.507 847.074,147.774C847.074,135.241 847.88,125.207 849.492,117.674C851.104,110.141 853.184,104.374 855.732,100.374C858.28,96.374 861.218,93.741 864.546,92.474C867.874,91.207 871.254,90.574 874.686,90.574ZM873.282,104.774C871.722,104.774 870.214,105.274 868.758,106.274C867.302,107.274 865.976,109.074 864.78,111.674C863.584,114.274 862.596,117.741 861.816,122.074C861.036,126.407 860.542,131.974 860.334,138.774L865.326,138.774C867.198,138.774 869.096,138.674 871.02,138.474C872.944,138.274 874.816,138.041 876.636,137.774C878.456,137.507 880.042,137.107 881.394,136.574C881.706,134.707 881.914,132.707 882.018,130.574C882.122,128.441 882.174,126.441 882.174,124.574C882.07,117.374 881.394,112.274 880.146,109.274C878.898,106.274 876.61,104.774 873.282,104.774Z" style="fill:white;fill-rule:nonzero;"/>
        <path d="M904.326,182.374C904.326,179.307 905.08,176.607 906.588,174.274C908.096,171.941 910.254,170.774 913.062,170.774C916.286,170.774 918.548,171.841 919.848,173.974C921.148,176.107 921.798,178.907 921.798,182.374C921.798,185.574 921.018,188.274 919.458,190.474C917.898,192.674 915.766,193.774 913.062,193.774C909.734,193.774 907.446,192.774 906.198,190.774C904.95,188.774 904.326,185.974 904.326,182.374Z" style="fill:white;fill-rule:nonzero;"/>
        <path d="M971.566,99.574C971.566,100.641 971.462,101.974 971.254,103.574C971.046,105.174 970.682,106.841 970.162,108.574C968.914,107.641 967.302,106.807 965.326,106.074C963.35,105.341 961.322,104.974 959.242,104.974C957.37,104.974 955.524,105.374 953.704,106.174C951.884,106.974 950.246,108.741 948.79,111.474C947.334,114.207 946.138,118.207 945.202,123.474C944.266,128.741 943.798,135.841 943.798,144.774C943.798,151.841 944.084,157.641 944.656,162.174C945.228,166.707 946.086,170.307 947.23,172.974C948.374,175.641 949.804,177.507 951.52,178.574C953.236,179.641 955.29,180.174 957.682,180.174C960.178,180.174 962.518,179.674 964.702,178.674C966.886,177.674 968.654,176.641 970.006,175.574C970.422,177.441 970.734,179.041 970.942,180.374C971.15,181.707 971.254,183.041 971.254,184.374C971.254,187.041 969.642,189.407 966.418,191.474C963.194,193.541 958.982,194.574 953.782,194.574C950.038,194.574 946.736,193.974 943.876,192.774C941.016,191.574 938.598,189.174 936.622,185.574C934.646,181.974 933.138,176.907 932.098,170.374C931.058,163.841 930.538,155.307 930.538,144.774C930.538,132.774 931.396,123.207 933.112,116.074C934.828,108.941 937.038,103.474 939.742,99.674C942.446,95.874 945.462,93.407 948.79,92.274C952.118,91.141 955.394,90.574 958.618,90.574C962.258,90.574 965.326,91.407 967.822,93.074C970.318,94.741 971.566,96.907 971.566,99.574Z" style="fill:white;fill-rule:nonzero;"/>
        <path d="M975.874,142.574C975.874,124.307 978.136,111.074 982.66,102.874C987.184,94.674 993.554,90.574 1001.77,90.574C1005.83,90.574 1009.39,91.341 1012.46,92.874C1015.52,94.407 1018.05,97.141 1020.02,101.074C1022,105.007 1023.48,110.274 1024.47,116.874C1025.46,123.474 1025.95,131.841 1025.95,141.974C1025.95,160.641 1023.77,174.074 1019.4,182.274C1015.03,190.474 1008.69,194.574 1000.37,194.574C996.31,194.574 992.774,193.974 989.758,192.774C986.742,191.574 984.194,189.141 982.114,185.474C980.034,181.807 978.474,176.541 977.434,169.674C976.394,162.807 975.874,153.774 975.874,142.574ZM989.602,142.974C989.602,151.241 989.836,157.841 990.304,162.774C990.772,167.707 991.474,171.507 992.41,174.174C993.346,176.841 994.516,178.607 995.92,179.474C997.324,180.341 998.91,180.774 1000.68,180.774C1002.34,180.774 1003.88,180.241 1005.28,179.174C1006.68,178.107 1007.91,176.107 1008.95,173.174C1009.99,170.241 1010.79,166.307 1011.36,161.374C1011.94,156.441 1012.22,150.041 1012.22,142.174C1012.22,134.174 1011.99,127.741 1011.52,122.874C1011.05,118.007 1010.38,114.241 1009.49,111.574C1008.61,108.907 1007.49,107.107 1006.14,106.174C1004.79,105.241 1003.17,104.774 1001.3,104.774C999.534,104.774 997.948,105.307 996.544,106.374C995.14,107.441 993.918,109.374 992.878,112.174C991.838,114.974 991.032,118.874 990.46,123.874C989.888,128.874 989.602,135.241 989.602,142.974Z" style="fill:white;fill-rule:nonzero;"/>
        <path d="M1067.6,114.774C1067.5,111.174 1066.98,108.607 1066.04,107.074C1065.1,105.541 1063.08,104.774 1059.96,104.774C1056.32,104.774 1052.78,105.907 1049.35,108.174L1049.35,189.374C1049.35,190.174 1049.27,190.807 1049.11,191.274C1048.96,191.741 1048.46,192.074 1047.63,192.274C1046.8,192.474 1045.53,192.574 1043.81,192.574L1036.71,192.574L1036.71,97.174C1040.14,95.174 1043.84,93.574 1047.79,92.374C1051.74,91.174 1055.9,90.574 1060.27,90.574C1063.6,90.574 1066.4,91.107 1068.69,92.174C1070.98,93.241 1072.85,94.774 1074.31,96.774C1077.01,94.907 1080.08,93.407 1083.51,92.274C1086.94,91.141 1090.27,90.574 1093.5,90.574C1097.34,90.574 1100.44,91.207 1102.78,92.474C1105.12,93.741 1106.89,95.574 1108.08,97.974C1109.28,100.374 1110.06,103.307 1110.42,106.774C1110.79,110.241 1110.97,114.241 1110.97,118.774L1110.97,189.374C1110.97,190.174 1110.89,190.807 1110.73,191.274C1110.58,191.741 1110.08,192.074 1109.25,192.274C1108.42,192.474 1107.15,192.574 1105.43,192.574L1098.33,192.574L1098.33,118.574C1098.33,113.774 1097.84,110.307 1096.85,108.174C1095.86,106.041 1093.81,104.974 1090.69,104.974C1088.92,104.974 1087.18,105.241 1085.46,105.774C1083.75,106.307 1082,107.307 1080.24,108.774L1080.24,189.374C1080.24,190.174 1080.18,190.807 1080.08,191.274C1079.98,191.741 1079.53,192.074 1078.75,192.274C1077.97,192.474 1076.73,192.574 1075.01,192.574L1067.6,192.574L1067.6,114.774Z" style="fill:white;fill-rule:nonzero;"/>
        <path d="M133.111,90.732C134.738,88.101 133.903,84.751 131.248,83.238L121.829,77.862C119.19,76.35 115.715,77.263 114.098,79.891L107.022,91.352C105.39,93.992 106.224,97.345 108.873,98.854L118.285,104.229C120.94,105.735 124.413,104.828 126.027,102.199L133.111,90.732ZM130.188,173.953L109.839,206.885C109.216,207.905 108.203,208.701 106.937,209.04C105.671,209.359 104.389,209.164 103.368,208.586L83.351,197.15C82.318,196.569 81.538,195.602 81.24,194.384C80.928,193.145 81.179,191.91 81.802,190.896L90.972,176.024C85.958,179.849 81.157,183.25 76.768,186.169C75.404,181.516 72.504,177.531 68.197,175.074C63.851,172.604 58.807,172.071 53.919,173.15C54.466,168.053 55.284,162.365 56.371,156.298L47.197,171.15C46.56,172.177 45.531,172.965 44.264,173.296C43.002,173.624 41.757,173.431 40.727,172.847L20.693,161.419C19.671,160.843 18.877,159.87 18.574,158.646C18.258,157.413 18.496,156.179 19.139,155.154L39.466,122.227C41.312,119.262 44.268,117.082 47.696,116.201L69.516,110.626C73.328,101.29 77.969,91.831 83.704,82.565C92.455,68.398 102.804,56.07 113.35,45.574C119.598,52.991 127.288,59.502 136.343,64.674C145.41,69.833 155.05,73.211 164.831,74.92C160.284,88.851 153.986,103.486 145.239,117.647C139.531,126.907 133.109,135.364 126.385,143.068L131.75,164.126C132.571,167.445 132.024,170.981 130.188,173.953M69.77,188.284C63.835,197.919 54.534,203.793 50.451,206.028C49.448,206.584 48.348,205.961 48.379,204.84C48.468,200.322 49.375,189.676 55.327,180.034C55.699,179.418 56.107,178.808 56.505,178.231C47.666,183.014 36.383,190.909 29.089,202.744C18.782,219.413 19.395,239.09 20.277,247.518C20.479,249.582 22.94,250.982 24.936,250.168C33.043,246.878 51.301,237.969 61.62,221.278C68.915,209.454 70.733,196.171 70.868,186.414C70.527,187.037 70.152,187.671 69.77,188.284M140.63,57.752C132.3,53.01 125.242,47.03 119.528,40.241C138.021,23.307 156.186,11.934 166.58,6.081C170.891,3.661 175.537,6.31 175.383,11.114C175.023,22.675 173.333,43.44 166.722,67.163C157.789,65.59 148.94,62.498 140.63,57.752" style="fill:white;fill-rule:nonzero;"/>
    </g>
</svg>
