<svg xmlns="http://www.w3.org/2000/svg" width="165" height="40.6" viewBox="0 0 165 40.6"><path d="M21.6,40.6C8.6,40.6,0,31.5,0,20.4S8.7,0,21.6,0H143.4C156.3,0,165,9.2,165,20.4s-8.6,20.2-21.6,20.2Z" fill="#ed1c24"/><path d="M21.6,5C11.4,5,5.1,11.9,5.1,20.3s6.2,15.4,16.5,15.4H143.4c10.3,0,16.5-6.9,16.5-15.4S153.6,5,143.4,5Z" fill="#fff"/><path d="M16.4,10.7h5.9l8.3,13.4V10.7h5.9V29.9H30.6L22.3,16.5V29.9H16.4V10.7Z" fill="#ed1c24"/><path d="M68.7,12.7h5.7v2.6h3.1v1.9H74.4V29.9H68.7V17.2H65.5V15.3h3.2V12.7Z" fill="#ed1c24"/><path d="M39.8,17.1h5.7V29.9H39.8Z" fill="#ed1c24"/><path d="M39.8,10.7h5.7v3.9H39.8Z" fill="#ed1c24"/><path d="M140.6,16.3c-4.6,0-8.4,3.2-8.4,7.1s3.8,7.2,8.4,7.2,8.4-3.2,8.4-7.2-3.7-7.1-8.4-7.1m2.3,7.1v2.7c0,2-1.2,2.8-2.3,2.8s-2.4-.8-2.4-2.8V20.7c0-2,1.2-2.9,2.4-2.9s2.3.9,2.3,2.9v2.7Z" fill="#ed1c24"/><path d="M124.7,23.4V21.2a2.2,2.2,0,0,0-2.3-2.5,2.2,2.2,0,0,0-2.2,2.5v4.5a2.2,2.2,0,0,0,2.2,2.5,2.2,2.2,0,0,0,2.3-2.5V23.4Zm0-12.7h5.6V29.9h-5.6v-.8a6.8,6.8,0,0,1-10.5-5.8,7,7,0,0,1,7.3-6.7,6.9,6.9,0,0,1,3.3,1.2V10.7Z" fill="#ed1c24"/><path d="M59,16.5c2.2,0,6.5,1.4,6.5,6.4v7H59.8V21.5a2.6,2.6,0,0,0-2.7-2.3,2.6,2.6,0,0,0-2.7,2.3v8.4H48.7V17.1h5.7v1.4a7,7,0,0,1,4.6-2" fill="#ed1c24"/><path d="M105.8,16.5c2.1,0,6.5,1.4,6.5,6.4v7h-5.8V21.5a2.5,2.5,0,0,0-2.6-2.3,2.6,2.6,0,0,0-2.7,2.3v8.4H95.5V17.1h5.7v1.4a7,7,0,0,1,4.6-2" fill="#ed1c24"/><path d="M87.7,25.4v.8c0,2.3-1.6,2.8-2.4,2.8s-2.4-.5-2.4-2.8V23.6s10.8,0,10.8-.1c0-3.9-3.8-7.2-8.5-7.2s-8.4,3.2-8.4,7.2,3.8,7.1,8.4,7.1,7.2-2.2,8.2-5.2Zm-4.8-3.8a4.5,4.5,0,0,1,.4-2.5,2.2,2.2,0,0,1,2-1.2,2.3,2.3,0,0,1,2,1.2,4.5,4.5,0,0,1,.4,2.5Z" fill="#ed1c24"/><path d="M150.2,12.8c.6,0,1.1,0,1.1-.7s-.5-.6-1-.6h-.9v1.3Zm-.8,2.5h-.6V10.9h1.6c1.1,0,1.6.4,1.6,1.3a1.2,1.2,0,0,1-1.2,1.2l1.3,1.9h-.8l-1.1-1.9h-.8v1.9Z" fill="#ed1c24"/><path d="M150.2,16.2a3.1,3.1,0,0,0,3.1-3.1,3.1,3.1,0,0,0-3.1-3.2,3.1,3.1,0,0,0-3,3.2,3,3,0,0,0,3,3.1m-3.8-3.1a3.8,3.8,0,0,1,3.8-3.8,3.8,3.8,0,1,1,0,7.6,3.8,3.8,0,0,1-3.8-3.8" fill="#ed1c24"/></svg>