<svg xmlns="http://www.w3.org/2000/svg" width="120" height="18.6" viewBox="0 0 120 18.6"><path d="M19.2,6.4H12.7L10.7.5a.9.9,0,0,0-1-.5,1,1,0,0,0-.4.5l-2,5.9H.7a.7.7,0,0,0-.7.7v.2c0,.2.1.3.3.5l5.4,3.8-2.1,6a.7.7,0,0,0,.3.8.5.5,0,0,0,.4.2l.4-.2L10,14.7l5.3,3.7.4.2a.5.5,0,0,0,.4-.2.7.7,0,0,0,.3-.8l-2.1-6,5.3-3.9h.2l.2-.4A.8.8,0,0,0,19.2,6.4Z" fill="#f59d17"></path><path d="M44.2,6.4H37.7L35.7.5a.9.9,0,0,0-1-.5,1,1,0,0,0-.4.5l-2,5.9H25.7a.7.7,0,0,0-.7.7v.2c0,.2.1.3.3.5l5.4,3.8-2.1,6a.7.7,0,0,0,.3.8.5.5,0,0,0,.4.2l.4-.2L35,14.7l5.3,3.7.4.2a.5.5,0,0,0,.4-.2.7.7,0,0,0,.3-.8l-2.1-6,5.3-3.9h.2l.2-.4A.8.8,0,0,0,44.2,6.4Z" fill="#f59d17"></path><path d="M69.2,6.4H62.7L60.7.5a.9.9,0,0,0-1-.5,1,1,0,0,0-.4.5l-2,5.9H50.7a.7.7,0,0,0-.7.7v.2c0,.2.1.3.3.5l5.4,3.8-2.1,6a.7.7,0,0,0,.3.8.5.5,0,0,0,.4.2l.4-.2L60,14.7l5.3,3.7.4.2a.5.5,0,0,0,.4-.2.7.7,0,0,0,.3-.8l-2.1-6,5.3-3.9h.2a.8.8,0,0,0,.2-.4A.8.8,0,0,0,69.2,6.4Z" fill="#f59d17"></path><path d="M94.2,6.4H87.7L85.7.5a.9.9,0,0,0-1-.5,1,1,0,0,0-.4.5l-2,5.9H75.7a.7.7,0,0,0-.7.7v.2c0,.2.1.3.3.5l5.4,3.8-2.1,6a.7.7,0,0,0,.3.8.5.5,0,0,0,.4.2l.4-.2L85,14.7l5.3,3.7.4.2a.5.5,0,0,0,.4-.2.7.7,0,0,0,.3-.8l-2.1-6,5.3-3.9h.2a.8.8,0,0,0,.2-.4A.8.8,0,0,0,94.2,6.4Z" fill="#f59d17"></path><path d="M110,0a.8.8,0,0,1,.7.5l2,5.9h6.6a.7.7,0,0,1,.7.7v.2c0,.2-.2.3-.3.5l-5.4,3.8,2.1,6a.7.7,0,0,1-.3.8.5.5,0,0,1-.8,0L110,14.7h0Z" fill="#e6e6e6"></path><path d="M110,0a.8.8,0,0,0-.7.5l-2,5.9h-6.6a.7.7,0,0,0-.7.7v.2c0,.2.1.3.3.5l5.4,3.8-2.1,6a.7.7,0,0,0,.3.8.5.5,0,0,0,.4.2l.4-.2,5.3-3.7h0Z" fill="#f59d17"></path></svg>