<?xml version="1.0" encoding="utf-8"?>
<!-- Generator: Adobe Illustrator 23.1.0, SVG Export Plug-In . SVG Version: 6.00 Build 0)  -->
<svg version="1.1" id="Layer_1" xmlns="http://www.w3.org/2000/svg" xmlns:xlink="http://www.w3.org/1999/xlink" x="0px" y="0px"
	 viewBox="0 0 366.5 171.9" style="enable-background:new 0 0 366.5 171.9;" xml:space="preserve">
<style type="text/css">
	.st0{fill:#25A9DE;}
	.st1{fill:#FFFFFF;}
	.st2{font-family:'OpenSans-SemiBold';}
	.st3{font-size:68.8511px;}
	.st4{font-size:18.6084px;}
</style>
<path class="st0" d="M252,72.6c-1.6,2.4-5.1,3.1-7.9,2.5c-3-0.7-5.6-2.6-8.3-4.3c-15-9.7-34-13-51.5-9.2c-4.1,0.9-8.6,2.1-12.1,0
	c-3.7-2.2-4.6-7-5.8-11.1c-5.5-19-24.2-33.3-44-33.6C102.7,16.5,83.5,30.2,77.3,49c-1.1,3.4-1.9,7-4.5,9.5
	c-3.6,3.5-9.2,3.3-14.1,3.7c-17.8,1.5-34.3,14.2-40.2,31.1s-1.2,37.1,11.8,49.5c12.9,12.4,33.3,16.3,49.9,9.6
	c3.4-1.4,6.8-3.2,10.4-3.1c3.7,0,7.6,2.8,7.4,6.4c-0.2,3-3,5-5.7,6.5c-40.8,22.1-92.8-9.7-90.3-56.5C3.4,80,22.9,56.4,47.7,50.1
	c5.3-1.3,11.1-2.1,15-5.9c2.5-2.4,3.9-5.7,5.5-8.7c10.4-19.8,32.5-32.8,54.8-32.3s43.8,14.5,53.3,34.8c1.3,2.8,2.6,5.9,5.2,7.6
	c3,1.9,6.9,1.5,10.4,1.2c18.9-1.6,38.3,3.3,54.2,13.6c4.1,2.7,8.4,7.5,6.1,11.8C252.2,72.4,252.1,72.5,252,72.6z"/>
<text transform="matrix(1 0 0 1 39.3687 134.0924)" class="st1 st2 st3">RiseCloud</text>
<text transform="matrix(1 0 0 1 114.3125 157.692)" class="st1 st2 st4">Magento Hosting Solution</text>
</svg>
