<?xml version="1.0" encoding="utf-8"?>
<!-- Generator: Adobe Illustrator 23.1.0, SVG Export Plug-In . SVG Version: 6.00 Build 0)  -->
<svg version="1.1" id="Layer_1" xmlns="http://www.w3.org/2000/svg" xmlns:xlink="http://www.w3.org/1999/xlink" x="0px" y="0px"
	 viewBox="0 0 3000 3000" style="enable-background:new 0 0 3000 3000;" xml:space="preserve">
<style type="text/css">
	.st0{clip-path:url(#SVGID_2_);}
	.st1{fill:#E6E7E8;}
	.st2{fill:#F1F2F2;}
	.st3{fill:#FFFFFF;}
	.st4{fill:#F69D98;}
	.st5{fill:#F48E8C;}
	.st6{fill:#D1D3D4;}
	.st7{fill:#121212;}
	.st8{fill:#EF7575;}
	.st9{fill:#282626;}
	.st10{fill:#58595B;}
	.st11{fill:#6D6E71;}
	.st12{fill:#939598;}
	.st13{fill:#808285;}
	.st14{fill:#BCBEC0;}
	.st15{fill:#414042;}
</style>
<g>
	<defs>
		<rect id="SVGID_1_" width="3000" height="3000"/>
	</defs>
	<clipPath id="SVGID_2_">
		<use xlink:href="#SVGID_1_"  style="overflow:visible;"/>
	</clipPath>
	<g class="st0">
		<path class="st1" d="M902.6,1990.7H802.4v1.3H2217v-1.3h-97.2v-345.9h97.2v-20.1h-97.2h-20.1h-179.4h-20.1h-179.4h-20.1h-179.4
			h-20.1h-179.4h-20.1h-179.4h-20.1H922.7h-20.1H802.4v20.1h100.2V1990.7z M1920.2,1644.8h179.4v345.9h-179.4V1644.8z
			 M1720.7,1644.8h179.4v345.9h-179.4V1644.8z M1521.2,1644.8h179.4v345.9h-179.4V1644.8z M1321.7,1644.8h179.4v345.9h-179.4V1644.8
			z M1122.2,1644.8h179.4v345.9h-179.4V1644.8z M922.7,1644.8h179.4v345.9H922.7V1644.8z"/>
		<path class="st2" d="M2261.6,1992V855.1V457.3V335.9H757.8V485v397.6V1992H618.2v131.4h1782.9V1992H2261.6z M2217,1992H802.4
			V879.3V481.9V380.5H2217v76.9v397.9V1992z"/>
		<g>
			<path class="st1" d="M1236.2,1962.4c-2,6.3-4.3,12.7-9,17.3c-3.5,3.4-8,5.5-12.6,7.3c-36.7,14.8-78.3,17.1-116.3,6.2
				c-11.9-3.4-24.3-8.7-30.7-19.3c-3-4.9-4.4-10.6-5.8-16.2c-11.4-46.9-19.7-94.5-24.7-142.5c-0.2-2.1-0.4-4.4,0.9-6.1
				c1-1.4,2.8-2,4.5-2.5c66.1-21,137.9-23.5,205.2-7.1c29.6,7.2,14.3,49.5,10.8,71.4C1253.3,1902,1245.9,1932.6,1236.2,1962.4z"/>
			<path class="st1" d="M1331.7,1669.1c16.1-8.7,36-15.5,43.3-30.7c5.2-10.8,2.6-23.1,3.5-34.7c1.9-22.7,17.4-42.5,30.1-62.3
				c6.1-9.6,11.8-19.7,12.9-30.6c1.1-10.9-3.2-22.8-13.7-28.9c-10.6-6.3-25.1-5.1-36.8-0.5c-11.7,4.6-21.3,12.3-31.4,19.2
				c-28.8,19.6-63.4,33.9-85,59.7c-27.2,32.5-27.8,76.1-25.2,116.3c0.9,14.4,2.7,30.1,14.1,40.6
				C1275.5,1746.8,1308.2,1681.7,1331.7,1669.1z"/>
			<path class="st1" d="M1102.5,1608.3c-0.8-17.1-1.8-35.2-9.7-48.9c-12-20.9-35.1-24-51.2-39.5c-29.4-28.3-32.7-94.6-67.8-108
				c-6.4-2.4-13.1-2.6-19.7-4.3c-42.2-10.6-67.2-76.7-109.9-82.9c-5.8-0.8-12.2-0.2-16.5,4.8c-6.5,7.5-5.6,20.9-3.7,31.9
				c7.1,40.1,21.4,78,41.3,109.9c2.7,4.3,5.6,8.8,6.2,14.3c1,8.7-4,16.4-7.5,23.8c-13.3,27.7-7.7,68,12.1,88
				c22.3,22.4,55.1,18.3,78.3,39c12.4,11.1,20.7,28.1,30.1,43.5c14.4,23.6,32.1,44,51.8,59.8c21.1,16.9,67.2,36,76.3-8.1
				C1118.9,1701.9,1104,1640.1,1102.5,1608.3z"/>
			<path class="st1" d="M1175.2,1668.3c8.6-16,13.4-33.8,20.7-50.5c4.6-10.6,10.1-20.8,12.8-32c2.7-11.2,2.1-23.9-4.9-33
				c-2.7-3.6-6.3-6.5-8.8-10.2c-9.1-13.3-2.1-31.1-0.4-47.2c1.6-14.9-1.7-30.2-9.4-43.1c-4.2-7.1-9.7-13.4-13.7-20.7
				c-13.8-25.5-6.6-59.2-22.3-83.6c-2-3.1-4.7-6.2-8.3-6.8c-3.5-0.6-6.9,1.2-9.8,3.2c-21.8,14.5-35.5,40.4-35.3,66.7
				c0.1,11.1,1.9,23.8-5.9,31.7c-3.5,3.5-8.4,5.3-12.4,8.3c-10.2,7.8-12.5,22.3-11.1,35.1c1.4,12.8,5.8,25.2,5.6,38.1
				c-0.1,5.9-1.3,12.1-5.4,16.2c-2.8,2.7-6.5,4.1-9.6,6.6c-7.7,6.2-9.3,17.4-8.2,27.3c1.5,14.8,7.4,28.8,13.2,42.5
				c8.6,20.4,17.2,40.8,25.7,61.2c4.4,10.4,9.1,21.3,18.1,28.2C1129.5,1724.3,1164.7,1687.9,1175.2,1668.3z"/>
			<path class="st2" d="M1197.1,1827.5c-2.7,0.3-5.5,0.5-8.2,0.8c-36.2,3.1-76.8,6-112.6-1.8c-4.8-1-9.7-3-13.4-6.3
				c-7.1-6.3-4.2-9.2,3.9-10.3c56.8-7.9,116.6-15.1,172.5,1.8c1.7,0.5,3.5,1.1,4.5,2.6c6.3,9.1-15.7,9.2-20.6,10
				C1214.6,1825.5,1205.8,1826.6,1197.1,1827.5z"/>
			<path class="st2" d="M1199.2,1816.3c1.2,0,2.3-0.7,2.7-1.9c24.9-80.4,69.7-155.5,113.5-225.6c13.9-22.3,31.2-50,56.5-67.5
				c1.2-0.9,1.5-2.5,0.6-3.7c-0.9-1.2-2.6-1.5-3.9-0.6c-26.2,18.2-43.8,46.4-58,69.1c-44,70.4-89,145.8-114.1,226.8
				c-0.4,1.4,0.4,2.9,1.9,3.3C1198.7,1816.2,1198.9,1816.3,1199.2,1816.3z"/>
			<path class="st2" d="M1149.6,1816.4c0.1,0,0.1,0,0.2,0c1.5-0.1,2.7-1.4,2.6-2.8c-11.1-131.8-14.5-265.7-9.9-397.9
				c0-1.4-1.2-2.6-2.7-2.7c-1.6,0-2.8,1.1-2.9,2.5c-4.5,132.4-1.2,266.4,9.9,398.4C1146.9,1815.3,1148.1,1816.4,1149.6,1816.4z"/>
			<path class="st2" d="M1121.6,1816.4c0.3,0,0.7-0.1,1-0.2c1.4-0.5,2.2-2.1,1.6-3.4c-50.3-124.6-107.5-255-205.3-359.1
				c-1-1.1-2.8-1.2-3.9-0.2c-1.1,1-1.2,2.7-0.2,3.8c97.2,103.5,154.2,233.3,204.3,357.5C1119.4,1815.7,1120.5,1816.4,1121.6,1816.4z
				"/>
			<path class="st2" d="M1197.1,1979.5c10.3-40.8,19.5-82,24.4-123.8c0.6-4.8,1.1-9.7,3.4-13.9c0.9-1.6,2-3.4,3.8-4
				c1.7-0.5,3.6-0.2,5.3-0.5c2.6-0.4,5.8-1.9,7,1.2c0.9,2.4,0.8,5.1,0.5,7.6c-0.6,5-2.3,9.7-3.1,14.7c-1.9,11.6-3.8,23.2-6,34.7
				c-4.3,22.8-9.2,45.5-15.2,67.9c-1.3,4.8-2.7,9.6-5.6,13.6c-2.9,4-7.7,7-12.6,6.5c-0.6-0.1-1.1-0.2-1.6-0.5
				C1196.6,1982.3,1196.8,1980.8,1197.1,1979.5z"/>
		</g>
	</g>
	<g class="st0">
		<rect x="2433.8" y="193.5" class="st2" width="442.5" height="528"/>
		
			<rect x="2440.3" y="285.6" transform="matrix(-1.836970e-16 1 -1 -1.836970e-16 3112.5012 -2197.4807)" class="st1" width="429.3" height="343.8"/>
	</g>
	<path class="st0" d="M31.3,2681.3c30.6-0.9,61.3-1.5,91.9-2.3l91.9-1.9c61.3-1.2,122.5-2.2,183.8-3.2
		c122.5-1.9,245.1-3.3,367.6-4.4c245.1-2.2,490.1-3.2,735.2-3.2c245.1,0,490.1,1,735.2,3.2c122.5,1.1,245.1,2.5,367.6,4.4
		c61.3,1,122.5,2,183.8,3.2l91.9,1.9l46,1.1l23,0.6l23,0.6l-23,0.6l-23,0.6l-46,1.1l-91.9,1.9c-61.3,1.2-122.5,2.2-183.8,3.2
		c-122.5,1.9-245.1,3.3-367.6,4.4c-245.1,2.2-490.1,3.2-735.2,3.2c-245.1,0-490.1-1-735.2-3.2c-122.5-1.1-245.1-2.6-367.6-4.4
		c-61.3-1-122.5-2-183.8-3.2l-91.9-1.9C92.6,2682.8,62,2682.2,31.3,2681.3z"/>
	<g class="st0">
		<path d="M2158.9,1583.5l-142,45.5l-5.1,2.2c-30.5,10-53,45.3-53,45.3c-17.3,28.5-37,71.2-56.2,135.1
			c-75.8,148.7-194.3,370.4-259,435.8c0,0-392.9,109.3-551.7,140.4c-1.9,21.8-5.7,89.3,15.4,146.4c103.5-9.6,477.1-44.7,583.2-59
			c0,0,157.4-29,199.7-93.1l58.9-104.5l-5.2,172.1l-39.1,231.2c64.3,0.2,128.7,0.3,193,0.3v-592.2l72.1-505.6
			c0.4-2.6,0.1-4.6-0.7-6.2L2158.9,1583.5z"/>
		<path class="st3" d="M2345.4,1755.3C2345.4,1755.3,2345.4,1755.3,2345.4,1755.3c0-0.1,0-0.1,0-0.2c0,0,0,0,0-0.1
			c0-0.1,0-0.3-0.1-0.6c0,0,0,0,0,0c-0.6-3.8-3.7-20.4-13.3-44.2l-22.9,19.6l-60.1-4.6l-11.8-25.3c-12.2,22.9-13.9,38.2-13.9,38.2
			c-35.8-43-49.9-131.5-53.2-155c0,0.1,0,0.2,0,0.3l-72.1,505.6v592.2c40.5,0,81-0.1,121.5-0.2c35.6-0.1,71.3-0.2,106.9-0.4
			l19.1-148.8l23.7-460.1l144.3-484.8C2417.3,1696.7,2345.4,1755.3,2345.4,1755.3z"/>
		<g>
			<path class="st4" d="M1046.4,2409.7l-8,0.9l-5.1,0.8c-12.2-5.2-21.9-15.9-21.9-15.9c-2.8-2.6-5.5-5.4-7.8-8.4
				c-7.6-10-12.8-22-21.4-31.1c-6.2-6.5-13.1-12.2-20-17.8c0,0-5.3-3.3-12.7-8.8c0,0-23.1-13.6-57.7-49.7l-3.5-3.1
				c-12.6-11.7-45.3-37.5-62.1-19.3c-5.6,6-5.9,15.6-2.7,22.8c3.1,7.2,8.9,12.6,14.6,17.8c11.7,10.7,23.4,21.5,35.2,32.2
				c4,3.7,8.1,7.5,9.8,12.9c1.7,5.3-0.2,12.4-5.4,14.8c-2.1,1-4.4,1-6.6,1.1c-24.6,0.4-49-1.4-73-5.2c-4.9-0.8-10-1.1-14.9-1.6
				c-17.5-1.8-35-3.4-52.6-4.7c-19.8-1.4-38.3-1-58.1,0.8c-6.6,0.6-14.4,1.8-18.1,8.1c-6.3,10.5-2.9,23.1,9.6,25.5
				c20.4,4,41.4,2.9,62,5.1c8.9,1,17.8,1.9,26.7,2.9c11.5,1.2,23,2.5,34.5,3.7c2.8,0.7,5.5,1.7,7.7,3.5c2.2,1.7,3.7,4.5,4.2,7.3
				c-2.7,11.2-14,7.7-14,7.7c-39.9-3.8-101.4-0.1-120.8,1.3c-12.9,0.9-29.3,1.5-38.9,11.6c-3.6,3.8-7.4,10.7-6.3,16.3
				c2.6,13.8,18.8,16.4,18.8,16.4c5,1.8,10.7,0.5,15.8-0.1c5.7-0.6,11.4-1.2,17.1-1.8c36-3.4,72.3-4.4,108.4-1c0.3,0,0.5,0,0.8,0.1
				c1.3,0.3,2.7,0.6,4,0.9c3.9,1,11.4,5.3,8.9,10.7c-1.4,3.1-5.6,3.2-8.3,4.1c-3.7,1.3-7.4,2.2-11.2,3c-7.4,1.5-14.8,2.3-22.3,3.2
				c-18.5,2.2-37,5.1-55.2,9.6c-12.1,3-25.1,6-36.7,10.9c-5.8,2.4-11.8,6.4-14.8,12.3c-2.6,5.1-1.9,10.7-0.3,15.8
				c6.2,14.4,38.7,4.1,38.7,4.1c10.2-3.6,20.7-6.5,31.2-8.7c12.3-2.7,24.8-4.6,37.3-6.3c6.3-0.9,12.5-1.7,18.8-2.5
				c3.1-0.4,6.3-0.8,9.4-1.2c5.1-0.7,10.5-1.5,15.7-0.9c10.5,1.1,2.6,11.1-3.2,13.6c-26.8,11.4-54.3,20.9-82.2,28.5
				c-9.1,2.5-19.8,6.1-22.9,15.3c-3.1,9.2,4.1,18.6,12.9,21.1c8.8,2.4,18.4-0.2,27.4-2.9c42.4-12.6,85-27.2,128.4-28.5
				c16.7,5,34.4,7.2,52.1,7.5c24.9,0.4,49.8-8.2,72.7-19.6c17.4-8.7,33.5-18.6,48.5-31.3c7.5-6.4,14-9,21.5-10.1
				C1043,2469.9,1044.9,2428.5,1046.4,2409.7z"/>
			<path class="st5" d="M879.4,2332.7c3.2,3.9,6,8.4,6.6,13.4s-1.3,10.6-5.8,13.1c-2,1.1-4.3,1.5-6.6,1.8c-3.7,0.4-7.4,0.4-11,0
				c-1.1-0.1-2.2-0.2-3.1,0.4c-1.4,1-1.1,3.1-0.2,4.5c2.4,3.8,7.5,4.7,12,5.2c8.8,1,17.6,1.9,26.4,2.9c5.4,0.6,11.1,1.2,16.2-0.7
				c1.3-0.5,2.6-1.2,3.5-2.2c2.5-2.8,1.7-7.2,0.3-10.7c-3.4-8.3-9.6-15.2-16.2-21.3c-8.2-7.6-17.1-14.2-26.7-19.9
				c-1.8-1-3.6-2.1-5.6-2.4c-1.4-0.2-3.3,0.3-3.6,1.7c-0.2,1.2,0.9,2.3,2,2.9C872.1,2324.1,876.1,2328.8,879.4,2332.7z"/>
			<path class="st5" d="M1028.7,2513.4c7.5-6.4,14-9,21.5-10.1c-7.2-33.4-5.2-74.7-3.8-93.6l-8,0.9l-5.1,0.8
				c-12.2-5.2-21.9-15.9-21.9-15.9c-2.8-2.6-5.5-5.4-7.8-8.4c-7.6-10-12.8-22-21.4-31.1c-6.2-6.5-13.1-12.2-20-17.8
				c0,0-1.9-1.2-4.9-3.2c-0.6,9.4,6.9,21.3,12.1,27.2c6.3,7.1,12.7,14.3,17,22.8c6.5,12.8,8.1,28.5,18.4,38.6
				c3.4,3.4,7.7,5.9,10.8,9.6c5.9,7,6.8,16.7,7.4,25.8c0.8,11.5,1.6,23.6-3.2,34.1c-2.5,5.6-6.5,10.3-10.4,15
				c-7.5,9-15.1,18.1-25.1,24.1c-6.4,3.9-14.5,7.5-15.8,14.9c-0.2,1-0.1,2,0,3c3.9-1.7,7.8-3.5,11.6-5.4
				C997.6,2536,1013.7,2526.1,1028.7,2513.4z"/>
		</g>
		<path class="st1" d="M2326.3,2680.7l2.6-20.5c-20,13.7-38.3,20.2-55,20.7C2291.4,2680.9,2308.9,2680.8,2326.3,2680.7z"/>
		<path class="st6" d="M2219.4,2681.1c16.9,0,33.7-0.1,50.6-0.2c-163.7-4.3-172-592.3-172-592.3l-0.1,0.4v592.2
			C2138.4,2681.3,2178.9,2681.2,2219.4,2681.1z"/>
		<g>
			<path class="st4" d="M2631.2,1160.8c-4.7-14.5-16.6-26.6-30.9-31.3l0,0c-0.4-0.1-0.8-0.2-1.3-0.4c-0.6-0.2-1.2-0.3-1.8-0.5
				c-0.4-0.1-0.9-0.2-1.3-0.3c-0.7-0.1-1.3-0.3-2-0.4c-0.4-0.1-0.7-0.1-1.1-0.2c-1-0.1-2.1-0.3-3.1-0.3c-10.1-0.6-20.3,3.1-28.2,9.4
				c-4.2,3.4-7.8,7.6-10.2,12.4c-2.7-5.4-4.8-11.2-6.2-17c-3.9-15.9-4-32.5-6.8-48.7c-5.1-28.5-18.9-55.5-39.2-76.2
				c-11.4-11.6-24.8-21.4-34-34.8c-8.1-11.7-12.6-25.4-19.5-37.8c-6.9-12.4-17.3-24.2-31.2-27c-15.8,3.5-31.2,8.8-45.7,15.9
				c-13.9,6.8-26.9,15.1-40.6,22.1c-50.2,25.6-107.6,32.7-160.6,51.6c-15.3,5.4-30.6,12.1-41.9,23.8c-17.7,18.2-22.3,45-27.3,69.8
				c-3.4,17.1-7.7,43.2-21.6,55.4c-1.1,1-2.3,1.8-3.4,2.5c-1.8-3.3-4-6.4-6.7-9c-5.1-5.1-11.6-9-18.6-10.9c-0.2,0-0.3-0.1-0.5-0.1
				c-4-1.1-8.3-1.6-12.4-1.4c-1.3,0.1-2.6,0.2-3.9,0.4c-0.1,0-0.1,0-0.2,0c-1.3,0.2-2.5,0.5-3.7,0.8l0,0c-15.5,4-28.6,16.7-33.5,32
				c-2.1,6.6-2.9,13.5-2.9,20.4c0,17.3,5.1,34.4,12.7,49.9c5.5,11.2,12.4,22,22.2,29.8s22.6,12.3,34.9,10.1c1.5-0.3,2.9-0.7,4.3-1.1
				c-0.6,21.3-1.2,35.1-1.2,35.1c-3,92.1,70.9,150,70.9,150c20.9,13.7,41.8,27.5,62.8,41.2c25.6,16.8,58.7,47.5,89,52.9
				c9.1,1.6,18.6,2.4,27.8,2.1c9.2,0.2,18.7-0.5,27.8-2.1c30.3-5.4,63.4-36.1,89-52.9c20.9-13.7,41.8-27.5,62.8-41.2
				c0,0,73.8-57.9,70.9-150c0,0-0.5-13.4-1.1-34.2c0.3,0.1,0.7,0.2,1,0.2c12.3,2.2,25.1-2.3,34.9-10.1s16.7-18.6,22.2-29.8
				c7.6-15.6,12.7-32.6,12.7-49.9C2634.2,1174.3,2633.4,1167.4,2631.2,1160.8z"/>
			<path class="st5" d="M2634,1176.2c-0.3-5.2-1.2-10.4-2.8-15.4c-4.7-14.5-16.6-26.6-30.9-31.3c-0.3-0.1-0.7-0.2-1-0.3
				c-0.1,0-0.2-0.1-0.3-0.1c-0.6-0.2-1.2-0.3-1.8-0.5c-0.4-0.1-0.9-0.2-1.3-0.3c-0.7-0.1-1.3-0.3-2-0.4c-0.4-0.1-0.7-0.1-1.1-0.2
				c-1-0.1-2.1-0.3-3.1-0.3c-1.3-0.1-2.5-0.1-3.8,0c-8.8,0.4-17.5,3.9-24.4,9.5c-0.5,0.4-1,0.9-1.5,1.4c-3.5,3.2-6.6,6.9-8.7,11.1v0
				l0,0c-1.4-2.7-2.5-5.5-3.6-8.4c-1-2.9-1.9-5.8-2.6-8.7c-1-4-1.7-8-2.3-12.1c-0.6-4.2-1.1-8.5-1.6-12.8c-0.4-3.7-0.8-7.4-1.2-11.1
				c-0.5-4.3-1-8.5-1.8-12.8c-0.3-1.8-0.7-3.6-1-5.3c-0.8-3.5-1.7-7.1-2.7-10.5c-0.5-1.7-1.1-3.5-1.6-5.2
				c-1.7-5.1-3.8-10.2-6.1-15.1c-1.5-3.3-3.2-6.5-5-9.7c-6.2-11.1-13.8-21.3-22.7-30.4c-2.1-2.1-4.2-4.2-6.4-6.2c0,0,0,0,0,0
				c7.1,10.3,25.7,42.4,30,98.7c7,43.2,10.3,87.4,13.4,131c1.1,15.8,2.4,31.5,2.5,47c0.1,18.3-1.6,36.5-7.4,54.6
				c-9.4,29.5-29.3,67-56,85.2c-18.8,12.8-37.6,25.6-56.4,38.4c-23,15.7-52.8,44.2-80,49.3c-8.2,1.5-16.7,2.2-25,2
				c-8.3,0.2-16.8-0.5-25-2c-27.2-5.1-57-33.7-80-49.3c-18.8-12.8-37.6-25.6-56.4-38.4c-0.9-0.7-1.7-1.4-2.5-2.2
				c-31.8-28.5-54.5-69.6-59.9-111.9c-4.8-37.5,2.4-75.4,8.8-112.2c6.5-37.7,13.9-75.2,21.1-112.8c4.4-23.2,8.6-48.1,24.5-65.1
				c6.5-7,14.6-12.1,23.2-16.2c0,0-0.1,0-0.1,0c0,0-0.1,0-0.1,0c-3.8,1.4-7.6,2.8-11.4,4.4c-5.6,2.4-11.2,5-16.3,8.2
				c-5.2,3.2-10,6.8-14.2,11.2c-4.4,4.6-8,9.6-11,15.1c-3.7,6.8-6.5,14.2-8.8,21.9c-3.2,10.7-5.3,22-7.4,32.9
				c-1.1,5.3-2.2,11.6-3.7,18c-0.3,1.3-0.6,2.6-0.9,3.9c-1.1,4.4-2.4,8.7-4,12.9c-0.8,2-1.6,4-2.4,5.8c-0.5,1.2-1.1,2.3-1.7,3.4
				c-0.9,1.6-1.8,3-2.8,4.4c-1.1,1.6-2.3,3.1-3.5,4.5c-0.8,0.9-1.6,1.7-2.5,2.4c-0.7,0.6-1.4,1.1-2.1,1.6c-0.4,0.3-0.8,0.6-1.3,0.8
				c-0.4-0.8-1-1.6-1.5-2.4c-1.5-2.4-3.2-4.6-5.2-6.7c-2.5-2.6-5.4-4.8-8.6-6.6c-1.6-0.9-3.2-1.7-4.9-2.5c-1.7-0.7-3.4-1.3-5.1-1.8
				c0,0-0.1,0-0.1,0c-0.1,0-0.2,0-0.3-0.1c-4-1.1-8.3-1.6-12.4-1.4c-1.3,0.1-2.6,0.2-3.9,0.4c0,0,0,0-0.1,0c0,0-0.1,0-0.1,0
				c-1.3,0.2-2.5,0.5-3.7,0.8c-6.6,1.7-12.7,5-18,9.4c-0.9,0.8-1.8,1.6-2.7,2.4c-3.4,3.3-6.4,7-8.7,11.1c-0.7,1.2-1.3,2.3-1.9,3.5
				c-0.9,1.8-1.6,3.7-2.2,5.6c-0.3,1-0.6,2.1-0.8,3.1c-1,4-1.7,8.1-1.9,12.3c-0.1,1.7-0.2,3.3-0.2,5c0,12.4,2.6,24.7,6.9,36.4
				c0.9,2.6,1.9,5.1,3,7.6c0.9,2,1.8,4,2.7,5.9c1.4,2.8,2.8,5.6,4.4,8.3c0.8,1.4,1.6,2.7,2.4,4c4.2,6.6,9.2,12.6,15.3,17.5
				c3.7,2.9,7.7,5.4,12.1,7.2c1.8,0.8,3.7,1.4,5.5,1.9c5.6,1.6,11.5,2.1,17.2,1c1.1-0.2,2.1-0.5,3.2-0.8c0.4-0.1,0.8-0.2,1.1-0.3
				l0,0l0,0c-0.1,2.7-0.2,5.2-0.2,7.6c-0.2,6-0.4,11.3-0.5,15.5c-0.1,2.5-0.2,4.7-0.2,6.5c-0.1,3.5-0.2,5.5-0.2,5.5
				c-0.5,14.4,1,28,3.7,40.6c1.1,5.1,2.4,10,3.8,14.7c2.9,9.5,6.5,18.4,10.5,26.6c2,4.1,4.1,8.1,6.3,11.8c5.4,9.4,11.2,17.8,16.8,25
				c1.1,1.4,2.2,2.8,3.3,4.2c14.3,17.5,26.5,27.1,26.5,27.1c20.9,13.7,41.8,27.5,62.8,41.2c0.2,0.1,0.4,0.3,0.6,0.4
				c1.4,0.9,2.8,1.9,4.3,2.9c0.9,0.6,1.8,1.3,2.7,1.9c0.8,0.5,1.5,1.1,2.3,1.6c1.4,1,2.7,2,4.1,3c0.4,0.3,0.7,0.5,1.1,0.8
				c5.3,3.9,10.8,8.1,16.5,12.2c0,0,0,0,0,0c1.9,1.3,3.7,2.7,5.6,4c0.3,0.2,0.6,0.4,0.9,0.6c1.6,1.1,3.2,2.2,4.8,3.3
				c15.2,10.4,31,19.4,46.1,22.1c9.1,1.6,18.6,2.4,27.8,2.1c9.2,0.2,18.7-0.5,27.8-2.1c14.9-2.7,30.4-11.4,45.4-21.6
				c1.5-1,2.9-2,4.4-3c0.5-0.3,0.9-0.6,1.4-1c1.6-1.2,3.3-2.3,4.9-3.5c0.3-0.2,0.5-0.4,0.8-0.5c5.8-4.2,11.5-8.5,17-12.5
				c0.4-0.3,0.9-0.6,1.3-1c1.3-0.9,2.6-1.9,3.9-2.8c0.9-0.6,1.7-1.2,2.6-1.9c0.8-0.6,1.7-1.2,2.5-1.8c1.5-1.1,3-2.1,4.5-3
				c0.1-0.1,0.3-0.2,0.5-0.3c20.9-13.7,41.8-27.5,62.8-41.2c0,0,73.8-57.9,70.9-150c0,0-0.1-1.3-0.1-3.7c0-0.5,0-1-0.1-1.6
				c0-1.1-0.1-2.4-0.1-3.9c-0.2-6-0.5-14.5-0.8-25l0,0v0c0.3,0.1,0.7,0.2,1,0.2c5.8,1.1,11.8,0.6,17.5-1.1c1.8-0.5,3.6-1.1,5.3-1.8
				c4.3-1.8,8.4-4.3,12.1-7.2c1.2-1,2.4-2,3.5-3.1c6.4-6,11.5-13.3,15.7-21.1c0.5-1,1-1.9,1.5-2.9c0.5-0.9,1-1.8,1.4-2.8
				c3.8-7.8,7-15.9,9.2-24.3c2.2-8.4,3.5-17,3.5-25.6C2634.2,1179.5,2634.1,1177.8,2634,1176.2z"/>
			<path class="st7" d="M2626.7,973.9c-2.8-7.1-6.4-13.8-10.6-20.2l0,0c-22-35.4-31.5-99.6-31.5-99.6
				c-43-180.7-272.2-189.3-272.2-189.3l0,0c-38.3-3.4-77.3-2.4-115.6,0.8c-81.7,6.8-162.7,22.9-244.7,25
				c-10.1,0.3-23.6,3.4-23.8,13.5c0,3.2,1.4,6.2,3,9c9.2,16.7,21.8,31.5,36.7,43.3c12.3,9.7,27.7,20.2,27.4,35.8
				c-0.2,10.8-8.4,20-17.8,25.3c-9.4,5.3-20.2,7.6-30.3,11.4c-4.2,1.6-8.6,3.6-11,7.5c-5.6,9.3,4.1,20.1,13.1,26.1
				c19.9,13.3,42.9,25.7,51.6,48c6.5,16.9,3.1,35.8,1.6,53.9c-1.2,13.8-1.2,27.6,0,41.4c-0.7,13.4,0.1,26.9,2.1,40.1
				c3.8,25.1,12.3,48.6,19.7,72.7c1,3.3,1.9,6.7,2.8,10.1c2.6-0.7,5.2-1.1,7.9-1.3c11.6-0.7,23.3,4.2,31.5,12.4
				c2.7,2.7,4.9,5.7,6.7,9c1.1-0.7,2.2-1.5,3.4-2.5c13.9-12.2,18.2-38.3,21.6-55.4c4.9-24.9,9.6-51.6,27.3-69.8
				c11.3-11.6,26.6-18.3,41.9-23.8c53.1-18.9,110.4-26.1,160.6-51.6c13.7-7,26.8-15.3,40.6-22.1c14.5-7.1,29.9-12.4,45.7-15.9
				c13.9,2.8,24.3,14.6,31.2,27c6.9,12.4,11.4,26.2,19.5,37.8c9.3,13.3,22.7,23.2,34,34.8c20.3,20.7,34.1,47.6,39.2,76.2
				c2.9,16.1,3,32.7,6.8,48.7c1.4,5.8,3.4,11.6,6.2,17c2.5-4.8,6-9,10.2-12.4c7.8-6.4,18-10,28.2-9.4c3.6,0.2,7.2,0.9,10.6,2
				c7.4-22.1,16.9-43.6,23.9-65.9C2633.4,1034.5,2637.8,1002.3,2626.7,973.9z"/>
			<ellipse cx="2201.5" cy="1158.8" rx="16.1" ry="26.3"/>
			<path d="M2139,1106.9c-1.6,0-3.8-0.4-4.1-2c-0.1-0.7,0.2-1.4,0.5-2c4.7-9.6,16.6-12.9,27.3-14.4c12-1.7,24.1-2.4,36.2-2.2
				c9.4,0.2,19.7,1.4,26,8.3c3.7,4,5.4,9.4,6.6,14.7c0.3,1.5,0.6,3.1,0.1,4.5c-0.8,2.2-3.2,3.5-5.5,3.6c-5.1,0.3-11.3-3.2-16.4-4.1
				c-7.8-1.3-15.6-2.4-23.4-3.3C2170.5,1108.2,2154.8,1107.1,2139,1106.9z"/>
			<ellipse cx="2429.7" cy="1158.8" rx="16.1" ry="26.3"/>
			<path d="M2488.4,1088.1c1.6-0.1,3.7-0.6,4-2.2c0.1-0.7-0.2-1.3-0.5-1.9c-5.2-9.4-17.2-12.1-27.9-13.1
				c-12.1-1.1-24.2-1.3-36.3-0.5c-9.3,0.6-19.6,2.3-25.6,9.5c-3.5,4.2-5,9.6-5.9,15c-0.2,1.5-0.4,3.1,0.1,4.5
				c0.9,2.2,3.4,3.3,5.7,3.4c5.1,0.1,11.1-3.7,16.2-4.8c7.7-1.7,15.5-3.1,23.2-4.4C2457,1090.9,2472.7,1089.1,2488.4,1088.1z"/>
			<path class="st3" d="M2566.9,1392.9c-0.2,0-0.4-0.1-0.5-0.3c-0.1-0.3,0-0.5,0.3-0.6l12.8-5.1c0.3-0.1,0.5,0,0.6,0.3
				c0.1,0.3,0,0.5-0.3,0.6l-12.8,5.1C2567.1,1392.9,2567,1392.9,2566.9,1392.9z"/>
			<path class="st3" d="M2393.4,1358.2c1-0.6,2.1-1.3,3.3-1.4c2.7-0.2,4.8,2.5,4.9,5.2c0.1,2.7-1.3,5.1-2.8,7.4
				c-14.2,21.6-38,36.1-63.5,40.6c-25.4,4.5-52.2-0.7-75-12.8c-15.1-8-7.3-17.5,6.6-15.4c14.6,2.2,28.9,3.7,43.7,2.8
				C2339.8,1382.7,2368.6,1373.8,2393.4,1358.2z"/>
			<path class="st8" d="M2044.9,1240.4c-0.8,0-1.6-0.1-2.4-0.2c-6.9-1-13.2-5.6-19-14.2c-7.6-11.1-12.5-24-14.3-37.3
				c-1.7-12.5,0-23,4.9-31.1c5-8.1,13.9-13.3,22.7-13.3c2.3,0,4.6,0.4,6.7,1.1c1.8,0.6,2.8,2.6,2.2,4.4c-0.5,1.4-1.8,2.4-3.3,2.4
				c-0.4,0-0.8-0.1-1.1-0.2c-1.4-0.5-2.9-0.7-4.5-0.7c-6.3,0-13.2,4.1-16.8,10.1c-4.1,6.7-5.4,15.6-4,26.5
				c1.7,12.3,6.2,24.2,13.2,34.4c4.7,6.9,9.4,10.6,14.3,11.2c0.5,0.1,0.9,0.1,1.4,0.1c5.2,0,10.3-3.8,11.7-8.7
				c1.5-5.4-1.6-11.9-6.8-14.1c-1.3-0.6-2.7-0.8-4.3-0.8c-4.3,0-8.6,2.3-10.6,5.8c-0.6,1.1-1.8,1.7-3,1.7c-0.6,0-1.2-0.2-1.7-0.5
				c-0.8-0.5-1.4-1.2-1.6-2.1s-0.1-1.8,0.4-2.6c3.3-5.6,9.8-9.2,16.5-9.2c2.4,0,4.8,0.5,7,1.4c8.4,3.5,13.2,13.5,10.8,22.3
				C2061,1234.5,2053.1,1240.4,2044.9,1240.4z"/>
			<path class="st8" d="M2581,1240.4c-8.3,0-16.1-5.9-18.3-13.8c-2.4-8.8,2.4-18.8,10.8-22.3c2.2-0.9,4.5-1.4,7-1.4
				c6.8,0,13.3,3.6,16.5,9.2c0.5,0.8,0.6,1.7,0.4,2.6c-0.2,0.9-0.8,1.6-1.6,2.1c-0.5,0.3-1.1,0.5-1.7,0.5c-1.2,0-2.4-0.7-3-1.7
				c-2-3.5-6.3-5.8-10.6-5.8c-1.5,0-2.9,0.3-4.3,0.8c-5.2,2.2-8.3,8.6-6.8,14.1c1.3,4.9,6.5,8.7,11.7,8.7c0.5,0,1,0,1.4-0.1
				c4.9-0.7,9.6-4.4,14.3-11.2c7-10.2,11.5-22.1,13.2-34.4c1.5-10.9,0.1-19.8-4-26.5c-3.6-5.9-10.6-10.1-16.8-10.1
				c-1.5,0-3,0.2-4.4,0.7c-0.4,0.1-0.7,0.2-1.1,0.2c-1.5,0-2.8-0.9-3.3-2.3c-0.6-1.8,0.4-3.8,2.2-4.4c2.1-0.7,4.3-1.1,6.7-1.1
				c8.8,0,17.7,5.2,22.7,13.3c5,8.1,6.6,18.5,4.9,31.1c-1.8,13.3-6.8,26.2-14.3,37.3c-5.8,8.6-12.1,13.2-19,14.2
				C2582.6,1240.4,2581.8,1240.4,2581,1240.4z"/>
		</g>
		<path d="M2725.2,2678.2l-18.4-127.6c24.5,15.2,62.6,18.5,62.6,18.5c17.6,0,33-2.7,46.6-7.4c145.1-39.3,113-210,113-210
			c-13.6-96-35.5-293.9-44.4-375.4l-10.4-135.3c-2.5-42.2-18.3-72.6-31.4-90.9c-5.8-7.1-12-14-18.3-20.8c0,0,0,0,0,0l0,0
			c-20.9-22.4-43.5-43.4-62.4-64.9c-22.5-25.7-62.2-29.3-93.7-37.9c-36.6-9.9-76.3-18.1-110.6-34.7c0,0-34.2-14.9-44.2-4.8
			l-144.3,484.8l-23.7,460.1l-19.1,148.8C2459.3,2680.2,2592.2,2679.2,2725.2,2678.2z"/>
		<path class="st9" d="M2345.4,2531.9l23.7-460.1l144.3-484.8c7-7,25.6-2,36.3,1.8l0,0c13.2,3.8,28.8,6.9,28.8,6.9
			c9.3,1.8,10.8,8,10.8,8l6.8,184.4l-80.2,80.8l15.4,188.5L2345.4,2531.9z"/>
		<path d="M2319.1,2550.8c-22.1-253.9-10.1-821-10.1-821l-60.1-4.6c-25,214.7-112.5,806.7-112.5,806.7l74.2,92.8L2319.1,2550.8z"/>
		<g>
			<path class="st4" d="M2695.5,2345.4c-10.6,0.2-21.1,0.4-31.7,0.6c-15.6,0.3-32.1,0.8-45.5,8.3c-13.4,7.5-22.1,24.5-14.4,37.2
				c3.2,5.3,9.2,10.1,8.1,16.2c-0.5,2.7-2.4,5-4,7.3c-8.7,11.9-12.7,29.2-2.8,40.3c4.6,5.3,12.4,9.7,11.8,16.5
				c-0.3,3.7-3.1,6.7-5.3,9.8c-8.5,12.6-5.3,30.9,7,40.3c1.9,1.4,4,2.7,5.1,4.7c2.8,4.7-0.9,10.3-2.6,15.4
				c-4.5,13.6,6.4,28.2,20.3,34c13.9,5.8,29.7,4.9,44.9,4c27.4-1.7,54.7-3.4,82.1-5.2c8-0.5,16.2-1,23.7-3.8
				c17.6-6.4,28.2-24.3,29.7-41.9c0.7-8.4-0.2-17,2.3-25.1c2-6.4,6.1-12.1,8-18.6c4.4-14.4-2.4-29.8-0.3-44.6
				c1.2-8.4,5.3-16.7,3.7-25.1c-1.4-7.4-7-13.4-10.7-20.1c-5-9.1-6.4-19.6-11.4-28.6c-9.9-17.6-24.2-19.3-42.8-20
				C2745.6,2346.2,2720.8,2344.9,2695.5,2345.4z"/>
			<path class="st5" d="M2734.8,2345.8c12,0.4,23.9,0.9,36,1.3c4.7,0.2,9.1,0.4,13.3,0.9c0.9-3.8,0.4-7.9-0.1-11.8
				c-2.1-16.9-1.5-34.1,2-50.7c2.1-10.4,5.4-21,3-31.4c-3.4-15.1-19.1-25.2-33.8-23.4c-14.7,1.8-27.1,14.3-31.4,29.1
				c-2.7,9.4-2.5,19.5-1.6,29.3C2723.6,2305.2,2725.6,2331.1,2734.8,2345.8z"/>
			<path class="st5" d="M2612.2,2405.5c0,0,60.7-8.7,112,0C2724.1,2405.5,2674.8,2416,2612.2,2405.5z"/>
			<path class="st5" d="M2617,2470.7c0,0,58.1-8.7,107.1,0C2724.1,2470.7,2676.9,2481.1,2617,2470.7z"/>
			<path class="st5" d="M2624.7,2531.5c0,0,53.9-8.7,99.4,0C2724.1,2531.5,2680.3,2542,2624.7,2531.5z"/>
		</g>
		<path class="st5" d="M2406,1499.3c-20.7,15.4-44,32.8-65.8,36.7c-8.8,1.6-18,2.3-27,2.1c-9,0.2-18.2-0.5-27-2.1
			c-13.9-2.5-28.4-10.5-42.4-19.9l-0.2,0c-2.7,21.2-11.2,32.3-17.8,37.8c11.5,30,63.9,81.4,63.9,81.4l150.1-80.8
			c1.1-1,2.1-1.8,3-2.6l-23.9-15.4C2409.7,1531.5,2406.8,1511.3,2406,1499.3z"/>
		<path class="st3" d="M1091.3,2395.9l-44,3.5c0,0-10.2,89.1,12.2,131.1l45.1-4.5C1088.6,2476.8,1089.6,2422,1091.3,2395.9z"/>
		<path d="M2289.6,1635.4c20.8,28.1,34,54.2,42.3,74.8l-22.9,19.6l-60.1-4.6l-13-27.7C2246,1681.3,2262.6,1659.3,2289.6,1635.4z"/>
		<g>
			<path class="st6" d="M2458.3,1548.2c0,0-4.5-6.4-18.6,6.4l-150.1,80.8c48.4,65.4,55.8,119.9,55.8,119.9s71.9-58.7,168-168.3
				C2513.4,1587,2471.4,1571.6,2458.3,1548.2z"/>
			<path class="st6" d="M2287,1637.7c0.9-0.8,1.7-1.5,2.6-2.3c0,0-55.5-54.5-64.8-84c0,0-4.2-7.7-14.1,0c0,0-29,23.3-41.4,25.9
				c0,0,12.4,111,53.9,160.8c0,0,5.1-47,63-99.7C2286.5,1638.2,2286.7,1638,2287,1637.7z"/>
		</g>
		<path class="st9" d="M2186.1,1569.1c-2.6,0.2-5.4,0.4-8.2,0.5c-13.1,0.9-22.9,4.9-22.9,4.9l-18.9,9.7c-1.5,1-3,3-4.1,4.9
			l-74.4,134.5l29.8,137.5l-75.5,181.3l86.1,508.3v-461.7l71.9-504.3l0,0v0l0.1-0.7c0.3-1.9,1.4-7.1,4.5-8.6l0,0
			C2177.9,1574,2182,1571.7,2186.1,1569.1z"/>
	</g>
	<g class="st0">
		<path class="st3" d="M1625.5,1975.3l-0.5,2.7l-18,731.3h-1092l-18-731.8l-0.4-2.1c-0.4-3.2-0.2-7.5,0.3-10
			c0.6-0.1,1.5-0.2,2.6-0.2l0.5,0l363.6-6.1c59.3-1,121.9-1.5,186-1.5c80.3,0,164.9,0.8,258.5,2.3l314.2,5.2h0.2
			c1.2,0,2,0.1,2.6,0.2C1625.8,1968.4,1625.8,1973.6,1625.5,1975.3z"/>
		<path d="M1622.5,1921c-104.6-1.7-209.3-3.5-313.9-5.2c-148.6-2.5-296.8-3.3-445.4-0.8c-109.3,1.8-218.5,3.6-327.8,5.5
			c-11.9,0.2-23.9,0.4-35.8,0.6c-43.8,0-35,52.4-35,52.4l18.8,763.5h1155.5l18.8-763.5C1657.6,1973.4,1666.3,1921,1622.5,1921z
			 M1625.5,1975.3l-0.5,2.7l-18,731.3h-1092l-18-731.8l-0.4-2.1c-0.4-3.2-0.2-7.5,0.3-10c0.6-0.1,1.5-0.2,2.6-0.2l0.5,0l363.6-6.1
			c59.3-1,121.9-1.5,186-1.5c80.3,0,164.9,0.8,258.5,2.3l314.2,5.2h0.2c1.2,0,2,0.1,2.6,0.2
			C1625.8,1968.4,1625.8,1973.6,1625.5,1975.3z"/>
		<path class="st1" d="M1849.1,2832.6l-210.3-103.2H483.3L273,2832.6c0,0-1.3,0.5-2.5,1.4c2.4-1,9.8-1.4,9.8-1.4h780.2h1.1h780.2
			c0,0,7.4,0.4,9.8,1.4C1850.4,2833.1,1849.1,2832.6,1849.1,2832.6z"/>
		<path class="st10" d="M1841.8,2832.6h-780.2h-1.1H280.3c0,0-10.5,1.2-10.5,4.5v4.5c0,0,1.6,3.7,17.4,3.7h773.4h1.1H1835
			c15.8,0,17.4-3.7,17.4-3.7v-4.5C1852.4,2833.8,1841.8,2832.6,1841.8,2832.6z"/>
		<path d="M1835,2845.3h-773.4h-1.1H287.1c-15.8,0-17.4-3.7-17.4-3.7c1.6,4.3,5.4,6.6,8.9,8c3.3,1.3,6.9,2.1,10.4,2.2
			c0.8,0,1.6,0,2.3,0c1.2,0,2.4,0,3.6,0c1.6,0,3.2,0,4.8,0c2,0,4,0,6,0c2.4,0,4.7,0,7.1,0c2.7,0,5.5,0,8.2,0c3.1,0,6.1,0,9.2,0
			c3.4,0,6.8,0,10.2,0c3.7,0,7.4,0,11.1,0c4,0,8,0,12,0c4.3,0,8.6,0,12.8,0c4.5,0,9.1,0,13.6,0c4.8,0,9.6,0,14.4,0c5,0,10,0,15.1,0
			c5.2,0,10.5,0,15.7,0c5.4,0,10.9,0,16.3,0c5.6,0,11.3,0,16.9,0c5.8,0,11.6,0,17.4,0c6,0,11.9,0,17.9,0c6.1,0,12.2,0,18.3,0
			c6.2,0,12.4,0,18.6,0c6.3,0,12.6,0,19,0c6.4,0,12.8,0,19.2,0c6.5,0,13,0,19.5,0c6.5,0,13.1,0,19.6,0c6.6,0,13.2,0,19.8,0
			c6.6,0,13.2,0,19.9,0c6.6,0,13.3,0,19.9,0c6.6,0,13.3,0,19.9,0c6.6,0,13.2,0,19.9,0c6.6,0,13.2,0,19.8,0c6.5,0,13.1,0,19.6,0
			c6.5,0,12.9,0,19.4,0c6.4,0,12.8,0,19.2,0c6.3,0,12.6,0,18.9,0c6.2,0,12.4,0,18.5,0c6.1,0,12.1,0,18.2,0c5.9,0,11.8,0,17.7,0
			c5.8,0,11.5,0,17.3,0c5.6,0,11.2,0,16.7,0c5.4,0,10.8,0,16.2,0c5.2,0,10.4,0,15.6,0c5,0,9.9,0,14.9,0c4.7,0,9.5,0,14.2,0
			c4.5,0,8.9,0,13.4,0c4.2,0,8.4,0,12.6,0c3.9,0,7.8,0,11.8,0c3.6,0,7.2,0,10.9,0c3.3,0,6.6,0,9.9,0c3,0,6,0,8.9,0
			c2.6,0,5.3,0,7.9,0c2.3,0,4.5,0,6.8,0c1.9,0,3.8,0,5.7,0c1.5,0,3,0,4.5,0c1.1,0,2.2,0,3.3,0c0.5,0,1.1,0,1.6,0c0.1,0,0.3,0,0.4,0
			c0.1,0,0.2,0,0.3,0c0.1,0,0.3,0,0.4,0c0.5,0,1.1,0,1.6,0c1.1,0,2.2,0,3.3,0c1.5,0,3,0,4.5,0c1.9,0,3.8,0,5.7,0c2.3,0,4.5,0,6.8,0
			c2.6,0,5.3,0,7.9,0c3,0,6,0,8.9,0c3.3,0,6.6,0,9.9,0c3.6,0,7.2,0,10.9,0c3.9,0,7.8,0,11.8,0c4.2,0,8.4,0,12.6,0
			c4.5,0,8.9,0,13.4,0c4.7,0,9.5,0,14.2,0c5,0,9.9,0,14.9,0c5.2,0,10.4,0,15.6,0c5.4,0,10.8,0,16.2,0c5.6,0,11.2,0,16.7,0
			c5.8,0,11.5,0,17.3,0c5.9,0,11.8,0,17.7,0c6.1,0,12.1,0,18.2,0c6.2,0,12.4,0,18.5,0c6.3,0,12.6,0,18.9,0c6.4,0,12.8,0,19.2,0
			c6.5,0,12.9,0,19.4,0c6.5,0,13.1,0,19.6,0c6.6,0,13.2,0,19.8,0c6.6,0,13.2,0,19.9,0c6.6,0,13.3,0,19.9,0c6.6,0,13.3,0,19.9,0
			c6.6,0,13.2,0,19.9,0c6.6,0,13.2,0,19.8,0c6.5,0,13.1,0,19.6,0c6.5,0,13,0,19.5,0c6.4,0,12.8,0,19.2,0c6.3,0,12.6,0,19,0
			c6.2,0,12.4,0,18.6,0c6.1,0,12.2,0,18.3,0c6,0,11.9,0,17.9,0c5.8,0,11.6,0,17.4,0c5.6,0,11.3,0,16.9,0c5.4,0,10.9,0,16.3,0
			c5.2,0,10.5,0,15.7,0c5,0,10,0,15.1,0c4.8,0,9.6,0,14.4,0c4.5,0,9.1,0,13.6,0c4.3,0,8.6,0,12.8,0c4,0,8,0,12,0c3.7,0,7.4,0,11.1,0
			c3.4,0,6.8,0,10.2,0c3.1,0,6.1,0,9.2,0c2.7,0,5.5,0,8.2,0c2.4,0,4.7,0,7.1,0c2,0,4,0,6,0c1.6,0,3.2,0,4.8,0c1.2,0,2.4,0,3.6,0
			c0.8,0,1.6,0,2.3,0c3.5,0,7.1-0.8,10.4-2.2c3.5-1.4,7.3-3.7,8.9-8C1852.4,2841.6,1850.8,2845.3,1835,2845.3z"/>
		<path class="st11" d="M1448.5,2737.1h50.3c2,0,3.6-1.6,3.6-3.6v-8.2c0-2-1.6-3.6-3.6-3.6h-50.3c-2,0-3.6,1.6-3.6,3.6v8.2
			C1444.8,2735.5,1446.5,2737.1,1448.5,2737.1z"/>
		<g>
			<g>
				<g>
					<polygon class="st12" points="1558.7,2779.5 1549.6,2773.9 1486.4,2773.9 1494.1,2779.5 					"/>
					<polygon class="st12" points="1344.4,2779.5 1339.3,2773.9 1274.9,2773.9 1278.8,2779.5 					"/>
					<polygon class="st12" points="1487.3,2779.5 1479.5,2773.9 1415.8,2773.9 1422.3,2779.5 					"/>
					<polygon class="st12" points="1415.9,2779.5 1409.4,2773.9 1345.4,2773.9 1350.5,2779.5 					"/>
					<polygon class="st12" points="1399.4,2765.1 1337.4,2765.1 1342.6,2770.8 1405.9,2770.8 					"/>
					<polygon class="st12" points="1331.3,2765.1 1268.9,2765.1 1272.8,2770.8 1336.5,2770.8 					"/>
					<polygon class="st12" points="1273,2779.5 1269.1,2773.9 1204.5,2773.9 1207.1,2779.5 					"/>
					<polygon class="st12" points="1197.5,2770.8 1194.9,2765.1 1132.1,2765.1 1133.4,2770.8 					"/>
					<polygon class="st12" points="1199.1,2762.1 1261,2762.1 1257.1,2756.4 1196.5,2756.4 					"/>
					<polygon class="st12" points="1257,2747.7 1260.9,2753.4 1320.5,2753.4 1315.4,2747.7 					"/>
					<polygon class="st12" points="1267,2770.8 1263.1,2765.1 1200.5,2765.1 1203.1,2770.8 					"/>
					<polygon class="st12" points="1201.5,2779.5 1198.9,2773.9 1134.1,2773.9 1135.4,2779.5 					"/>
					<polygon class="st12" points="1192.5,2747.7 1195.1,2753.4 1255,2753.4 1251.2,2747.7 					"/>
					<path class="st12" d="M1252.2,2740.7l2.7,4h57.7l-3-3.3c-0.2-0.2-0.3-0.5-0.3-0.7H1252.2z"/>
					<path class="st12" d="M1191.1,2744.6h57.9l-2.3-3.4c-0.1-0.2-0.2-0.4-0.2-0.5h-57.2L1191.1,2744.6z"/>
					<path class="st12" d="M1063.8,2744.6h58.2l-0.9-3.8c0-0.1,0-0.1,0-0.2h-57.3V2744.6z"/>
					<path class="st12" d="M1126.5,2740.7l0.9,4h58.1l-1.6-3.6c-0.1-0.1-0.1-0.3-0.1-0.4H1126.5z"/>
					<polygon class="st12" points="1630,2779.5 1619.7,2773.9 1556.9,2773.9 1566,2779.5 					"/>
					<polygon class="st12" points="861.1,2762.1 923,2762.1 925.6,2756.4 865,2756.4 					"/>
					<polygon class="st12" points="929.6,2747.7 871,2747.7 867.1,2753.4 927,2753.4 					"/>
					<polygon class="st12" points="1515.1,2747.7 1524.1,2753.4 1582.2,2753.4 1571.9,2747.7 					"/>
					<polygon class="st12" points="1590,2753.4 1652.4,2753.4 1640.8,2747.7 1579.6,2747.7 					"/>
					<polygon class="st12" points="1676.4,2765.1 1611.5,2765.1 1621.9,2770.8 1687.9,2770.8 					"/>
					<path class="st12" d="M1446.3,2744.6h56.6l-4.7-2.9c-0.5-0.3-0.7-0.7-0.7-1h-56.6L1446.3,2744.6z"/>
					<path class="st12" d="M1378,2740.7l4.5,4h57l-4.2-3c-0.4-0.3-0.6-0.6-0.6-0.9H1378z"/>
					<path class="st12" d="M1318.7,2744.6h57.4l-3.6-3.1c-0.3-0.3-0.4-0.5-0.4-0.8h-57L1318.7,2744.6z"/>
					<path class="st12" d="M768.8,2782.6h-66l-8.2,7.2h68c0-0.2,0.1-0.5,0.3-0.7L768.8,2782.6z"/>
					<path class="st12" d="M1503.9,2740.7l6.3,4h56.1l-5.2-2.9c-0.5-0.3-0.8-0.7-0.8-1.1H1503.9z"/>
					<polygon class="st12" points="1063.8,2762.1 1125.9,2762.1 1124.6,2756.4 1063.8,2756.4 					"/>
					<path class="st12" d="M551.3,2782.6h-64.8l-13.1,7.2h67.3c0-0.4,0.2-0.7,0.7-1L551.3,2782.6z"/>
					<path class="st12" d="M618.3,2740.7h-56.4c0,0.4-0.3,0.8-0.8,1.1l-5.2,2.9h56.1L618.3,2740.7z"/>
					<polygon class="st12" points="1063.8,2747.7 1063.8,2753.4 1124,2753.4 1122.7,2747.7 					"/>
					<polygon class="st12" points="1063.8,2770.8 1127.9,2770.8 1126.6,2765.1 1063.8,2765.1 					"/>
					<polygon class="st12" points="801.6,2753.4 861.2,2753.4 865.1,2747.7 806.8,2747.7 					"/>
					<path class="st12" d="M623.8,2782.6h-65.2l-11.5,7.2h67.6c0-0.3,0.2-0.7,0.6-0.9L623.8,2782.6z"/>
					<path class="st12" d="M913.6,2782.6h-66.6l-4.9,7.2h68.3c0-0.1,0-0.3,0.1-0.4L913.6,2782.6z"/>
					<polygon class="st12" points="1266.8,2762.1 1328.5,2762.1 1323.3,2756.4 1263,2756.4 					"/>
					<polygon class="st12" points="1063.8,2779.5 1129.9,2779.5 1128.6,2773.9 1063.8,2773.9 					"/>
					<path class="st12" d="M696.3,2782.6h-65.7l-9.9,7.2h67.8c0-0.3,0.1-0.6,0.4-0.8L696.3,2782.6z"/>
					<path class="st12" d="M841.2,2782.6h-66.3l-6.6,7.2h68.2c0-0.2,0.1-0.4,0.2-0.5L841.2,2782.6z"/>
					<polygon class="st12" points="1462.5,2756.4 1470.2,2762.1 1530.8,2762.1 1521.7,2756.4 					"/>
					<polygon class="st12" points="1450.5,2747.7 1458.3,2753.4 1516.8,2753.4 1507.8,2747.7 					"/>
					<polygon class="st12" points="1529,2756.4 1538.1,2762.1 1598.2,2762.1 1587.8,2756.4 					"/>
					<polygon class="st12" points="1386,2747.7 1392.5,2753.4 1451.4,2753.4 1443.7,2747.7 					"/>
					<polygon class="st12" points="1658.6,2756.4 1595.6,2756.4 1605.9,2762.1 1670.2,2762.1 					"/>
					<polygon class="st12" points="1321.5,2747.7 1326.6,2753.4 1386,2753.4 1379.5,2747.7 					"/>
					<polygon class="st12" points="1186.9,2747.7 1128.1,2747.7 1129.4,2753.4 1189.5,2753.4 					"/>
					<polygon class="st12" points="1463.4,2762.1 1455.6,2756.4 1395.9,2756.4 1402.4,2762.1 					"/>
					<polygon class="st12" points="1329.4,2756.4 1334.6,2762.1 1396,2762.1 1389.5,2756.4 					"/>
					<polygon class="st12" points="1193.5,2762.1 1190.9,2756.4 1130.1,2756.4 1131.4,2762.1 					"/>
					<polygon class="st12" points="1475.3,2770.8 1467.6,2765.1 1405.9,2765.1 1412.4,2770.8 					"/>
					<polygon class="st12" points="1614.1,2770.8 1603.7,2765.1 1543,2765.1 1552,2770.8 					"/>
					<polygon class="st12" points="1544.7,2770.8 1535.7,2765.1 1474.4,2765.1 1482.2,2770.8 					"/>
					<polygon class="st12" points="853.2,2765.1 790.8,2765.1 785.6,2770.8 849.3,2770.8 					"/>
					<polygon class="st12" points="539.9,2753.4 598,2753.4 607,2747.7 550.2,2747.7 					"/>
					<path class="st12" d="M623.9,2741.7l-4.7,2.9h56.6l5.4-4h-56.6C624.6,2741,624.4,2741.4,623.9,2741.7z"/>
					<path class="st12" d="M686.8,2741.6l-4.2,3h57l4.5-4h-56.8C687.3,2741,687.2,2741.3,686.8,2741.6z"/>
					<polygon class="st12" points="793.6,2762.1 855.3,2762.1 859.2,2756.4 798.8,2756.4 					"/>
					<polygon class="st12" points="494.7,2773.9 428,2773.9 416.4,2779.5 484.3,2779.5 					"/>
					<path class="st12" d="M812.5,2741.4l-3,3.3h57.7l2.7-4h-57.1C812.8,2740.9,812.7,2741.2,812.5,2741.4z"/>
					<path class="st12" d="M938.2,2741.1l-1.6,3.6h58.1l0.9-4h-57.3C938.3,2740.8,938.3,2740.9,938.2,2741.1z"/>
					<path class="st12" d="M1058.3,2740.7H1001c0,0.1,0,0.1,0,0.2l-0.9,3.8h58.2V2740.7z"/>
					<polygon class="st12" points="1058.3,2747.7 999.5,2747.7 998.2,2753.4 1058.3,2753.4 					"/>
					<path class="st12" d="M749.7,2741.5l-3.6,3.1h57.4l3.6-4h-57C750.1,2741,750,2741.3,749.7,2741.5z"/>
					<path class="st12" d="M875.4,2741.2l-2.3,3.4H931l1.8-4h-57.2C875.6,2740.9,875.5,2741.1,875.4,2741.2z"/>
					<path class="st12" d="M467.6,2788.7l11.2-6.1h-68.5l-14.7,7.2h71.2C466.8,2789.4,467.1,2789,467.6,2788.7z"/>
					<polygon class="st12" points="1574.1,2744.6 1634.6,2744.6 1626.5,2740.7 1566.8,2740.7 					"/>
					<polygon class="st12" points="1694.1,2773.9 1627.4,2773.9 1637.8,2779.5 1705.7,2779.5 					"/>
					<path class="st12" d="M1635.6,2782.6h-64.8l9.9,6.2c0.4,0.3,0.7,0.6,0.7,1h67.3L1635.6,2782.6z"/>
					<path class="st12" d="M1643.4,2782.6l11.2,6.1c0.5,0.3,0.8,0.7,0.8,1.1h71.2l-14.7-7.2H1643.4z"/>
					<polygon class="st12" points="1058.3,2756.4 997.5,2756.4 996.2,2762.1 1058.3,2762.1 					"/>
					<polygon class="st12" points="548,2744.6 555.3,2740.7 495.6,2740.7 487.5,2744.6 					"/>
					<path class="st12" d="M1275.1,2782.6h-66.6l3.1,6.8c0.1,0.1,0.1,0.3,0.1,0.4h68.3L1275.1,2782.6z"/>
					<path class="st12" d="M1347.2,2782.6h-66.3l4.6,6.7c0.1,0.2,0.2,0.4,0.2,0.5h68.2L1347.2,2782.6z"/>
					<path class="st12" d="M1491.5,2782.6h-65.7l7.3,6.4c0.3,0.2,0.4,0.5,0.4,0.8h67.8L1491.5,2782.6z"/>
					<path class="st12" d="M1563.5,2782.6h-65.2l8.6,6.3c0.4,0.3,0.6,0.6,0.6,0.9h67.6L1563.5,2782.6z"/>
					<path class="st12" d="M1419.4,2782.6h-66l5.9,6.5c0.2,0.2,0.3,0.5,0.3,0.7h68L1419.4,2782.6z"/>
					<polygon class="st12" points="469.7,2753.4 532.1,2753.4 542.5,2747.7 481.3,2747.7 					"/>
					<polygon class="st12" points="591.3,2762.1 651.9,2762.1 659.7,2756.4 600.4,2756.4 					"/>
					<polygon class="st12" points="1058.3,2765.1 995.5,2765.1 994.2,2770.8 1058.3,2770.8 					"/>
					<polygon class="st12" points="670.7,2753.4 729.7,2753.4 736.1,2747.7 678.5,2747.7 					"/>
					<polygon class="st12" points="523.9,2762.1 584,2762.1 593.1,2756.4 534.3,2756.4 					"/>
					<polygon class="st12" points="510.6,2765.1 445.7,2765.1 434.2,2770.8 500.2,2770.8 					"/>
					<polygon class="st12" points="452,2762.1 516.2,2762.1 526.5,2756.4 463.5,2756.4 					"/>
					<polygon class="st12" points="716.2,2765.1 654.6,2765.1 646.8,2770.8 709.7,2770.8 					"/>
					<polygon class="st12" points="647.7,2765.1 586.5,2765.1 577.4,2770.8 639.9,2770.8 					"/>
					<polygon class="st12" points="508,2770.8 570.1,2770.8 579.2,2765.1 518.4,2765.1 					"/>
					<polygon class="st12" points="736.1,2753.4 795.5,2753.4 800.7,2747.7 742.6,2747.7 					"/>
					<polygon class="st12" points="792.7,2756.4 732.6,2756.4 726.2,2762.1 787.5,2762.1 					"/>
					<polygon class="st12" points="726.2,2756.4 666.5,2756.4 658.7,2762.1 719.7,2762.1 					"/>
					<polygon class="st12" points="556.2,2779.5 565.2,2773.9 502.4,2773.9 492.1,2779.5 					"/>
					<polygon class="st12" points="605.3,2753.4 663.8,2753.4 671.6,2747.7 614.3,2747.7 					"/>
					<polygon class="st12" points="921.6,2765.1 859,2765.1 855.1,2770.8 919,2770.8 					"/>
					<polygon class="st12" points="992,2756.4 931.2,2756.4 928.6,2762.1 990.7,2762.1 					"/>
					<polygon class="st12" points="988,2773.9 923.2,2773.9 920.6,2779.5 986.7,2779.5 					"/>
					<polygon class="st12" points="990,2765.1 927.2,2765.1 924.6,2770.8 988.7,2770.8 					"/>
					<polygon class="st12" points="994,2747.7 935.2,2747.7 932.6,2753.4 992.7,2753.4 					"/>
					<polygon class="st12" points="635.8,2773.9 572.5,2773.9 563.4,2779.5 628,2779.5 					"/>
					<polygon class="st12" points="1058.3,2773.9 993.5,2773.9 992.2,2779.5 1058.3,2779.5 					"/>
					<polygon class="st12" points="706.3,2773.9 642.6,2773.9 634.8,2779.5 699.8,2779.5 					"/>
					<polygon class="st12" points="776.8,2773.9 712.7,2773.9 706.2,2779.5 771.6,2779.5 					"/>
					<polygon class="st12" points="784.7,2765.1 722.7,2765.1 716.2,2770.8 779.5,2770.8 					"/>
					<polygon class="st12" points="847.2,2773.9 782.9,2773.9 777.7,2779.5 843.3,2779.5 					"/>
					<polygon class="st12" points="917.6,2773.9 853,2773.9 849.1,2779.5 915,2779.5 					"/>
					<polygon class="st12" points="1202.9,2782.6 1136.1,2782.6 1130.6,2782.6 1063.8,2782.6 1058.3,2782.6 991.5,2782.6 
						986,2782.6 919.3,2782.6 916,2789.8 984.4,2789.8 989.8,2789.8 1058.3,2789.8 1063.8,2789.8 1132.3,2789.8 1137.7,2789.8 
						1206.2,2789.8 					"/>
				</g>
				<polygon class="st12" points="1193.5,2795.4 1061.1,2795.4 928.6,2795.4 916,2823.3 1061.1,2823.3 1206.2,2823.3 				"/>
			</g>
		</g>
		<path class="st11" d="M673.7,2737.1h-50.3c-2,0-3.6-1.6-3.6-3.6v-8.2c0-2,1.6-3.6,3.6-3.6h50.3c2,0,3.6,1.6,3.6,3.6v8.2
			C677.3,2735.5,675.7,2737.1,673.7,2737.1z"/>
	</g>
	<g class="st0">
		<path class="st13" d="M1368.9,2451.9l-244.3-64.7l141,209.7C1315.7,2563.1,1353,2511.8,1368.9,2451.9z"/>
		<path class="st12" d="M1232.3,2104.7l-128,217.9l244.3,64.7c5.4-20.6,8.4-42.3,8.4-64.7
			C1356.9,2229.7,1306.9,2148.6,1232.3,2104.7z"/>
		<path class="st14" d="M1162.3,2552.1l-141-209.7l128-217.9c-37.5-22.1-81.3-34.8-128-34.8c-139.5,0-252.7,113.1-252.7,252.7
			c0,139.5,113.1,252.7,252.7,252.7c53.5,0,103.1-16.6,143.9-45C1164.2,2550.8,1163.3,2551.4,1162.3,2552.1z"/>
		<path class="st15" d="M1336.2,2437.2c-21.6-4.6-42.5-9.4-63.1-14.2l-15.5-3.6l-15.3-3.7c-10.2-2.4-20.3-5-30.4-7.5
			c-20.3-5-40.2-10.4-60-16.4c-19.8-5.9-39.7-12.2-59.9-17.8l1.8-2.6c11.5,17.6,23.3,35.1,35.5,52.3l36.8,51.4
			c12.2,17.1,24.1,34.5,36.1,51.8c12,17.3,23.9,34.7,35.6,52.2l-7.4-1.4c12.3-8.3,24-17.5,34.7-27.8c10.8-10.2,20.7-21.4,29.7-33.3
			c8.9-11.9,16.9-24.6,23.8-38l5-10.1l4.6-10.3l4.1-10.5C1333.5,2444.2,1334.9,2440.8,1336.2,2437.2z M1337,2436.7
			c-0.8,3.6-1.5,7.5-2.5,11.5l-3.2,11l-3.7,10.9c-1.4,3.6-2.8,7.1-4.2,10.7c-6,14.1-13.4,27.7-22,40.4
			c-8.6,12.8-18.5,24.7-29.4,35.7c-11,10.9-22.9,20.9-35.7,29.5l-4.4,3l-3-4.4c-11.8-17.5-23.3-35.1-34.9-52.7
			c-11.5-17.6-23.1-35.2-34.4-53l-33.7-53.4c-11.4-17.7-23-35.3-35-52.6l-2.5-3.7l4.4,1.1c20.5,5.1,41.3,9.6,62.2,14.5
			c20.9,4.8,41.7,10.2,62.2,16c10.2,2.9,20.5,5.7,30.6,8.6l15.2,4.4l15.1,4.5C1298.1,2424.5,1317.9,2430.5,1337,2436.7z"/>
		<path class="st15" d="M1200.2,2090.2c-10.3,19.3-20.6,38.1-30.9,56.7l-15.4,27.7l-15.4,27.4c-10.3,18.1-20.6,36.2-31.2,54
			c-10.6,17.8-21.6,35.4-32.8,53.1l-1.8-4.4l30.3,8.9c10.1,2.9,20.2,5.8,30.4,8.6c20.3,5.6,40.7,10.8,61.2,15.9l61.5,14.7
			c20.5,4.8,41,9.9,61.4,15.1l-5.5,3.2c6.6-26,8.9-53.1,6.9-79.8c-0.3-3.3-0.7-6.7-1-10c-0.4-3.3-0.5-6.7-1.2-10
			c-1.2-6.6-2.1-13.2-3.7-19.7l-2.3-9.8l-2.9-9.6c-1.7-6.5-4.4-12.6-6.7-18.9c-0.5-1.6-1.2-3.1-1.9-4.6l-2-4.6l-2-4.6
			c-0.7-1.5-1.3-3.1-2.2-4.5c-3.2-5.9-6-12-9.6-17.7l-5.2-8.6l-5.7-8.3l-2.9-4.2c-1-1.4-2.1-2.7-3.1-4l-6.2-8
			c-2.1-2.6-4.4-5.1-6.7-7.6c-2.3-2.5-4.4-5.1-6.8-7.5l-7.2-7.2c-2.3-2.5-5-4.6-7.5-6.9c-2.6-2.2-5-4.6-7.6-6.7l-8-6.3
			c-1.3-1-2.7-2.2-4-3.1l-4-2.8L1200.2,2090.2z M1199.9,2089.3l9.1,5l4.7,2.7c1.6,0.9,2.9,1.9,4.3,2.8l8.6,5.7
			c2.9,1.9,5.5,4.1,8.3,6.2c5.6,4.1,10.6,8.8,15.8,13.3c2.7,2.2,5,4.8,7.4,7.2c2.4,2.5,4.9,4.9,7.2,7.5c18.5,20.6,34,44.2,44.9,69.8
			l3.8,9.7c1.4,3.2,2.4,6.5,3.4,9.9l3.2,10l2.5,10.2c1.9,6.7,2.7,13.7,4,20.5c0.7,3.4,0.8,6.9,1.2,10.4c0.3,3.5,0.7,6.9,1,10.4
			c1.7,27.9-1.4,55.9-8.7,82.8l-1.2,4.4l-4.3-1.2c-20.3-5.6-40.6-11.3-60.8-17.3l-60.7-17.6c-20.3-5.7-40.6-11.3-61-16.4
			c-10.2-2.6-20.4-5.1-30.7-7.6l-30.8-7.2l-3.7-0.9l1.9-3.5c10.2-18.6,20.6-37.3,31.3-55.9c10.8-18.5,21.8-36.7,32.8-54.9l16.6-27.1
			l16.7-26.7C1177.8,2123.8,1188.9,2106.3,1199.9,2089.3z"/>
		<path class="st15" d="M1130,2537.6l-72.1-102.8l-36.3-52.3l-36.1-52.7l-1.5-2.2l1.4-2.3l31.8-54.6c10.7-18.1,21.3-36.3,32.2-54.4
			c10.8-18.1,21.7-36.1,32.6-54.1l32.8-54l0.9,3.6c-19-11.6-39.7-20.7-61.2-26.7c-21.5-6.1-44-8.9-66.3-8.9
			c-44.8,0.2-89.5,12.8-127.4,36.4c-38,23.4-69.3,57.1-90.2,96.1c-20.7,39.2-31,83.7-29,127.9c1.8,44.1,15.5,87.6,39.6,124.6
			c23.8,37.2,57.6,67.9,96.9,88l3.7,1.9l3.8,1.7c2.5,1.1,5,2.4,7.5,3.5c5.1,2,10.2,4.3,15.5,6c10.4,3.8,21.2,6.6,32,9
			c21.7,4.3,44,6.3,66.3,5c44.5-2.4,88.3-17,125.8-41.7l0.7,1C1132.2,2536.4,1131,2537,1130,2537.6z M1130.2,2536.7
			c0.8-0.7,1.6-1.4,2.4-2l0.7,1c-18.2,13.4-38.4,24.1-59.6,32.1c-21.3,8-43.7,12.8-66.4,14.8c-22.7,2-45.7,0.8-68.2-3.4
			c-11.2-2.2-22.4-4.9-33.2-8.6c-5.5-1.7-10.8-3.9-16.1-5.9c-2.6-1.1-5.3-2.3-7.9-3.4l-3.9-1.7l-3.9-1.9
			c-41.3-20-76.8-51.8-101.8-90.4c-12.6-19.3-22.2-40.4-29.3-62.3c-0.8-2.7-1.6-5.5-2.4-8.3l-1.2-4.2c-0.4-1.4-0.6-2.8-1-4.2
			l-1.9-8.4l-1.5-8.5l-0.7-4.2c-0.2-1.4-0.4-2.8-0.5-4.3l-1-8.6l-0.6-8.6c-0.2-2.9-0.4-5.7-0.4-8.6c-1.6-45.9,9.4-92.1,31.7-132.2
			c22.2-40.1,55.6-73.6,94.8-96.5c39.3-23,84.7-34.9,129.9-35.1c45.3-0.3,90.7,11.5,130.3,34l2.3,1.3l-1.3,2.3l-31.2,54.9
			c-10.4,18.3-20.8,36.6-31.4,54.8c-10.5,18.3-21.2,36.4-31.8,54.6l-32.2,54.3l-0.1-4.5l34.4,52.1l34.3,52.5L1130.2,2536.7z"/>
		<g>
			<path class="st3" d="M829,2306.1c6.4,0.1,12.9,0.1,19.6,0c1.4,0,2.4,0.5,3.1,1.5c0.6,1,0.5,2.3-0.4,4
				c-5.4,10.9-10.7,21.4-15.9,31.6c-5.2,10.1-9,20.5-11.3,31c-0.4,1.3-1.9,2.2-4.4,2.6c-2.6,0.4-3.5-0.7-2.9-3.4
				c2.3-10.3,6.1-20.5,11.3-30.4c5.2-10,10.2-20.1,15-30.4c-4,0-8.8-0.1-14.3-0.4c-5.5-0.2-10.9-0.6-16-1.1
				c-2.3-0.2-3.6-1.3-3.8-3.3c-0.2-2,0.7-2.8,2.8-2.6C816.8,2305.7,822.6,2306,829,2306.1z"/>
			<path class="st3" d="M895.2,2305.8c2.6,2.3,3.9,4.8,3.9,7.3c0,3.6-1.3,6.9-3.9,9.9c-2.6,3-6.6,5.7-12.2,8.1
				c3.7,0.6,6.8,2,9.1,4.2c2.3,2.1,3.5,4.4,3.5,6.9c0,6.3-3.9,13.2-11.6,20.8c-7.7,7.5-16.7,12.9-26.9,16.1
				c-1.8,0.5-3.3-0.1-4.4-1.8c-1.2-1.7-0.4-3.1,2.1-4c9.8-3.5,17.8-8.4,24.1-14.8c6.2-6.4,9.4-11.4,9.4-15c0-2.8-2.1-4.9-6.3-6.2
				c-4.2-1.3-10-1.7-17.5-1.4c-1.2,0-1.9-1-2.2-2.9c-0.3-1.9,0.3-3,1.8-3.1c8.2-1.4,14.9-3.7,20-6.8c5.1-3.1,7.6-6.3,7.6-9.7
				c0-1.3-0.8-2.4-2.5-3.4c-1.7-1-4-1.4-7-1.4c-2.8,0-5.9,0.5-9.2,1.4c-3.3,0.9-6.5,2-9.6,3.3c-0.9,0.4-1.9-0.1-3.1-1.4
				c-1.2-1.3-0.6-2.5,1.7-3.7c3.3-1.9,6.9-3.3,10.7-4.4c3.8-1.1,7.3-1.6,10.5-1.6C888.7,2302.3,892.6,2303.4,895.2,2305.8z"/>
			<path class="st3" d="M944.5,2310.6c4.6,0.4,8.4-1.7,11.4-6.4c1-1.8,2.7-2.4,4.9-1.9c2.3,0.5,3.1,1.2,2.6,1.9
				c-7.1,12.4-14.6,24.8-22.4,37.4c-7.9,12.6-15.7,25-23.4,37.4c-1.2,1.9-2.8,2.4-4.8,1.5c-2.1-0.9-2.4-2.3-1.2-4.1
				c6.7-10.8,13.2-21.3,19.6-31.4c6.4-10.1,12.7-20.5,18.8-31c-2.1,1.2-4.3,1.8-6.9,1.9c-2.5,0.1-4.8,0.1-6.9,0
				c-1.7,8.8-4.4,15.2-8.2,19.2c-3.8,4.1-8.3,6.1-13.6,6.1c-3,0-5.3-0.8-7-2.3c-1.7-1.5-2.5-4.1-2.5-7.7c0-7.3,3.3-13.9,9.9-19.5
				c6.6-5.7,11.9-8.8,16-9.3c2.1-0.3,3.1,0.1,3.2,1.2c0.1,1-0.7,1.9-2.2,2.7c-0.5,0.3-0.3,0.7,0.8,1.3c1,0.6,2,1.1,2.9,1.6
				C936.9,2309.8,939.8,2310.2,944.5,2310.6z M916.5,2319.4c-2.8,4.2-4.2,8-4.2,11.5c0,1.3,0.3,2.3,1,3c0.6,0.7,1.4,1.1,2.3,1.1
				c2.6,0,5.7-1.8,9.4-5.3c3.7-3.5,5.6-8.6,5.9-15.2c-1.2-0.3-2.2-0.7-3.2-1.4c-1-0.6-1.9-1.3-2.8-1.9
				C922.1,2312.5,919.3,2315.2,916.5,2319.4z M968,2338.4c0,0.6-0.3,1.1-1,1.4l-2.1,0.8c1.5-0.3,3.4,0.2,5.7,1.3
				c2.3,1.1,3.4,2.6,3.4,4.5c0,7.5-2.3,14.2-6.8,20.2c-4.5,6-10.2,9-17,9c-3,0-5.3-0.9-7-2.8c-1.7-1.9-2.5-4.6-2.5-8.2
				c0-7.3,3.1-13.6,9.4-18.7c6.2-5.1,11.4-7.8,15.6-8C967.3,2337.6,968,2337.8,968,2338.4z M957.9,2347c-2.6,1.4-4.7,4.5-6.3,9.4
				c-0.1,0.5-0.5,0.6-1.1,0.4c-0.6-0.3-0.9-1-0.8-2.1c-1,1.7-1.8,3.3-2.3,4.9c-0.6,1.6-0.8,3.3-0.8,4.9c0,1.4,0.3,2.5,0.8,3.4
				c0.6,0.8,1.2,1.3,2,1.3c3.9,0,7.7-2.2,11.6-6.7c3.8-4.4,5.7-9.6,5.7-15.6c0-0.6-0.3-1.1-1-1.4c-0.7-0.3-1.3-0.5-2-0.5
				C962.4,2345,960.5,2345.7,957.9,2347z"/>
		</g>
	</g>
	<g class="st0">
		<rect x="169.2" y="682.7" class="st2" width="452.7" height="540.1"/>
		
			<rect x="175.9" y="776.9" transform="matrix(-1.836970e-16 1 -1 -1.836970e-16 1348.3092 557.257)" class="st1" width="439.2" height="351.7"/>
	</g>
</g>
</svg>
