<?xml version="1.0" encoding="utf-8"?>
<!-- Generator: Adobe Illustrator 23.1.0, SVG Export Plug-In . SVG Version: 6.00 Build 0)  -->
<svg version="1.1" id="Layer_1" xmlns="http://www.w3.org/2000/svg" xmlns:xlink="http://www.w3.org/1999/xlink" x="0px" y="0px"
	 viewBox="0 0 440 345" style="enable-background:new 0 0 440 345;" xml:space="preserve">
<g>
	<path d="M391.9,114.7c-0.1-0.2-0.2-0.2-0.3-0.3c-17.3-29.6-42-54.3-71.6-71.6c-0.2-0.1-0.2-0.2-0.3-0.3c-0.2-0.1-0.3-0.1-0.5-0.2
		C290.3,25.6,256.8,16,221,16c-35.8,0-69.2,9.6-98.2,26.3c-0.2,0.1-0.3,0.1-0.5,0.2s-0.2,0.2-0.4,0.3C92.4,60,67.6,84.7,50.4,114.3
		c-0.1,0.2-0.2,0.2-0.3,0.4S50,115,50,115.2c-16.7,29-26.3,62.4-26.3,98.2c0,34.7,9.2,68.8,26.4,98.7c1.4,2.5,4.1,3.9,6.8,3.9
		c1.3,0,2.7-0.3,3.9-1l15.6-9c3.8-2.2,5.1-7,2.9-10.8c-2.2-3.8-7-5.1-10.8-2.9l-8.5,4.9c-12.2-23.4-19.1-49.3-20.3-75.9h9.8
		c4.3,0,7.9-3.6,7.9-7.9c0-4.3-3.6-7.9-7.9-7.9h-9.8c1.2-27.3,8.4-53,20.4-75.9l8.4,4.9c1.3,0.7,2.6,1,3.9,1c2.8,0,5.4-1.4,6.9-3.9
		c2.2-3.8,0.9-8.6-2.9-10.8l-8.4-4.9c14.3-22.3,33.2-41.3,55.6-55.6l4.9,8.4c1.5,2.5,4.1,3.9,6.9,3.9c1.3,0,2.7-0.3,3.9-1
		c3.8-2.2,5.1-7,2.9-10.8l-4.9-8.4c22.9-12,48.6-19.2,75.9-20.4v9.9c0,4.3,3.6,7.9,7.9,7.9c4.3,0,7.9-3.6,7.9-7.9V32
		c27.3,1.2,53,8.4,75.9,20.4l-5,8.5c-2.2,3.8-0.9,8.6,2.9,10.8c1.3,0.7,2.6,1,3.9,1c2.8,0,5.4-1.4,6.9-3.9l4.9-8.4
		c22.3,14.3,41.3,33.2,55.6,55.6l-8.4,4.9c-3.8,2.2-5.1,7-2.9,10.8c1.5,2.5,4.1,3.9,6.9,3.9c1.3,0,2.7-0.3,3.9-1l8.5-4.9
		c12,22.9,19.2,48.6,20.4,75.9h-9.9c-4.3,0-7.9,3.6-7.9,7.9c0,4.3,3.6,7.9,7.9,7.9h9.8c-1.2,26.5-8.1,52.5-20.3,75.9l-8.6-5
		c-3.8-2.2-8.6-0.9-10.8,2.9c-2.2,3.8-0.9,8.6,2.9,10.8l15.6,9c0.8,0.5,1.7,0.7,2.6,0.9c0.2,0.1,0.6,0.1,0.8,0.1
		c0.2,0,0.4,0.1,0.6,0.1c0.6,0,1.2-0.1,1.7-0.2c0.2-0.1,0.5-0.2,0.8-0.2c0.6-0.2,1.3-0.5,1.8-0.9c0.3-0.2,0.6-0.4,0.8-0.6
		c0.6-0.5,1-1,1.4-1.7c0.1-0.2,0.2-0.2,0.3-0.4c17.2-29.8,26.4-64,26.4-98.7c0-35.8-9.6-69.3-26.3-98.2
		C392,115,392,114.9,391.9,114.7L391.9,114.7z"/>
	<path d="M246.4,238.7c11.3-11.3,70.2-106.1,77-116.8c2-3.1,1.5-7.2-1.1-9.7c-2.6-2.6-6.6-3.1-9.7-1.1
		c-10.8,6.7-105.6,65.7-116.8,77c-6.8,6.8-10.5,15.8-10.5,25.4s3.7,18.6,10.5,25.4c7,7,16.2,10.5,25.4,10.5
		C230.2,249.2,239.4,245.7,246.4,238.7L246.4,238.7z M206.8,227.6c-3.8-3.8-5.9-8.8-5.9-14.2s2.1-10.4,5.9-14.2
		c5.9-5.9,47.3-32.8,84.9-56.5c-23.8,37.6-50.5,79-56.5,84.9C227.4,235.4,214.6,235.4,206.8,227.6z"/>
</g>
</svg>
