<?xml version="1.0" encoding="utf-8"?>
<!-- Generator: Adobe Illustrator 23.1.0, SVG Export Plug-In . SVG Version: 6.00 Build 0)  -->
<svg version="1.1" id="Layer_1" xmlns="http://www.w3.org/2000/svg" xmlns:xlink="http://www.w3.org/1999/xlink" x="0px" y="0px"
	 viewBox="0 0 453 428" style="enable-background:new 0 0 453 428;" xml:space="preserve">
<g>
	<path d="M293.9,239.3v-38.9c0-8.9-7.2-16.1-16.1-16.1h-10.5v-21.5c0-21-17.1-38-38.1-38s-38.1,17.1-38.1,38v21.5h-10.5
		c-8.9,0-16.1,7.2-16.1,16.1v38.9c0,35.2,28.6,63.8,63.8,63.8h1.5C265.3,303.2,293.9,274.6,293.9,239.3z M200.8,162.9
		c0-15.8,12.8-28.6,28.6-28.6s28.6,12.8,28.6,28.6v21.5h-57.2V162.9z M174.2,239.3v-38.9c0-3.6,3-6.6,6.6-6.6h97.1
		c3.6,0,6.6,3,6.6,6.6v38.9c0,30-24.4,54.4-54.4,54.4h-1.5C198.6,293.7,174.2,269.3,174.2,239.3L174.2,239.3z"/>
	<path d="M234.1,270.1v-20.8c8.9-2.1,15.6-10.1,15.6-19.7c0-11.2-9.1-20.3-20.3-20.3s-20.3,9.1-20.3,20.3c0,9.6,6.7,17.6,15.6,19.7
		v20.8c0,2.6,2.1,4.7,4.7,4.7S234.1,272.7,234.1,270.1L234.1,270.1z M218.5,229.6c0-6,4.9-10.9,10.9-10.9c6,0,10.9,4.9,10.9,10.9
		c0,6-4.9,10.9-10.9,10.9S218.5,235.6,218.5,229.6z"/>
	<path d="M89.3,373.8c-2.2-11.5-12.3-20.2-24.5-20.2c-13.8,0-24.9,11.2-24.9,24.9c0,13.8,11.2,24.9,24.9,24.9
		c12.1,0,22.2-8.7,24.5-20.2h55c1.4,0,2.7-0.6,3.6-1.7l41.1-48.5c12.7,4.3,26.2,6.7,40.4,6.7c14.1,0,27.7-2.4,40.4-6.7l41.1,48.5
		c0.9,1.1,2.2,1.7,3.6,1.7h55c2.2,11.5,12.3,20.2,24.5,20.2c13.8,0,24.9-11.2,24.9-24.9c0-13.8-11.2-24.9-24.9-24.9
		c-12.1,0-22.2,8.7-24.5,20.2l-52.8,0l-37.5-44.3c43.5-18.7,74.4-61.1,76.4-110.8h13.9c2,11.7,12.2,20.7,24.5,20.7
		c13.8,0,24.9-11.2,24.9-24.9c0-13.8-11.2-24.9-24.9-24.9c-12,0-22,8.5-24.4,19.7h-14c-1.7-49.6-32.1-91.9-75.1-111l37.2-43.9h51.8
		c2.2,11.5,12.3,20.2,24.5,20.2c13.8,0,24.9-11.2,24.9-24.9c0-13.8-11.2-24.9-24.9-24.9c-12.1,0-22.2,8.7-24.5,20.2h-54
		c-1.4,0-2.7,0.6-3.6,1.7l-40.6,48c-13.1-4.6-27.2-7.1-41.8-7.1c-14.6,0-28.7,2.5-41.8,7.1l-40.6-48c-0.9-1.1-2.2-1.7-3.6-1.7h-54
		C87.1,33.3,77,24.6,64.9,24.6c-13.8,0-24.9,11.2-24.9,24.9c0,13.8,11.2,24.9,24.9,24.9c12.1,0,22.2-8.7,24.5-20.2h51.8l37.2,43.9
		c-43,19.1-73.4,61.5-75.1,111h-14c-2.4-11.3-12.4-19.7-24.4-19.7c-13.8,0-24.9,11.2-24.9,24.9c0,13.8,11.2,24.9,24.9,24.9
		c12.3,0,22.5-9,24.5-20.7h13.9c2,49.7,32.9,92.1,76.4,110.8l-37.5,44.3L89.3,373.8L89.3,373.8z M64.9,394
		c-8.5,0-15.5-6.9-15.5-15.5c0-8.5,6.9-15.5,15.5-15.5c8.5,0,15.5,6.9,15.5,15.5S73.4,394,64.9,394z M393.8,363.1
		c8.5,0,15.5,6.9,15.5,15.5c0,8.5-6.9,15.5-15.5,15.5c-8.5,0-15.5-6.9-15.5-15.5C378.4,370,385.3,363.1,393.8,363.1z M393.8,198.9
		c8.5,0,15.5,6.9,15.5,15.5c0,8.5-6.9,15.5-15.5,15.5c-8.5,0-15.5-6.9-15.5-15.5S385.3,198.9,393.8,198.9z M393.8,34
		c8.5,0,15.5,6.9,15.5,15.5c0,8.5-6.9,15.5-15.5,15.5c-8.5,0-15.5-6.9-15.5-15.5C378.4,41,385.3,34,393.8,34z M64.9,65
		c-8.5,0-15.5-6.9-15.5-15.5C49.4,41,56.3,34,64.9,34c8.5,0,15.5,6.9,15.5,15.5C80.3,58,73.4,65,64.9,65z M64.9,229.9
		c-8.5,0-15.5-6.9-15.5-15.5c0-8.5,6.9-15.5,15.5-15.5c8.5,0,15.5,6.9,15.5,15.5S73.4,229.9,64.9,229.9z M112.6,213.5
		c0-64.4,52.4-116.7,116.8-116.7c64.4,0,116.8,52.4,116.8,116.7c0,64.4-52.4,116.7-116.8,116.7C165,330.3,112.6,277.9,112.6,213.5z"
		/>
</g>
</svg>
