<?xml version="1.0" encoding="utf-8"?>
<!-- Generator: Adobe Illustrator 23.1.0, SVG Export Plug-In . SVG Version: 6.00 Build 0)  -->
<svg version="1.1" id="Layer_1" xmlns="http://www.w3.org/2000/svg" xmlns:xlink="http://www.w3.org/1999/xlink" x="0px" y="0px"
	 viewBox="0 0 488 310" style="enable-background:new 0 0 488 310;" xml:space="preserve">
<path d="M26.4,34.5c-1.4,0-2.5,1.1-2.5,2.5v31.7c0,1.4,1.1,2.4,2.5,2.4h64.8c-2.8,1.4-4.9,3.7-5.9,6.6c-1.1,3-0.9,6.3,0.4,9.2
	c1.2,2.5,3.2,4.6,5.8,5.8l9.7,4.5c-0.4,0.4-0.6,0.9-0.6,1.5v4.2c0,0.6,0.3,1.1,0.6,1.5l-9.7,4.5c0,0,0,0,0,0
	c-2.9,1.4-5.1,3.7-6.1,6.7c-1.1,3-0.9,6.3,0.4,9.2c1.2,2.5,3.3,4.6,5.8,5.8l9.7,4.5c-0.4,0.4-0.6,0.9-0.6,1.5v4.2
	c0,0.6,0.3,1.1,0.6,1.5l-9.7,4.5c0,0-0.1,0.1-0.1,0.1c-2.8,1.4-5,3.7-6.1,6.7c-1.1,3-0.9,6.3,0.4,9.2c1.2,2.5,3.3,4.6,5.8,5.8
	l9.7,4.5c-0.4,0.4-0.6,0.9-0.6,1.5v4.2c0,0.6,0.3,1.1,0.6,1.5l-9.7,4.5c0,0-0.1,0.1-0.1,0.1c-5.9,2.8-8.5,9.9-5.7,15.8
	c1.2,2.5,3.3,4.6,5.8,5.8l9.7,4.5c-0.3,0.4-0.6,0.9-0.6,1.5v4.2c0,0.6,0.3,1.1,0.7,1.5l-9.7,4.5c-2.9,1.4-5.1,3.8-6.2,6.8
	c-1.1,3-0.9,6.3,0.4,9.2c1.2,2.5,3.2,4.6,5.8,5.8l-18.6,0c0,0,0,0,0,0H26.4c-0.7,0-1.3,0.3-1.8,0.8c-0.4,0.4-0.7,1-0.7,1.7v0V279
	c0,1.4,1.1,2.5,2.5,2.5h429.1c1.4,0,2.5-1.1,2.5-2.5v-31.7v0c0-0.7-0.3-1.3-0.7-1.7v0c-0.4-0.4-1.1-0.7-1.8-0.7h-46.5c0,0,0,0,0,0
	h-18.6l0,0c6-2.8,8.6-9.9,5.8-15.9c-1.2-2.5-3.3-4.6-5.8-5.8l-9.7-4.5c0.4-0.4,0.6-0.9,0.6-1.5v-4.2c0-0.6-0.3-1.1-0.6-1.6l9.7-4.5
	c6-2.8,8.6-9.9,5.8-15.9c-1.2-2.5-3.3-4.6-5.8-5.8c0,0,0,0,0,0l-9.7-4.5c0.4-0.4,0.6-0.9,0.6-1.5v-4.2c0-0.6-0.3-1.1-0.6-1.6
	l9.7-4.5c6-2.8,8.6-9.9,5.8-15.9c-1.2-2.5-3.2-4.6-5.8-5.8l0,0h0l-9.7-4.5c0.4-0.4,0.6-0.9,0.6-1.5v-4.2c0-0.6-0.3-1.1-0.6-1.5
	l9.7-4.5c6-2.8,8.6-9.9,5.8-15.9c-1.2-2.5-3.2-4.6-5.8-5.8l0,0h0l-9.7-4.5c0.4-0.4,0.6-0.9,0.6-1.5v-4.2c0-0.6-0.3-1.1-0.6-1.5
	l9.7-4.5c6-2.8,8.6-9.9,5.8-15.9c-1.1-2.4-3.1-4.4-5.5-5.6h64.8c1.4,0,2.5-1.1,2.5-2.4V37c0-1.4-1.1-2.5-2.5-2.5L26.4,34.5z
	 M28.9,39.4h424.2v26.8H28.9L28.9,39.4z M102.8,71.1h276.4l9.2,4.3c1.5,0.7,2.7,1.9,3.4,3.4c1.6,3.5,0.1,7.7-3.4,9.4l-17.3,8.1
	H110.9l-17.3-8.1c-1.5-0.7-2.7-1.9-3.4-3.4c-0.8-1.7-0.9-3.6-0.2-5.4s1.9-3.2,3.6-4L102.8,71.1z M110.9,105.4h260.3l17.2,8l0,0h0
	c1.5,0.7,2.7,1.9,3.4,3.4c1.6,3.5,0.1,7.7-3.4,9.4l-17.3,8.1H110.9l-17.3-8.1c-1.5-0.7-2.7-1.9-3.4-3.4c-0.8-1.7-0.9-3.6-0.2-5.4
	c0.6-1.8,1.9-3.2,3.6-4h0l0,0L110.9,105.4z M110.8,143.5h260.3l17.3,8.1h0c1.5,0.7,2.7,1.9,3.4,3.4c1.6,3.5,0.1,7.7-3.4,9.4
	l-17.3,8.1l-260.2,0l-17.3-8.1c-1.5-0.7-2.7-1.9-3.4-3.4c-0.8-1.7-0.9-3.6-0.2-5.4c0.6-1.8,1.9-3.2,3.6-4c0,0,0,0,0-0.1L110.8,143.5
	z M110.9,181.5h260.2l17.3,8.1c0,0,0,0,0,0c1.5,0.7,2.7,1.9,3.4,3.4c0.8,1.7,0.9,3.6,0.2,5.4c-0.7,1.8-2,3.2-3.7,4l-17.3,8.1H110.9
	l-17.2-8.1c-1.5-0.7-2.7-1.9-3.4-3.4c-1.6-3.5-0.1-7.7,3.4-9.4c0,0,0,0,0-0.1L110.9,181.5z M110.9,219.6h260.2l17.3,8.1
	c1.5,0.7,2.7,1.9,3.4,3.4c1.6,3.5,0.1,7.7-3.4,9.4l-9.6,4.5H103.2l-9.6-4.5c-1.5-0.7-2.7-1.9-3.4-3.4c-0.8-1.7-0.9-3.6-0.2-5.4
	s1.9-3.2,3.6-4L110.9,219.6z M28.9,249.8h424.2v26.8H28.9V249.8z"/>
</svg>
