<?xml version="1.0" encoding="utf-8"?>
<!-- Generator: Adobe Illustrator 23.1.0, SVG Export Plug-In . SVG Version: 6.00 Build 0)  -->
<svg version="1.1" id="Layer_1" xmlns="http://www.w3.org/2000/svg" xmlns:xlink="http://www.w3.org/1999/xlink" x="0px" y="0px"
	 viewBox="0 0 491 513" style="enable-background:new 0 0 491 513;" xml:space="preserve">
<style type="text/css">
	.st0{clip-path:url(#SVGID_2_);}
</style>
<g>
	<defs>
		<rect id="SVGID_1_" x="26" y="19.2" width="436" height="473.6"/>
	</defs>
	<clipPath id="SVGID_2_">
		<use xlink:href="#SVGID_1_"  style="overflow:visible;"/>
	</clipPath>
	<g class="st0">
		<path d="M256.5,242.2c-16.9-4.3-30.1-7.6-30.1-17.7c0-7.6,8.4-11.3,17.2-11.3c6.7,0,12.6,2.2,15.9,6.7c4.1,5.8,11.3,8.7,18.4,8.7
			c21.8,0,32.4-27.2,16-41.5c-7.6-6.6-17.6-11.3-29.7-13.6v-13.3c0-10.9-8.9-19.8-19.8-19.8c-10.9,0-19.8,8.9-19.8,19.8v13.1
			c-30.2,5.4-47.9,24-47.9,52.7c0,40.3,32.7,48.2,58.3,54.6c16.8,4.2,30.5,7.3,30.5,18.4c0,9.1-9.8,14.3-20,14.3
			c-7.1,0-13.7-2.5-17.5-7.6c-4.6-6.2-11.5-10.4-19.3-10.4h-3.7c-19.7,0-30.5,23-17.9,38c9,10.8,22.5,18,39.3,21.1v14.1
			c0,10.9,8.9,19.8,19.8,19.8c10.9,0,19.8-8.9,19.8-19.8v-14.2c30.5-5.6,50.9-24.7,50.9-56.4C316.8,257.5,282.7,248.9,256.5,242.2
			L256.5,242.2z M167.1,79.6C191.5,69.3,217.3,64,244,64c108.9,0,197.5,88.6,197.5,197.5c0,29.8-6.5,58.5-19.3,85.2
			c-2.3,4.9-0.3,10.8,4.6,13.1c1.4,0.7,2.8,0.9,4.2,0.9c3.6,0,7.2-2,8.9-5.6c14.1-29.4,21.2-60.9,21.2-93.7
			c0-119.6-97.4-217-217.1-217c-29.3,0-57.7,5.7-84.5,17.1c-5,2.1-7.3,7.9-5.2,12.8C156.4,79.3,162.2,81.7,167.1,79.6L167.1,79.6z
			 M288,454.1c-14.3,3.3-29.2,4.9-44,4.9c-108.9,0-197.5-88.6-197.5-197.5c0-24.2,4.3-47.7,12.8-70c1.9-5.1-0.6-10.7-5.7-12.6
			c-5.1-1.9-10.7,0.6-12.6,5.7c-9.3,24.6-14.1,50.5-14.1,77c0,119.7,97.4,217.1,217.1,217.1c16.3,0,32.6-1.8,48.4-5.4
			c5.3-1.2,8.6-6.4,7.4-11.7C298.6,456.1,293.3,452.8,288,454.1L288,454.1z M106.7,184.7l56.9-56.9c3.8-3.8,3.8-10,0-13.9
			c-3.8-3.8-10-3.8-13.9,0l-33.2,33.2V29c0-5.4-4.4-9.8-9.8-9.8c-5.4,0-9.8,4.4-9.8,9.8v118.2l-33.2-33.2c-3.8-3.8-10-3.8-13.9,0
			c-3.8,3.8-3.8,10,0,13.9L106.7,184.7z M424.3,422L391,455.2V337.1c0-5.4-4.4-9.8-9.8-9.8c-5.4,0-9.8,4.4-9.8,9.8v118.2L338.2,422
			c-3.8-3.8-10-3.8-13.9,0c-3.8,3.8-3.8,10,0,13.9l56.9,56.9l56.9-56.9c3.8-3.8,3.8-10,0-13.9C434.3,418.2,428.1,418.2,424.3,422
			L424.3,422z"/>
	</g>
</g>
</svg>
