<?xml version="1.0" encoding="utf-8"?>
<!-- Generator: Adobe Illustrator 23.1.0, SVG Export Plug-In . SVG Version: 6.00 Build 0)  -->
<svg version="1.1" id="Layer_1" xmlns="http://www.w3.org/2000/svg" xmlns:xlink="http://www.w3.org/1999/xlink" x="0px" y="0px"
	 viewBox="0 0 453 428" style="enable-background:new 0 0 453 428;" xml:space="preserve">
<g>
	<g>
		<path d="M293.9,239.3v-38.9c0-8.9-7.2-16.1-16.1-16.1h-10.5v-21.5c0-21-17.1-38-38.1-38s-38.1,17.1-38.1,38v21.5h-10.5
			c-8.9,0-16.1,7.2-16.1,16.1v38.9c0,35.2,28.6,63.8,63.8,63.8h1.5C265.3,303.2,293.9,274.6,293.9,239.3z M200.8,162.9
			c0-15.8,12.8-28.6,28.6-28.6s28.6,12.8,28.6,28.6v21.5h-57.2V162.9z M174.2,239.3v-38.9c0-3.6,3-6.6,6.6-6.6h97.1
			c3.6,0,6.6,3,6.6,6.6v38.9c0,30-24.4,54.4-54.4,54.4h-1.5C198.6,293.7,174.2,269.3,174.2,239.3L174.2,239.3z"/>
		<path d="M230,306.1c-0.1,0-0.1,0-0.2,0h-1.5c-36.8,0-66.8-30-66.8-66.8v-38.9c0-10.5,8.6-19.1,19.1-19.1h7.5v-18.5
			c0-22.6,18.4-41,41.1-41c22.7,0,41.1,18.4,41.1,41v18.5h7.5c10.5,0,19.1,8.6,19.1,19.1v38.9c0,17.9-7,34.7-19.6,47.3
			C264.7,299.2,247.9,306.1,230,306.1z M180.6,187.3c-7.2,0-13.1,5.9-13.1,13.1v38.9c0,33.5,27.3,60.8,60.8,60.8h1.5
			c0.1,0,0.1,0,0.2,0c16.3,0,31.6-6.3,43.1-17.8c11.5-11.5,17.8-26.8,17.8-43v-38.9c0-7.2-5.9-13.1-13.1-13.1h-13.5v-24.5
			c0-19.3-15.7-35-35.1-35c-19.4,0-35.1,15.7-35.1,35v24.5H180.6z M230.1,296.7h-1.5c-31.7,0-57.4-25.7-57.4-57.4v-38.9
			c0-5.3,4.3-9.6,9.6-9.6h97.1c5.3,0,9.6,4.3,9.6,9.6v38.9C287.5,271,261.8,296.7,230.1,296.7z M180.8,196.8c-2,0-3.6,1.6-3.6,3.6
			v38.9c0,28.3,23.1,51.4,51.4,51.4h1.5c28.3,0,51.4-23.1,51.4-51.4v-38.9c0-2-1.6-3.6-3.6-3.6H180.8z M261,187.4h-63.2v-24.5
			c0-17.4,14.2-31.6,31.6-31.6c17.4,0,31.6,14.2,31.6,31.6V187.4z M203.8,181.4H255v-18.5c0-14.1-11.5-25.6-25.6-25.6
			c-14.1,0-25.6,11.5-25.6,25.6V181.4z"/>
	</g>
	<g>
		<path d="M234.1,270.1v-20.8c8.9-2.1,15.6-10.1,15.6-19.7c0-11.2-9.1-20.3-20.3-20.3s-20.3,9.1-20.3,20.3c0,9.6,6.7,17.6,15.6,19.7
			v20.8c0,2.6,2.1,4.7,4.7,4.7S234.1,272.7,234.1,270.1L234.1,270.1z M218.5,229.6c0-6,4.9-10.9,10.9-10.9s10.9,4.9,10.9,10.9
			s-4.9,10.9-10.9,10.9S218.5,235.6,218.5,229.6z"/>
		<path d="M229.4,277.8c-4.2,0-7.7-3.5-7.7-7.7v-18.6c-9.3-3.2-15.6-11.9-15.6-21.9c0-12.8,10.5-23.3,23.3-23.3s23.3,10.5,23.3,23.3
			c0,10-6.3,18.7-15.6,21.9v18.6C237.1,274.3,233.6,277.8,229.4,277.8z M229.4,212.3c-9.5,0-17.3,7.8-17.3,17.3
			c0,8,5.5,14.9,13.3,16.8l2.3,0.5v23.2c0,0.9,0.8,1.7,1.7,1.7c0.9,0,1.7-0.8,1.7-1.7v-23.2l2.3-0.5c7.8-1.8,13.3-8.7,13.3-16.8
			C246.7,220.1,238.9,212.3,229.4,212.3z M229.4,243.5c-7.7,0-13.9-6.2-13.9-13.9s6.2-13.9,13.9-13.9c7.7,0,13.9,6.2,13.9,13.9
			S237.1,243.5,229.4,243.5z M229.4,221.7c-4.4,0-7.9,3.5-7.9,7.9s3.5,7.9,7.9,7.9c4.4,0,7.9-3.5,7.9-7.9S233.8,221.7,229.4,221.7z"
			/>
	</g>
	<g>
		<path d="M89.3,373.8c-2.2-11.5-12.3-20.2-24.5-20.2c-13.8,0-24.9,11.2-24.9,24.9c0,13.8,11.2,24.9,24.9,24.9
			c12.1,0,22.2-8.7,24.5-20.2h55c1.4,0,2.7-0.6,3.6-1.7L189,333c12.7,4.3,26.2,6.7,40.4,6.7c14.1,0,27.7-2.4,40.4-6.7l41.1,48.5
			c0.9,1.1,2.2,1.7,3.6,1.7h55c2.2,11.5,12.3,20.2,24.5,20.2c13.8,0,24.9-11.2,24.9-24.9c0-13.8-11.2-24.9-24.9-24.9
			c-12.1,0-22.2,8.7-24.5,20.2h-52.8l-37.5-44.3c43.5-18.7,74.4-61.1,76.4-110.8h13.9c2,11.7,12.2,20.7,24.5,20.7
			c13.8,0,24.9-11.2,24.9-24.9c0-13.8-11.2-24.9-24.9-24.9c-12,0-22,8.5-24.4,19.7h-14c-1.7-49.6-32.1-91.9-75.1-111l37.2-43.9h51.8
			c2.2,11.5,12.3,20.2,24.5,20.2c13.8,0,24.9-11.2,24.9-24.9c0-13.8-11.2-24.9-24.9-24.9c-12.1,0-22.2,8.7-24.5,20.2h-54
			c-1.4,0-2.7,0.6-3.6,1.7l-40.6,48c-13.1-4.6-27.2-7.1-41.8-7.1s-28.7,2.5-41.8,7.1l-40.6-48c-0.9-1.1-2.2-1.7-3.6-1.7h-54
			C87.1,33.3,77,24.6,64.9,24.6C51.1,24.6,40,35.8,40,49.5c0,13.8,11.2,24.9,24.9,24.9c12.1,0,22.2-8.7,24.5-20.2h51.8l37.2,43.9
			c-43,19.1-73.4,61.5-75.1,111h-14c-2.4-11.3-12.4-19.7-24.4-19.7c-13.8,0-24.9,11.2-24.9,24.9c0,13.8,11.2,24.9,24.9,24.9
			c12.3,0,22.5-9,24.5-20.7h13.9c2,49.7,32.9,92.1,76.4,110.8l-37.5,44.3L89.3,373.8L89.3,373.8z M64.9,394
			c-8.5,0-15.5-6.9-15.5-15.5c0-8.5,6.9-15.5,15.5-15.5c8.5,0,15.5,6.9,15.5,15.5S73.4,394,64.9,394z M393.8,363.1
			c8.5,0,15.5,6.9,15.5,15.5c0,8.5-6.9,15.5-15.5,15.5c-8.5,0-15.5-6.9-15.5-15.5C378.4,370,385.3,363.1,393.8,363.1z M393.8,198.9
			c8.5,0,15.5,6.9,15.5,15.5c0,8.5-6.9,15.5-15.5,15.5c-8.5,0-15.5-6.9-15.5-15.5S385.3,198.9,393.8,198.9z M393.8,34
			c8.5,0,15.5,6.9,15.5,15.5c0,8.5-6.9,15.5-15.5,15.5c-8.5,0-15.5-6.9-15.5-15.5C378.4,41,385.3,34,393.8,34z M64.9,65
			c-8.5,0-15.5-6.9-15.5-15.5C49.4,41,56.3,34,64.9,34c8.5,0,15.5,6.9,15.5,15.5C80.3,58,73.4,65,64.9,65z M64.9,229.9
			c-8.5,0-15.5-6.9-15.5-15.5c0-8.5,6.9-15.5,15.5-15.5c8.5,0,15.5,6.9,15.5,15.5S73.4,229.9,64.9,229.9z M112.6,213.5
			c0-64.4,52.4-116.7,116.8-116.7s116.8,52.4,116.8,116.7c0,64.4-52.4,116.7-116.8,116.7C165,330.3,112.6,277.9,112.6,213.5z"/>
		<path d="M394,406.4c-12.5,0-23.5-8.4-26.9-20.2h-52.6c-2.3,0-4.5-1-5.9-2.8l-39.8-46.9c-25.7,8.3-53.2,8.3-78.8,0l-39.8,47
			c-1.4,1.7-3.6,2.8-5.9,2.8H91.6c-3.5,11.8-14.4,20.2-26.8,20.2c-15.4,0-27.9-12.5-27.9-27.9c0-15.4,12.5-27.9,27.9-27.9
			c12.5,0,23.5,8.4,26.9,20.2l49.1-0.2l34-40.2c-42.6-19.9-71.4-62.1-74.4-108.9h-8.6c-3.2,12.1-14.2,20.7-26.9,20.7
			c-15.4,0-27.9-12.5-27.9-27.9c0-15.4,12.5-27.9,27.9-27.9c12.3,0,23.2,8.2,26.7,19.7h8.8c1.3-23.5,9.1-46.1,22.5-65.6
			c12.9-18.7,30.3-33.7,50.7-43.5l-33.8-39.8H91.7C88.3,69,77.4,77.4,64.9,77.4C49.5,77.4,37,64.9,37,49.5s12.5-27.9,27.9-27.9
			c12.4,0,23.4,8.4,26.9,20.4h51.7c2.3,0,4.5,1,5.9,2.8l39.2,46.4c13.1-4.4,26.9-6.6,40.8-6.6c14,0,27.7,2.2,40.8,6.6l39.3-46.4
			c1.4-1.7,3.6-2.8,5.9-2.8h51.7c3.5-11.8,14.4-20.2,26.8-20.2c15.4,0,27.9,12.5,27.9,27.9S409.4,77.6,394,77.6
			c-12.5,0-23.5-8.4-26.9-20.2h-48l-33.8,39.8c20.4,9.8,37.8,24.8,50.7,43.4c13.4,19.5,21.1,42.1,22.5,65.6h8.8
			c3.6-11.5,14.4-19.7,26.7-19.7c15.4,0,27.9,12.5,27.9,27.9s-12.5,27.9-27.9,27.9c-12.8,0-23.7-8.6-26.9-20.7h-8.6
			c-3,46.8-31.8,89-74.4,108.9l34,40.2h49.1c3.5-11.8,14.4-20.2,26.8-20.2c15.4,0,27.9,12.5,27.9,27.9
			C421.9,393.9,409.4,406.4,394,406.4z M270.8,329.5l42.4,50.1c0.4,0.4,0.8,0.6,1.3,0.6H372l0.5,2.4c2,10.3,11,17.8,21.6,17.8
			c12.1,0,21.9-9.8,21.9-21.9c0-12.1-9.8-21.9-21.9-21.9c-10.4,0-19.5,7.5-21.6,17.8l-0.5,2.4h-56.6l-41-48.5l3.7-1.6
			c43.4-18.7,72.7-61.1,74.6-108.2l0.1-2.9H372l0.4,2.5c1.8,10.5,10.9,18.2,21.5,18.2c12.1,0,21.9-9.8,21.9-21.9
			s-9.8-21.9-21.9-21.9c-10.3,0-19.3,7.3-21.5,17.3l-0.5,2.4h-19.3l-0.1-2.9c-0.8-23.4-8.2-46-21.5-65.3c-13-18.9-30.9-33.7-51.8-43
			l-3.7-1.6l40.7-48H372l0.5,2.4c2,10.3,11,17.8,21.6,17.8c12.1,0,21.9-9.8,21.9-21.9s-9.8-21.9-21.9-21.9
			c-10.4,0-19.5,7.5-21.6,17.8L372,48h-56.5c-0.5,0-1,0.2-1.3,0.6l-42,49.6l-2-0.7c-13.1-4.6-26.8-6.9-40.8-6.9
			c-14,0-27.7,2.3-40.8,6.9l-2,0.7l-41.9-49.6c-0.4-0.4-0.8-0.6-1.3-0.6H87.1l-0.5-2.4c-2.1-10.4-11.2-18-21.7-18
			C52.8,27.6,43,37.4,43,49.5s9.8,21.9,21.9,21.9c10.4,0,19.5-7.5,21.6-17.8l0.5-2.4h55.6l40.7,48l-3.7,1.6
			c-20.9,9.3-38.8,24.2-51.8,43.1c-13.3,19.3-20.7,41.9-21.5,65.3l-0.1,2.9H86.9l-0.5-2.4c-2.1-10-11.2-17.3-21.5-17.3
			c-12.1,0-21.9,9.8-21.9,21.9c0,12.1,9.8,21.9,21.9,21.9c10.7,0,19.7-7.7,21.5-18.2l0.4-2.5h19.3l0.1,2.9
			c1.9,47,31.2,89.5,74.6,108.2l3.7,1.6l-41,48.5l-56.8,0.2l-0.5-2.4c-2-10.3-11-17.8-21.6-17.8c-12.1,0-21.9,9.8-21.9,21.9
			c0,12.1,9.8,21.9,21.9,21.9c10.4,0,19.5-7.5,21.6-17.8l0.5-2.4h57.5c0.5,0,1-0.2,1.3-0.6l42.5-50.1l1.9,0.7
			c12.8,4.3,26.1,6.5,39.4,6.5c13.3,0,26.6-2.2,39.4-6.5L270.8,329.5z M393.8,397.1c-10.2,0-18.5-8.3-18.5-18.5
			c0.1-10.2,8.4-18.5,18.5-18.5c10.2,0,18.5,8.3,18.5,18.5S404,397.1,393.8,397.1z M393.8,366.1c-6.8,0-12.4,5.6-12.5,12.5
			c0,6.9,5.6,12.5,12.5,12.5s12.5-5.6,12.5-12.5S400.7,366.1,393.8,366.1z M64.9,397c-10.2,0-18.5-8.3-18.5-18.5S54.7,360,64.9,360
			s18.5,8.3,18.5,18.5S75.1,397,64.9,397z M64.9,366c-6.9,0-12.5,5.6-12.5,12.5S58,391,64.9,391s12.5-5.6,12.5-12.5
			S71.8,366,64.9,366z M229.2,333.2c-31.8,0-61.8-12.4-84.4-35c-22.7-22.6-35.2-52.7-35.2-84.7c0-66,53.7-119.7,119.8-119.7
			c66.1,0,119.8,53.7,119.8,119.7s-53.7,119.7-119.8,119.7C229.3,333.2,229.3,333.2,229.2,333.2z M229.4,99.8
			c-62.7,0-113.8,51-113.8,113.7c0,30.4,11.9,58.9,33.4,80.5c21.5,21.4,50,33.2,80.2,33.2c0.1,0,0.1,0,0.2,0
			c62.8,0,113.8-51,113.8-113.7C343.2,150.8,292.1,99.8,229.4,99.8z M393.8,232.9c-10.2,0-18.5-8.3-18.5-18.5s8.3-18.5,18.5-18.5
			s18.5,8.3,18.5,18.5S404,232.9,393.8,232.9z M393.8,201.9c-6.9,0-12.5,5.6-12.5,12.5s5.6,12.5,12.5,12.5s12.5-5.6,12.5-12.5
			S400.7,201.9,393.8,201.9z M64.9,232.9c-10.2,0-18.5-8.3-18.5-18.5s8.3-18.5,18.5-18.5s18.5,8.3,18.5,18.5S75.1,232.9,64.9,232.9z
			 M64.9,201.9c-6.9,0-12.5,5.6-12.5,12.5s5.6,12.5,12.5,12.5s12.5-5.6,12.5-12.5S71.8,201.9,64.9,201.9z M393.8,68
			c-10.2,0-18.5-8.3-18.5-18.5c0.1-10.2,8.4-18.5,18.5-18.5c10.2,0,18.5,8.3,18.5,18.5S404,68,393.8,68z M393.8,37
			c-6.8,0-12.4,5.6-12.5,12.5c0,6.9,5.6,12.5,12.5,12.5s12.5-5.6,12.5-12.5S400.7,37,393.8,37z M64.9,68c-10.2,0-18.5-8.3-18.5-18.5
			S54.7,31,64.9,31s18.5,8.3,18.5,18.5C83.3,59.7,75,68,64.9,68z M64.9,37c-6.9,0-12.5,5.6-12.5,12.5S58,62,64.9,62
			c6.8,0,12.4-5.6,12.5-12.5C77.4,42.6,71.8,37,64.9,37z"/>
	</g>
</g>
</svg>
