<svg xmlns="http://www.w3.org/2000/svg" width="205.3" height="25.5" viewBox="0 0 205.3 25.5"><path d="M31.7.6,25.6,24.9H18.3L15.8,14,13.4,24.9H6.1L0,.6H7.3L9.7,12.7,12.2.6h7.3l2.4,12.1L24.4.6Z" fill="#dc002e"/><path d="M41.4,0c6.8,0,11.3,5.3,11.3,12.7S48.2,25.5,41.4,25.5,30.1,20.2,30.1,12.7,34.6,0,41.4,0m0,19.4c1.7,0,4.4-1.2,4.4-6.7s-2.7-6.6-4.4-6.6S37,7.3,37,12.7s2.6,6.7,4.4,6.7" fill="#dc002e"/><path d="M146.4.6h12.2a6.5,6.5,0,0,1,6.8,6.9c0,2.5-1,5.2-3.1,6.1,1.7.8,3,3.1,3,6.1.1,1.2,0,3.9,0,5.2h-6.2v-4c0-2.3-.4-4.5-2.9-4.5h-3.4v8.5h-6.4Zm6.4,10.6h3.3c1.2,0,2.9-.2,2.9-2.4s-.8-2.4-3.2-2.4h-3Z" fill="#dc002e"/><path d="M65.4,0c6.8,0,11.3,5.3,11.3,12.7S72.2,25.5,65.4,25.5,54.1,20.2,54.1,12.7,58.7,0,65.4,0m0,19.4c1.8,0,4.5-1.2,4.5-6.7s-2.7-6.6-4.5-6.6S61,7.3,61,12.7s2.7,6.7,4.4,6.7" fill="#dc002e"/><path d="M123.9.6l-6.1,24.3h-7.3L108.1,14l-2.5,10.9H98.3L92.2.6h7.3L102,12.7,104.4.6h7.3l2.5,12.1L116.6.6Z" fill="#dc002e"/><path d="M133.6,0c6.8,0,11.3,5.3,11.3,12.7s-4.5,12.8-11.3,12.8-11.3-5.3-11.3-12.8S126.8,0,133.6,0m0,19.4c1.8,0,4.4-1.2,4.4-6.7s-2.6-6.6-4.4-6.6-4.4,1.2-4.4,6.6,2.7,6.7,4.4,6.7" fill="#dc002e"/><path d="M78.2.6h6.4V18.7h9.2v6.2H78.2Z" fill="#dc002e"/><path d="M172.7,6.8h-5.8V.6H185V6.8h-5.9V24.9h-6.4Z" fill="#dc002e"/><path d="M186.4.6h6.4V9h6V.6h6.4V24.9h-6.4V15.3h-6v9.6h-6.4Z" fill="#dc002e"/></svg>