<svg xmlns="http://www.w3.org/2000/svg" width="940" height="328.3" viewBox="0 0 940 328.3"><path d="M301.9,171.3l2.3-.3c1.8-.1,3.5-.3,5.3-.3a34.9,34.9,0,0,1,5.6,0,11.7,11.7,0,0,1,4.5,1.1l.8.3h.3c.1.1,0,.1,0,.1h0a15.4,15.4,0,0,1,3-1.1,35.3,35.3,0,0,1,7.2-1.4,17.3,17.3,0,0,1,5.7.5l2.8,1.1a8.7,8.7,0,0,0,4,.5c1.2,0,2.3-.2,3.5-.3h1.5a3.4,3.4,0,0,1,3.1,2.6,9.3,9.3,0,0,1-.4,4.9,9.7,9.7,0,0,1-1.1,2.3,12.1,12.1,0,0,1-1.4,2,4.9,4.9,0,0,1-1.6,1h-2a1.4,1.4,0,0,0-1.4,1,3.8,3.8,0,0,0-.1,2.1,19.1,19.1,0,0,0,1.1,4.1l1,2.4a20.8,20.8,0,0,1,1.2,5.5,8.8,8.8,0,0,1-.1,2.8,5,5,0,0,1-1,2.4,12.9,12.9,0,0,1-1.7,1.5,8.4,8.4,0,0,1-2.3,1.2,26.4,26.4,0,0,0-3.8,1.8,4.6,4.6,0,0,0-1.5,1.6l-.2.2c0,.1,0,.2-.1.2h-.2l-1.8.9c-2,1.2-3.5,2.7-3.5,4.3a4.2,4.2,0,0,0,.4,1.5,9.5,9.5,0,0,1,1.2,1.6,4.7,4.7,0,0,1,.7,3.5,8.2,8.2,0,0,1-2.5,4.5,11.6,11.6,0,0,0-2.3,3.3,4.3,4.3,0,0,0-.2,3.5,2.2,2.2,0,0,0,.5.8l.4.6a1,1,0,0,1,0,.9,3.9,3.9,0,0,1-2.4.9,18.3,18.3,0,0,1-3.3.2h-1.6a9.1,9.1,0,0,1,1.7.9,3.9,3.9,0,0,1,2.2,2.4,2,2,0,0,1-.1,1.7,6,6,0,0,1-1.8,2.2,10.2,10.2,0,0,1-4.8,2.2h-2.5l2.1,1.5c.7.7,1.5,1.8.1,2.6a3.4,3.4,0,0,1-1.5.6l-2.5.4a10.2,10.2,0,0,1,3.5.1,3.2,3.2,0,0,1,1.9,1.1,3,3,0,0,1,.4,1,.7.7,0,0,1-.2.6c-.5.4-1.9-.2-1.9.5s.1.5.2.7.5.9.7,1.4.5,1.2.1,1.7a1.4,1.4,0,0,1-1.1.7h-.9a5.9,5.9,0,0,0,1.9,1.4,7.8,7.8,0,0,0,2.3.5l1.4-.2.8-.2c.1-.1.1-.1.1,0a.5.5,0,0,1,.4.2l.4.5a2.4,2.4,0,0,1,.6,1.5,2.3,2.3,0,0,1-1.3,1.5,1.7,1.7,0,0,0-.6.6,2.2,2.2,0,0,0,.3,1.9,6.7,6.7,0,0,0,2.3,2.1,14.6,14.6,0,0,0,4,1.7,20.9,20.9,0,0,0,5.6.5,18.7,18.7,0,0,0,3.4-.3h1c.7.7-.6,1.3-1.4,1.5l-1.8.5a3.9,3.9,0,0,1,.8,1,.5.5,0,0,1-.1.6l-.6.2h-2l-.8-.2h-.6l-.9.2a15.9,15.9,0,0,1-3,.6,22.8,22.8,0,0,1-4.5.4,22.4,22.4,0,0,1-5.2-.6,35.8,35.8,0,0,1-5.8-1.9l-4.6-1.9a9.8,9.8,0,0,1-2.6-1.7,3.5,3.5,0,0,1-1-2.1,1.3,1.3,0,0,0-.1-.6l-2.4.4h-.5c0,.1-.1.1-.2.1v-.2l-.3-.2a2.1,2.1,0,0,1-.7-2.1,1,1,0,0,1,.4-.5c.1-.2.3-.3.3-.5s-.3-.3-.6-.3h-2.1l-.3-.2-1-.8a5.9,5.9,0,0,1-1.8-2.7c-.1-.5-.1-1-.2-1.5a3,3,0,0,0-.6-1.1,13.7,13.7,0,0,0-4.4-3.3l-.5-.2-.5-.5-2.4-2.3-3.3-3.4c-1.2-1.4-2.3-2.7-3.3-4.1a18.1,18.1,0,0,1-2.2-4.1,5,5,0,0,1-.2-3.6c.1-.3.3-.5.4-.8a2.9,2.9,0,0,0,.2-.9,4.6,4.6,0,0,0-.2-2,12,12,0,0,0-2.3-4.1,27.2,27.2,0,0,0-3.7-3.9,26,26,0,0,0-3.6-3l-1.9-1.5h-1.9l-5.7-.3-6.8-.3-4.7-.2h-.8c.3-.4,0-.8-.2-1.1a6.2,6.2,0,0,0-1.6-1,20,20,0,0,0-3.7-.9,21.1,21.1,0,0,1-4.5-1,13.6,13.6,0,0,1-3-1.3,6.1,6.1,0,0,1-1.6-1.2l-.6-.6a1.4,1.4,0,0,0-1.1-.7,11,11,0,0,0-2.6-.2l-2.2.2-1.4.2h-.8l-.7-.4a3.3,3.3,0,0,1-1.4-1.2,2.9,2.9,0,0,1-.5-2,3.5,3.5,0,0,1,.6-1.4l.5-.8c.1-.1.1-.1,0-.1l-1.7-.9-.8-.4a3.2,3.2,0,0,1-1.2-1.4,2,2,0,0,1-.1-1.1,4.6,4.6,0,0,1,.7-1.4c.4-.6.5-1.1,0-1.5s-.8-.5-.6-.8.3-.5.6-.7l1.8-.9a5.9,5.9,0,0,0,1.9-1.4,3.8,3.8,0,0,0,.4-3.4,8,8,0,0,0-1.1-2.5l-.3-.3v-.4a6.4,6.4,0,0,1-.2-.7,3.2,3.2,0,0,0-3.3-2.6,2.4,2.4,0,0,1-2-1,2,2,0,0,1-.4-.8l-.5-.5c-.5-.4-1.4.1-2,.5s-1.6,1.4-1.6,2.2a1.6,1.6,0,0,0,.4,1.3c.1.1.1.2.2.2h0a11.5,11.5,0,0,1-4.1,1.7,2.3,2.3,0,0,1-2.1-.7,9.7,9.7,0,0,1-3.3,1,3.7,3.7,0,0,1-2.5-.6l-.3-.2h-.3l-1.1.2a7.1,7.1,0,0,1-3.3-.1,6.5,6.5,0,0,1-1.5-1,3.7,3.7,0,0,0-1.9-.8h-3.9l-.2-.2-.4-.3a2.4,2.4,0,0,0-1.5-.3,3.1,3.1,0,0,0-1.3.3l-1.8.5-2.6,1.1h-.3l-.8.2-5.5,1h-.7l-2.3-.4h-3.4a8.3,8.3,0,0,0-2.7.7,7.6,7.6,0,0,0-1.9,1.2l-1.4,1.4-.4.4-.2.3v.2h-.1l-.6.2-.9.3-3,.8a76.4,76.4,0,0,1-7.7,1.7l-3.4.3-1.1.2a53.5,53.5,0,0,1-5.5,1.1c-2,.3-4.3.5-5.7-.1a2,2,0,0,1-.7-.6.6.6,0,0,1-.1-.4,3,3,0,0,1,.3-2.4c.2-.3-.1-.4-.4-.6l-1.6-.4a40.1,40.1,0,0,0-5-.8l-3.9-.3h-.6a4.7,4.7,0,0,1-2,.2c-.9-.1-.8-1-.4-1.7a40.2,40.2,0,0,1-6.9.1l-1.8-.4a2.4,2.4,0,0,1-1.1-.9,5.6,5.6,0,0,0-2.2-2.4,3.1,3.1,0,0,0-1.7-.3,5.6,5.6,0,0,0-2.4,1c-1.2.7-1.4,1.4-1.1,2a3,3,0,0,0,2.1,1.4,3.3,3.3,0,0,0,2.6,0,2.9,2.9,0,0,1,2.8.4,7.5,7.5,0,0,1,1.7,1.4h.4a2.7,2.7,0,0,1,1.3.1,7.1,7.1,0,0,1,2.5,1.1l1.7,1.1.5.4.3.2.2.2h.4c1.2.1,2.8.4,2.7,1.4a1,1,0,0,1-.7,1,2.8,2.8,0,0,1-1.5.2l-1.6-.3-.5-.2h-1.1l-2.1.5-1,.3h-.6l-.5-.2c-.3-.3-.2-.7.4-1.1a2.2,2.2,0,0,0,.7-.6.3.3,0,0,0,0-.5c-.2-.4-.7-.5-1.3-.5l-1.1.3-.8.4-2.1.6a11.8,11.8,0,0,1-2.6.2,8.8,8.8,0,0,1-2.4-.3l-.8-.5-.3-.3c-.1-.1-.2-.2-.1-.2l.2-.3c.1-.2.3-.3.5-.5a3.9,3.9,0,0,1,2-.5h.8l.2-.3a.8.8,0,0,0,.1-.8c-.2-.4-.9-.5-1.5-.6h-1.3a2.8,2.8,0,0,1-1.7.7,2.9,2.9,0,0,1-1.4-.4,7.3,7.3,0,0,1-1.6-1.4l-2.2-3c-.1-.2-.6-1.1-1.3-.5s-.4.5-.6.7a5.9,5.9,0,0,1-.4.8,1.4,1.4,0,0,1-.2.7v.2a1.6,1.6,0,0,1-.7,0,1.4,1.4,0,0,1-1-.8c-.1-.1-.1-.3-.2-.4s0-.4-.1-.4h-.5c-.8.3-.2.8-.3,1.1s-.8.7-1.2.9-1.4.1-1.7-.3-.1-.6-.3-.8l-.6-.6-2.1-1.2a32.2,32.2,0,0,1-5.5-3.4,4.6,4.6,0,0,1-1.4-2.2,3.1,3.1,0,0,1,.6-2.5c1.7-2.4,2.4-5,.4-6.1h0l.9-1.1a13.6,13.6,0,0,0,2.3-4.7,12.4,12.4,0,0,0,.6-3.7,16.2,16.2,0,0,0-.1-2.2,3.7,3.7,0,0,0-.1-1.1c0-.2-.1-.4-.1-.6s0-.4-.1-.4h-.9l-1.8.2c-1.6.1-2.9-.1-3.5-.9a2.5,2.5,0,0,1-.4-.7v-.4l.2-.2,2-1.1.4-.3h.3l-.3-.5a19.8,19.8,0,0,0-1.1-2,3.4,3.4,0,0,0-.9-.8,2,2,0,0,0-.9-.6,2,2,0,0,0-1,.2l-.8.5-.9.8c-1.4,1.2-1.6,2.3-1.3,3.2a2.2,2.2,0,0,0,.5.8l.2.4c0,.2-.2.3-.5.5l-1.1.2H68a4.1,4.1,0,0,1-2.2-.9.6.6,0,0,1-.1-.7,3.4,3.4,0,0,1,.9-.8,4,4,0,0,0,.9-2.2,6.5,6.5,0,0,0-.2-2.8,6.2,6.2,0,0,0-1.4-2.5,4,4,0,0,0-2.3-1.6,5.8,5.8,0,0,0-3.4.2,26.4,26.4,0,0,0-4.9,2.2,83.8,83.8,0,0,0-9.5,5.9l-2.1,1.6-1.4.8a102.8,102.8,0,0,0-8.8,5.8,43.1,43.1,0,0,0-4,3.2,5.7,5.7,0,0,0-1.7,2.3,14.2,14.2,0,0,0-.4,2,6.5,6.5,0,0,1-.9,2.4,19.4,19.4,0,0,1-3.2,4,38.3,38.3,0,0,1-2.9,2.8l-.5.5h-.6c-.5-.2-.4-.8-.1-1.4l.7-1.2a1,1,0,0,1,.1-.3c-.2-.1-.8.3-.9.5l-1.7,1.5a15.4,15.4,0,0,0-1.7,1.9l-1,1.5a4.6,4.6,0,0,1-.8,1.3l-1.6,1.7c-2.7,2.9-5.7,5.6-8.5,8.5l-1.4,1.5a4.4,4.4,0,0,1-1.5,1.2c-1.2.5-1-.6-.6-1.2a4.1,4.1,0,0,1,1.6-1.6,14.3,14.3,0,0,0,1.5-1.1,14.8,14.8,0,0,0,2.8-2.8c2.2-2.5,4.1-5.1,5.9-7.6l2.8-3.9a6,6,0,0,0-2.7,1,4.9,4.9,0,0,0-1.9,1.9,9.4,9.4,0,0,1-1.6,2,3.2,3.2,0,0,1-2.5.7H6l.4-.9,1-2.4A12.9,12.9,0,0,1,4.2,185c-2.7.9-1-2.3-.4-3.4s1.6-2.6,2.4-3.8A43.9,43.9,0,0,1,9,174.2a21.8,21.8,0,0,1,4.4-4.1,8.5,8.5,0,0,1,2.5-1.3,12,12,0,0,0,2.4-1.5,14.2,14.2,0,0,0,3.5-4,19.1,19.1,0,0,0,1.5-2.8v-.2l-5.1,3.9L12.1,169h-.9c-.8-.2-1.4-.5-1.4-1.2s2-3,3.5-4.4a36.8,36.8,0,0,1,6-4.7,7.4,7.4,0,0,1,2.4-1.1l1-.2h.8a7.4,7.4,0,0,0,2.9-2.2c.6-.9.8-1.9-.2-2a5.7,5.7,0,0,0-2.4.4,3.8,3.8,0,0,1-1.7.3c-.6-.2.3-1.2.9-1.7l2.4-2.1,3.5-2.5,8.4-6.3,4.1-3.4a18.5,18.5,0,0,0,2.8-2.8,8.1,8.1,0,0,1,1.2-1.4,12.9,12.9,0,0,1,1.7-1.6l5-3.5a84,84,0,0,1,12.8-6.2l3.1-1,3.2-.9a53.4,53.4,0,0,0,8-3.2l4.2-2,4.5-1.8,2.3-.7,2-.7a10.8,10.8,0,0,0,2.6-1.8,4.2,4.2,0,0,0,.8-1.2,6,6,0,0,1,.6-1.1,11.3,11.3,0,0,1,3.9-2.2l3.1-1.6,4.2-2.2L118,96.7a93.1,93.1,0,0,1,11.4-4.5,32.3,32.3,0,0,1,5.1-1.4l2.3-.3h2.8a39.1,39.1,0,0,0,7.2-1.3l2.7-1,2.7-1.2c2.1-.8,4.1-.8,5-.1l2.1-3.1a2.2,2.2,0,0,1,.5-.8,6.5,6.5,0,0,1,1.2-1.1,20.4,20.4,0,0,1,8.3-3.3l3.2-.4a14,14,0,0,0,2.8-.6,26.2,26.2,0,0,0,4.9-1.9,29.1,29.1,0,0,0,3.5-2l1.1-.8.6-.4h0a3.4,3.4,0,0,0,1.5.2,9.8,9.8,0,0,0,4.4-1.3,31.5,31.5,0,0,0,3.3-2.2c1.4-1.1,2.4-2.2,3.9-3.3a17.4,17.4,0,0,1,6.9-3,12.9,12.9,0,0,1,4.8,0l1,.2h.1a1.3,1.3,0,0,1,.4,1,2.9,2.9,0,0,1-.5,1.9,10.9,10.9,0,0,1-3.2,2.6,35,35,0,0,1-7.4,3.1l-2.7.8,3.3-.2H203c.1.1-.1.3-.2.4l-.8,1a41.8,41.8,0,0,1-6.6,4.3c-2.3,1.3-4.6,2.4-7,3.6a42,42,0,0,0-5.2,3.1,12.6,12.6,0,0,0-4.7,5.3,5.3,5.3,0,0,0-.1,3.7,6.7,6.7,0,0,0,.6,1.2l.4.5h1l4.3-.6c4.7-.8,9.5-1.7,14.3-3l1.9-.6.9-.3h.5l.3.2a1.8,1.8,0,0,1,.8,1.8,8.9,8.9,0,0,1-.6,2,4.4,4.4,0,0,1,2.9-.3c.4.2.5.6,0,1a6.7,6.7,0,0,1-1.7.8l-1.3.4a2.3,2.3,0,0,0,1.1,1.1,2.1,2.1,0,0,0,1.6.1,5.6,5.6,0,0,0,2.3-1.4,6.7,6.7,0,0,0,2.2-3.7,9.7,9.7,0,0,0,.2-2.9.6.6,0,0,1-.1-.4.1.1,0,0,1,0-.2h.3l2.6-1a17.9,17.9,0,0,0,3.6-2.1,12.5,12.5,0,0,0,3.2-3.4,12.8,12.8,0,0,0,.9-2.2,1.3,1.3,0,0,1,.1-.6c0-.2.1-.3,0-.4l-.3-.3-1-1.1-.2-.2c-.1,0-.2-.1-.1-.1h.1a12.1,12.1,0,0,0,3.2-2.4,5,5,0,0,0,1.1-2.2,5.5,5.5,0,0,1,.7-2.4,6.6,6.6,0,0,1,.8-1.3.5.5,0,0,1,.4-.2l2.5-.5a33.1,33.1,0,0,0,4.2-1.2l2-.9a4,4,0,0,1,1.9-.7,2.8,2.8,0,0,1,1.4.2l1.4.4a10.9,10.9,0,0,0,3.7.3l2-.3c.5.1.7.4.6.7s-.7,2.3,1.1,2.7a10.6,10.6,0,0,0,3.9-.2,12.9,12.9,0,0,0,3.6-1.4,9.8,9.8,0,0,0,2.4-2,3.6,3.6,0,0,0,.7-1c.3-.3.4-.6.9-.9a3.3,3.3,0,0,1,1.7-.2l.6.2.6.3a12,12,0,0,1,2.5,1.6,4.6,4.6,0,0,1,1.6,2.1,5.3,5.3,0,0,0,.3,1.2,2.9,2.9,0,0,0,.8.7,6.6,6.6,0,0,0,2.6.6h3.2a2.6,2.6,0,0,1,1.5.5,1.3,1.3,0,0,0,.7.5l1.7-.2,1.1-.3c1.2-.1,1.2.8,1.2,1.2a5.3,5.3,0,0,1-1,2.9l-1,1.5a8.1,8.1,0,0,1-1.3,1.1l-.6.3-1,.3c-.6.3-.2.6.2.8a7.2,7.2,0,0,0,2.6.2,12.1,12.1,0,0,0,3.8-.6h.5l.6.2a5.3,5.3,0,0,1,1.5.8,1.8,1.8,0,0,1,.7,1.6,4,4,0,0,1-1.7,2.4l-1.6,1.1a3.3,3.3,0,0,1-1.2.5,2.2,2.2,0,0,1-1.5-.2,1.3,1.3,0,0,0-1.2-.3l-.7.4-.8.6a7.5,7.5,0,0,1-2,.9,5.9,5.9,0,0,1-2.6.2,1.2,1.2,0,0,1-1.1-.4c-.1-.2.1-.6-.2-.7s-1.4.1-2,.3l-2.7.7-.6.2c-.7.2-1.3,0-1.1-.3a4.2,4.2,0,0,1,.7-1.3,11.5,11.5,0,0,1,1.4-1.7,36.7,36.7,0,0,1,5.8-5c.1-.1.1-.1.1-.2h-.2a1.8,1.8,0,0,0-1.4.1,5.8,5.8,0,0,0-1.7.6l-1.1.5h-.2l-1.5,1.1-1.6,1.3h-.7L256.3,84l-3.5,1,2.3.3,1.3.3h.3c.1.1-.1.3-.2.4a2.3,2.3,0,0,1-1.1.7,8.6,8.6,0,0,1-2.7.3h-5.5l-1.3.3-1.5.4a4,4,0,0,0-1.3.4c-.5.3-.6.7-.3.8a.8.8,0,0,0,.6.2l1-.3c1.5-.4,3.5-.9,4-.1s.1,2-.6,3.1-.3.4-.3.6.3.3.6.4l1.5.2a11,11,0,0,0,5.2-1.2l2.2-1.2.6-.5,1.1-.4a1.9,1.9,0,0,1,1.2.4c.2.2.4.3.5.5a1,1,0,0,1-.2,1.4,10.2,10.2,0,0,1-3.6,1.9l-3.1,1.1-2.7,1.1c-1.3.6-2.6,1.2-3.8,1.9a10.9,10.9,0,0,0-2.7,2.4h-.1a34.2,34.2,0,0,0-4.4.4,21.4,21.4,0,0,0-8,3,8.4,8.4,0,0,0-2.9,3.1,9,9,0,0,0-.8,2.1c0,.1-.1.2-.1.3a18.8,18.8,0,0,1-6.5,4.7,28.7,28.7,0,0,1-3.7,1.5l-2.3,1a11.1,11.1,0,0,0-2.8,2.3,9.6,9.6,0,0,0-2.3,5.5,14.6,14.6,0,0,0,.1,4.2,4.3,4.3,0,0,0,.1.5c0,.1.1.1,0,.2h-.2l-.7.5c-1.8,1.2-3.6,2.6-5.3,3.9a52.2,52.2,0,0,0-6.4,5.8c-1.6,1.9-3.1,4-3.2,5.8a3,3,0,0,0,.8,2.2l1.6,1a15.7,15.7,0,0,1,1.9,1.5c1.2,1.3,2.1,2.9,1.2,4.7a3.4,3.4,0,0,1-.7,1.1h-.3a5.2,5.2,0,0,1-2.8-.1,12.4,12.4,0,0,1-2.3-1.2,16.8,16.8,0,0,1-2.7-2.6l-.7-.9a5.3,5.3,0,0,0-.6-1l-.4-.3a3.2,3.2,0,0,0-2.6-.2,4.6,4.6,0,0,0-1.7,1.2,10.1,10.1,0,0,1-1.7,1.9,2.4,2.4,0,0,1-1.4.5,2.1,2.1,0,0,1-1.2-.3l-.7-.6-.2-.2h-.1l-.5.2-1.2.3-3.3,1.4a6.8,6.8,0,0,0-2.6,1.9c-.5.9.1,1.7.8,2.2a12.6,12.6,0,0,0-2.7.4,28.8,28.8,0,0,0-6.3,2,28.2,28.2,0,0,0-7.4,4.6,22.7,22.7,0,0,0-4.6,5.6,5.1,5.1,0,0,0-.6,3.1,1.1,1.1,0,0,0,.3.7l.3.3h0a1.4,1.4,0,0,0-.2.6,8.4,8.4,0,0,0-.5,2,6.4,6.4,0,0,0,.2,2.8,5.3,5.3,0,0,0,1.6,2.8,8.6,8.6,0,0,0,3.9,2.1,26.5,26.5,0,0,0,7.1.6l.6-.2.9-.4,2.8-1.5a24.9,24.9,0,0,0,3.1-2.3,7.8,7.8,0,0,0,2.3-2.6,3.3,3.3,0,0,0,0-2.9l-.5-.7-.2-.2h0l.3-.2.7-.4,4.2-2.4,3.9-2.2.6-.3a6.5,6.5,0,0,1,.9,2.3,13.4,13.4,0,0,1,.3,6,16.2,16.2,0,0,1-1.6,4.3l3.5-1.7c2.3-1,4.6-1.9,7-2.7l2.9-.8a3.4,3.4,0,0,1,1.8.1,3.4,3.4,0,0,1,.9,1.5,18.9,18.9,0,0,1,.5,2.3c.2,1.2.2,2.5.3,3.7s-.1.2,0,.3.3.4.5.6a9.3,9.3,0,0,0,2,.7,35.9,35.9,0,0,0,4.7.3,3.3,3.3,0,0,0,1.4-.1,8.6,8.6,0,0,0,2.3-1.3l1.7-1.6c.5-.5.9-1,1.5-1.5a4.8,4.8,0,0,1,2.8-1,6.8,6.8,0,0,1,4,1h.2a2.4,2.4,0,0,0,.9-.8,5.8,5.8,0,0,0,1.1-2.8v-1.7c0-.1-.1-.2,0-.3h.2l.6-.3c1.3-.8,2.5-1.7,3.7-2.6a16.2,16.2,0,0,0,3.7-3.7l.4-.3.5-.2,1.6-.4c.5,0,.9.1,1,.4a1.2,1.2,0,0,1-.1.8c0,.2-.1.4,0,.6s1.7-.8,1.9-1,.1-.3.2-.5a5.9,5.9,0,0,1,.2-1.3v-.6s0-.2.1-.2h.2l.6-.2a8.8,8.8,0,0,1,3.8-.7l.8.3.6.6a3.7,3.7,0,0,0,1.4.8,7.1,7.1,0,0,0,4.4-1l2.4-1.5,2-1.1a26.4,26.4,0,0,1,4.7-1.7,14.7,14.7,0,0,1,4.5-.8,3.2,3.2,0,0,1,2.7,1,3.9,3.9,0,0,1,.2,1.5,2.3,2.3,0,0,0,.6,1.2c1.1.8,3.5,0,5-.7l.4-.2c0,.3.3.6.5.8a6.2,6.2,0,0,0,3.4,1.3h3.7l2.6-.3a19,19,0,0,0,3.6-1.2,11.1,11.1,0,0,1,3.1-.9,10.6,10.6,0,0,1,4.5.5,31,31,0,0,1,6.1,2.4,9.8,9.8,0,0,1,2.9,2.3,2.3,2.3,0,0,1,.7,1.5,1.3,1.3,0,0,1-.3.8Z" fill="#d7e0ee"></path><path d="M140.6,83a5.9,5.9,0,0,1-2.4,2.8,17.9,17.9,0,0,1-5.1,2.2,18.2,18.2,0,0,1-2.9.8,4,4,0,0,1-2.1.2c-.4-.1-.3-.6.3-1l1.2-.9c1.2-.8,2.2-1.7,3.2-2.5l4-3.8a2.9,2.9,0,0,1,1-.8l.5-.3,1.7-.8c1.4-.6,2.9-1.3,4.4-1.8a11.5,11.5,0,0,1,3.9-.7,4.5,4.5,0,0,0,2.5-.3l1-.5.9-.6a3.3,3.3,0,0,1,1.3-.4h2.1a27.4,27.4,0,0,0,5.5-1.3,58.9,58.9,0,0,0,5.9-2.1,18.3,18.3,0,0,0,2.8-1.4c.3-.2.5-.3.6-.5l.8-.6,3.1-1.8a40.9,40.9,0,0,1,4.2-2c.7-.3,2.2-.9,2.8-.7s-.2.6-.5.9L179,66.8a13.6,13.6,0,0,0-2.5,2.2l-.7,1.1c-.1.4-.3.9.1,1.1h.9L178,71a8.3,8.3,0,0,1,2.2-.3c.6,0,1.2.1,1.3.4s0,.5-.3.8a10.6,10.6,0,0,1-2.8,2,37.1,37.1,0,0,1-4,1.9L170.9,77l-2.7.5-3.4,1-5.2,2.3a31.2,31.2,0,0,0-4.8,2.6l-1.4,1.1a11.4,11.4,0,0,1-2.6.9c-1.9.6-3.8,1.1-5.6,1.8l-1.9.8a2.5,2.5,0,0,1-1.2.2h-1.2a1.2,1.2,0,0,1-.8-.5,1.9,1.9,0,0,1-.4-1.8,19.4,19.4,0,0,1,.5-2A3.6,3.6,0,0,1,140.6,83Z" fill="#d7e0ee"></path><path d="M153.6,72.1a5.5,5.5,0,0,0-1.8.6l-1.9.7-1.9.5a1.3,1.3,0,0,1-1.1-.1c-.2-.2.8-.7,1.2-.9l3.2-1.4c.9-.5,2-1,2.7-1.5s.2-.4.4-.6l.9-.6a29.6,29.6,0,0,1,3.1-1.5l4.1-1.6,3.8-1.5,1.4-.8,1.2-.4a6.6,6.6,0,0,1,2.3-.4,1.8,1.8,0,0,1,1.9,1.1,1.1,1.1,0,0,0,.5.4,1.9,1.9,0,0,0,1-.1,4.7,4.7,0,0,0,1.4-.8,1.7,1.7,0,0,0,.7-1.4.7.7,0,0,0-.4-.9c-.4-.1-1,.1-1.4,0s-.2-.5.1-.8l1.8-1.5a33.8,33.8,0,0,1,8.8-4l1.3-.3h.6c.4,0,.9,0,1.1.2s0,.5-.3.8a20.1,20.1,0,0,1-2.9,1.7l-1.3.7-1.4.6c-.3.2-.5.4-.5.6s0,.5.3.6a8.1,8.1,0,0,0,2.7,0l4.4-.8c.3,0,.9-.2,1.1-.1s-.1.3-.3.4l-1.5.7-2.3.9-6.2,2.5c-2.1.8-4.3,1.7-6.3,2.7A17.8,17.8,0,0,0,170,68c-1.6,1.2-4.3,1.9-6.5,2.5a72.8,72.8,0,0,1-7.7,1.3Z" fill="#d7e0ee"></path><path d="M199.8,51.6c-1.5.3-2.6-.1-2.5-.8s1.3-1.5,2.7-2a22.3,22.3,0,0,1,6-1.3l1.9-.2h.5a.2.2,0,0,1-.2.2l-.2.3c-.1.5,1.1.6,1.7.7s1,.3.3.6a11.2,11.2,0,0,1-2.6.8l-3.7.7-2.9.7Z" fill="#d7e0ee"></path><path d="M191.8,53.8c-1,.4-.2.8-.1,1.1a1.2,1.2,0,0,1,0,1.3l-.7.8-1.2.7c-.3.2-.7.4-.4.5h1.3l2.2-.4,4.9-1.1.8-.2a1.6,1.6,0,0,0,1-.5,13.6,13.6,0,0,1,2.4-1.3,21.1,21.1,0,0,1,4.3-1.2l2.3-.5c.6-.1,1.2-.2,1.4-.5s-.3-.4-.7-.5l-1.6-.4-1.1-.5c-.1-.1-.2-.3-.4-.4a3.6,3.6,0,0,0-1.7.2c-.9.2-1.8.6-2.7.9L199,53l-1.2.6-1.2.5a.8.8,0,0,1-1-.2c0-.1-.2-.3-.3-.4a2.1,2.1,0,0,0-1.8-.2Z" fill="#d7e0ee"></path><path d="M184.3,64.7l3.6-1.5,2.2-1.3,1.1-.7a3.9,3.9,0,0,1,1-.8,10.2,10.2,0,0,1,2.1-1l1.9-.7a10.9,10.9,0,0,1,3.4-.7c1,.1.7.8.2,1.4a10.6,10.6,0,0,1-3,2.2l-3.6,2.1a5.2,5.2,0,0,0-1.8,1.3,1,1,0,0,1-.6.5,6.5,6.5,0,0,1-3.3.3,25.3,25.3,0,0,1-3.4-.7C183.9,65,183.9,64.8,184.3,64.7Z" fill="#d7e0ee"></path><path d="M185.5,70.6c0-.5.6-1.2,1.6-1.7a9.4,9.4,0,0,1,3.7-1.1c.9-.1,1.6,0,1.7.4s-.1,1-.6,1.6a10.4,10.4,0,0,1-1.9,1.3,6.2,6.2,0,0,1-3.7.4,3.2,3.2,0,0,1-1.4-.3c-.1,0-.4-.1-.3-.3l.8-.3Z" fill="#d7e0ee"></path><path d="M192.4,67.1c-.2-.3,0-.7.2-1.1a10.6,10.6,0,0,1,3.4-3.2l4.2-2.4c.4-.2.9-.3.9-.6a.4.4,0,0,0,.1-.3,2.5,2.5,0,0,1,.4-.7,9.1,9.1,0,0,1,2.4-2.4l1.9-1.2,2.2-.9a45.8,45.8,0,0,1,4.9-1.5l2.3-.5.9-.2q.3.1.3.3c-.1.2-.4.3-.6.5l-.8.4-1.8.9-3.9,2.2-3.5,2.1a15.8,15.8,0,0,0-2.7,2c-.7.7-1.1,1.5-.9,2s.1.3-.1.4-.4.3-.6.4l-1.5.7a14,14,0,0,0-3.4,2.1,4,4,0,0,0-1.3,1.3,3.5,3.5,0,0,1-.9.7c-1.2.7-1.9-.5-2.1-.8Z" fill="#d7e0ee"></path><path d="M217.9,72l2.1-.9c.8-.2,2.2-.7,2.5-.2s-.3.8-.6,1.2a4.1,4.1,0,0,1-1.7,1.4,1.7,1.7,0,0,1-1.6,0c-.2-.2-.2-.5-.3-.7A3,3,0,0,1,217.9,72Z" fill="#d7e0ee"></path><path d="M208.8,74.6a18.9,18.9,0,0,1,5.9-2.7c.2-.1,1.7-.6,1.8-.3s-.6.5-.9.7l-1.6,1c-.2.2-.8.6-.6.8s.9-.1.8.1a2.6,2.6,0,0,1-1.2.5c-1.5.4-3.4.7-4.1.1A.3.3,0,0,1,208.8,74.6Z" fill="#d7e0ee"></path><path d="M204.1,74h2.7a3.9,3.9,0,0,0,2.3-.5,17.1,17.1,0,0,0,3.7-2.5l1.2-.7.6-.2c.3,0,.3.2.3.4s.4.4.9.4a7.6,7.6,0,0,0,2.5-.6,8.5,8.5,0,0,0,2.2-.9l1.7-.8c.4-.3.8-.6.5-.9a3.7,3.7,0,0,0-1.6-.2,25.3,25.3,0,0,0-4.7.3l-3.6.2h-2.4c-.2.1-.3.3-.4.4l-.6.8a14.1,14.1,0,0,1-4.6,3.9l-.8.4C203.8,73.8,203.8,74,204.1,74Z" fill="#d7e0ee"></path><path d="M212.1,64.5c0-.2.2-.5.7-.8l1.3-.7a17.8,17.8,0,0,0,2.7-1.7c.6-.4,1.3-1,1.2-1.4s-1.6-.5-2.5-.4-3.2.6-4.8.7a3.2,3.2,0,0,1-1.8-.2c-.7-.6.7-1.8,1.6-2.6a49.3,49.3,0,0,1,6.1-3.8,70,70,0,0,1,7.3-3.3c1.2-.5,2.6-.8,3.9-1.3l5.8-1.7c3.6-1.1,7.2-2.2,10.9-3a15.9,15.9,0,0,1,3.7-.6,7.2,7.2,0,0,1,3.6.7l.6.4a.6.6,0,0,0,.5.3,4.4,4.4,0,0,0,1.6-.2l3-.8a19.5,19.5,0,0,1,6.6-.6,2.9,2.9,0,0,1,2,1.1c.1.1.1.3.2.5s.1.4-.1.6-1.8.7-2.1,1.2.1.5.7.5h9.7c.6,0,1.4-.1,1.6.3s-.3.6-.6.8l-1,1a17.1,17.1,0,0,1-3.3,2.1,8.7,8.7,0,0,1-2.4,1l-1.4.5-1.3.2-.6-.3-.7-.2-1.7-.5a7.7,7.7,0,0,0-2.1.1,2.3,2.3,0,0,0-1.3.6c-.5.5.2,1,.6,1.4a11.6,11.6,0,0,0,2.2,1.3l1,.4c.2.1.4.2.4.4a.8.8,0,0,0-.2.4,3.6,3.6,0,0,1-2.3,1.7,5.4,5.4,0,0,1-2.5.2,8.3,8.3,0,0,0-2.7.1,5.8,5.8,0,0,0-1.8.4c-.8.3-.9.7-.4,1a8.8,8.8,0,0,0,3.1.8,11.1,11.1,0,0,0,2.6.1h1.4c.4.1.2.3-.2.5a18.2,18.2,0,0,1-2.5.7,26.7,26.7,0,0,1-7.8.6l-.9-.2-1-.2-1.4.4a6.2,6.2,0,0,1-2.3.2,4.9,4.9,0,0,1-2.6-1.3,1.4,1.4,0,0,0-1-.6h-1.3a14.4,14.4,0,0,0-3.7,1,40.9,40.9,0,0,0-4.2,2l-3.7,2.1-1,.5h-.9c-.2-.2-.1-.4.1-.6a2.7,2.7,0,0,1,.7-.8l1.5-1.5a7.8,7.8,0,0,1,1.8-1.1,37.9,37.9,0,0,1,4.5-2l3.9-1.3.8-.2a1.7,1.7,0,0,0,.6-.6,2,2,0,0,1,.1-.7,3.8,3.8,0,0,1,1.8-.8,7.5,7.5,0,0,0,1.8-.8l.5-.6c.2-.3.2-.5.6-.7l1-.4a.5.5,0,0,0,.3-.4c.1-.3-.3-.5-1-.4l-2.2.7L240.2,56l-3.1,1.4-.7.4c-.9.3-1.7.1-1.5-.3s1.7-1.9,2.7-2.8,1.5-1.5.8-1.9l-.8-.2a2.3,2.3,0,0,0-1.1.2,1.8,1.8,0,0,0-.7.5,10.9,10.9,0,0,0-2.4,2.4,1.6,1.6,0,0,0-.3,1.7c.1.1,0,.1-.2.1s-.5-.2-.7-.3.1-1-.6-1.3a3.9,3.9,0,0,0-2.3-.3c-1.6.3-1.9,1.3-1.9,1.8s.1.4,0,.5a.9.9,0,0,1-.6.4l-1.3.7c-.3.2-.5.3-.6.5s.1.3.3.5.6.6.1,1l-2.4,1.5-5.6,3a15.7,15.7,0,0,1-2.3.9C212.5,66.9,212,65.4,212.1,64.5Z" fill="#d7e0ee"></path><path d="M253.4,89.7c.1-.3.7-.7,1.3-1a5.9,5.9,0,0,1,2.2-.5c.3-.1.5,0,.5.1s-.3.5-.5.6l-1,.8-1.1.8-.8.4h-.6C253,90.5,252.8,90.2,253.4,89.7Z" fill="#d7e0ee"></path><path d="M213,43.7a2.9,2.9,0,0,1,1.4-1.2,3,3,0,0,1,2.1,0c.6.1,1.3.3,1.5.7s-.9.8-1.7,1a5.1,5.1,0,0,1-1.7.3l-1,.2a1.5,1.5,0,0,1-.7-.3C212.7,44.3,212.1,43.9,213,43.7Z" fill="#d7e0ee"></path><path d="M209,50l1.6-.5,1.1-.5.5-.4.3-.4c.8-.6,2.5,0,3,.1l.5.3a.6.6,0,0,1,.1.4c-.3,1-3,1.2-4.1,1.2h-2.6C209.2,50.1,209,50.1,209,50Z" fill="#d7e0ee"></path><path d="M211.5,47.1c-.3-.4.1-.9,1-1.4l1.6-.5,1.2-.3h.6l.8-.2h1.7l1.1-.3,1.1-.4a1.9,1.9,0,0,1,1-.1c.5.3.3.8.1,1.2s-.1.2-.1.3a.1.1,0,0,1-.1.1c0,.1-.3.2-.4.2l-3.1.9a9.7,9.7,0,0,1-3.6.6h-2.9Z" fill="#d7e0ee"></path><path d="M215.3,50.9l1.7-1.5a2.4,2.4,0,0,0,.8-1c0-.2-.1-.3-.1-.4a1.5,1.5,0,0,1,.5-.7l1.2-.5,1.6-.4,1.6-.4a7.6,7.6,0,0,1,1.5-.1,1.5,1.5,0,0,1,.8.2c.1.1.1.3.2.4a2.7,2.7,0,0,0,1.6.1,12.4,12.4,0,0,0,2.9-1l4-1.7c3-1,6.1-1.8,9.2-2.5l1.7-.3,1.3-.2c.6,0,1,.1,1.1.4s-1.6,1.3-2.7,1.7-3.1,1-4.6,1.5l-4.3,1.4-9.2,2.9c-2.5.8-5,1.6-7.5,2.2a8.6,8.6,0,0,1-2.1.4H216s-.6-.5-.8-.5A.1.1,0,0,0,215.3,50.9Z" fill="#d7e0ee"></path><path d="M224.5,44.3c-.1.1.2.3.4.4l.5.3a4.4,4.4,0,0,0,2.6.1,28.5,28.5,0,0,0,5.9-1.6l4.8-1.9a41.3,41.3,0,0,1,4.2-1.4,17.6,17.6,0,0,1,5-.9l1.2.2h.4c.2.1.5,0,.8,0l.5-.4a42.5,42.5,0,0,1,4.7-3.1,25.6,25.6,0,0,1,6.7-2.9c1.3-.3,2.6-.3,3.8-.6a10,10,0,0,0,2.5-1,3.5,3.5,0,0,0,1-1.2c0-.1.1-.3.1-.4s-.1-.4.1-.5a2,2,0,0,1,.8-.4l1.4-.5,4.6-1.5,9.7-3.3,1.7-.5,3.7-.8,5.7-1.5c1.8-.5,3.6-1,5.2-1.6s2.3-1,2.4-1.6-.3-.5-.9-.5l-2.8.2-4.3.6-11.1,2.3-11.6,2.8-8.8,2.3-2.3.7-1.7.4-5,1.2-5,1.6a5.9,5.9,0,0,0-1.4.6c-.2.2-.1.3.1.4s-1.8,1-2.4,1.2-4.4,1-6.6,1.5l-2.7.6a1.5,1.5,0,0,0-.8.4c-.1.2.1.2.2.3s-.5.7-1.1.7a19.8,19.8,0,0,0-4,.7l-3.4,1.3-5.5,2.3a12.2,12.2,0,0,0-3.6,2.1c-.8.9.4,1.2,1.6,1.4l1.4.2h1.1c.3,0,.5.1.5.2A3.8,3.8,0,0,1,224.5,44.3Z" fill="#d7e0ee"></path><path d="M288.5,24a92.1,92.1,0,0,0,9.4-2.2,42.3,42.3,0,0,0,5.7-2l2.1-1.2a7,7,0,0,1,1-.8l1.6-.8,2-.5,2-.2,3.4-.9,5.1-1.1c4.1-.8,8.3-1.5,12.3-2.4l2.2-.6,1.4-.5.4-.3.6-.2a43.7,43.7,0,0,1,5.2-1.2l8.7-1.6,10.8-1.6,11.2-1.5,10.5-1.1,8-.7h4.3l.6.2a9.7,9.7,0,0,0,3.6.4l3.1-.4,3.3-.4,6.8-.5h2.7a4.4,4.4,0,0,1,1.7.2c1.9.5-2.9,1.5-3.7,1.7-3.2.7-6.5,1.3-9.5,2.2a14.2,14.2,0,0,0-3,1.3,1,1,0,0,0-.4.7,2.8,2.8,0,0,1,.1.9,5.4,5.4,0,0,1-.3,1l-.7.9a4.7,4.7,0,0,0-.6.9,1,1,0,0,0,.3,1c.2.1.6.3.3.5a5.5,5.5,0,0,1-2.4.9c-1,.3-2,.4-3,.6l-2.9.4a5.4,5.4,0,0,0-1.5.4c-.1.1,0,.2,0,.3a.9.9,0,0,1,.1.5c0,.4-.2.8-.9,1.2l-1.6.5a4,4,0,0,0-1.3.7,1.4,1.4,0,0,0-.8,1.2c-.1.8,0,1.6-.9,2.3a8.2,8.2,0,0,1-2.3,1.1l-2.5.9a61.8,61.8,0,0,1-6.5,2.1,79.2,79.2,0,0,1-16.5,3.5l-2,.4a4.9,4.9,0,0,0-1.7.6,11.2,11.2,0,0,0-1.6,1,11.9,11.9,0,0,1-2.9,1.8,60,60,0,0,1-13,3.8l-2.1.5-1.6.7-.4.4-1.3,1-5,4-5.3,4.4-2.4,2a5.7,5.7,0,0,1-3.7,1.4,4.2,4.2,0,0,1-1.6-.1,4.1,4.1,0,0,0-1.6-.3h-2l-1.3.3c-1.7.3-3.5.5-4.6,0a2,2,0,0,1-1.3-1.2l-1-1.5c-.9-1-1.9-1.9-3-2.9L296.8,45l-1.3-1c-.6-.5-.4-1.1,0-1.7a5.2,5.2,0,0,1,1.4-1.6,9.8,9.8,0,0,1,2.5-1.6l1.3-.5.7-.5a1.8,1.8,0,0,0,.1-2.4l-.9-1.2c-.3-.3-.8-.6-1-1s-.1-1.1-.2-1.7a2.4,2.4,0,0,0-.5-1.4c-.7-1.1-2.5-1.8-5.2-1.7a29.9,29.9,0,0,0-5.8.8l-4,1.2-4.1,1.1a50.5,50.5,0,0,1-5.6,1.2,13.4,13.4,0,0,1-2.8.1c-.9-.1-1.2-.6-1-1.1a2.5,2.5,0,0,1,.4-.7,12.1,12.1,0,0,1,4.5-2.9,33.9,33.9,0,0,1,5.1-2.1l3.6-1.1,2.1-.6Z" fill="#d7e0ee"></path><path d="M383,28.9a1.6,1.6,0,0,0,1.4.3c.5-.1.5-.4.7-.6l1.1-.2,4.3-.5a19.3,19.3,0,0,0,4.3-.8l.5-.3.3-.2a1.4,1.4,0,0,1,.9-.3,10,10,0,0,1,3-.1,17.6,17.6,0,0,1,3.4.4,5,5,0,0,1,2.2.9c.4.5.1.9-.6,1.4a26.7,26.7,0,0,1-4.1,1.7l-5,1.5-4.3,1-1.5.4a2.7,2.7,0,0,1-.9,0h-.5a21,21,0,0,0-3.6-.3l-2.9.2H380l-.9.2h-.8c-.5,0-.5-.1-.6-.3s-.1-.2-.3-.2a5.3,5.3,0,0,0-2.2-.1,3.2,3.2,0,0,1-1.4-.1.8.8,0,0,1-.7-.4,1.4,1.4,0,0,1,0-1.4,4.8,4.8,0,0,1,1.6-1.6,8.5,8.5,0,0,1,2.7-1h1.8l2.5.2H383Z" fill="#d7e0ee"></path><path d="M188.1,167a2,2,0,0,0,1.3-.6l.4-.4,1.2-1a18.1,18.1,0,0,1,4.1-2.3,20.6,20.6,0,0,1,6.6-1.4,30.1,30.1,0,0,1,5.2,0,4.7,4.7,0,0,1,1.9.6,1.2,1.2,0,0,0,.7.2l1-.2,2.2-.7a31.3,31.3,0,0,0,5.1-1.9l1.8-1.1c.2-.2.4-.5.3-.7s-1.5-.5-2.3-.5l-3.5.2-3.9.4-7,.6h-1.4l-2.1.3a25.5,25.5,0,0,0-9.3,4.7l-2.3,1.8a5.3,5.3,0,0,0-1,1.2c-.2.3-.2.7.3.8Z" fill="#d7e0ee"></path><path d="M209.6,165.9a.4.4,0,0,1-.3-.6,2.2,2.2,0,0,1,.7-.6l1.7-.8a5.7,5.7,0,0,1,4.2-.3c.3.1.6.3.5.6a1.7,1.7,0,0,1-.8.6,17.5,17.5,0,0,1-3.2,1.2,4.4,4.4,0,0,1-1.9.3Z" fill="#d7e0ee"></path><path d="M199.6,167.8a.4.4,0,0,1-.2-.5,1.7,1.7,0,0,1,.6-.6l.9-.4.9.2c.3.3-.3.9-.8,1.2l-.8.2Z" fill="#d7e0ee"></path><path d="M204.6,153.8c-.3-.1-.2-.4-.1-.6a1.4,1.4,0,0,1,.2-.6,2.1,2.1,0,0,1,1.7-.8c.5,0,1.6.2,1.8-.4s.3,0,.4.1l.4.3c.6.4,1.3,1,1.3,1.7s0,.5-.4.8a4.8,4.8,0,0,1-2,.4A5.4,5.4,0,0,1,204.6,153.8Z" fill="#d7e0ee"></path><path d="M219.8,155.5c-.2-.3.5-.6.9-.8l.5-.6.3-.4a2.8,2.8,0,0,1,2-.3c.3,0,.5.1.5.3s-.3.5-.6.7l-1.1.9-.2.2a.5.5,0,0,1-.5.3,1.7,1.7,0,0,1-1,.3A.8.8,0,0,1,219.8,155.5Z" fill="#d7e0ee"></path><path d="M201.9,150.6a7.8,7.8,0,0,1,3-2.2,5.8,5.8,0,0,1,2.8-.5,1.2,1.2,0,0,1,1,1,.6.6,0,0,1,.1.4c-.1.1,0,.2-.1.2l-.4.2h-.8a1.9,1.9,0,0,1-.9-.3.6.6,0,0,0-.6-.4,3.3,3.3,0,0,0-1.6.7l-.8.6-.3.3h-.1c-.1.1-.5,0-.6-.1Z" fill="#d7e0ee"></path><path d="M210.1,150a7.5,7.5,0,0,1,3.9-.2l.9.2,1.1-.2,1-.2c.3,0,.3.1.4.3a1.3,1.3,0,0,1,.1.9l-.6.5-.8.4c-.8.5.8.8,1.3.8a3.6,3.6,0,0,0,1.4-.2c.4-.2.6-.4,1-.3s.5.8.1,1.2-2.4.6-3.3.5a10.1,10.1,0,0,1-1.7-.3,3.5,3.5,0,0,0-1.2-.3,2.9,2.9,0,0,1-2.3-.8c0-.1-.1-.2-.1-.4a.4.4,0,0,0-.1-.3l-.9-.2-.7-.3c-.2-.2-.4-.4-.3-.6A.9.9,0,0,1,210.1,150Z" fill="#d7e0ee"></path><path d="M221.4,152c-.3,0-.3-.4.2-.5a.9.9,0,0,1,.7-.1h.8c.5-.1.7.3.3.5a2.1,2.1,0,0,1-1.2.4Z" fill="#d7e0ee"></path><path d="M224.1,152.3c-.2-.1,0-.3.1-.4l1.1-.4,1.1-.3c.8-.1.6.5.2.8a4.2,4.2,0,0,1-2.2.5C224.2,152.5,223.9,152.4,224.1,152.3Z" fill="#d7e0ee"></path><path d="M219.5,161.4c0-.2-.2-.3-.2-.5s.1-.3.3-.5l1.2-.6a7.6,7.6,0,0,0,1.6-.6c.9-.5,1-1.3-.1-1.3s-.6-.4-.5-.8a1.3,1.3,0,0,1,.7-.5l.7-.2,1.9-1a11.4,11.4,0,0,1,5.6-1.7h7.1c.4,0,.9.2.8.5l-.6.6a2.7,2.7,0,0,1-.8.7l-1.4.5-1.8.3a2.6,2.6,0,0,0-1,.7l-.3.3-.7.4c-.8.4-1.6.8-1.7,1.4s0,.4-.4.7l-1.1.2h-1.7a7.7,7.7,0,0,0-2.9,1l-1.2.7a5.5,5.5,0,0,1-.8.6,4,4,0,0,1-2.4.1C219.5,161.9,219.4,161.7,219.5,161.4Z" fill="#d7e0ee"></path><path d="M240.8,153.9c-.6,0-.9-.3-.6-.8a3,3,0,0,1,1.4-.8l2.6-.7,1.6-.4c.8-.1,1,.4,1,.8a1.5,1.5,0,0,1-.7,1.1,6.7,6.7,0,0,1-1.7.7l-2,.5h-.7A1.9,1.9,0,0,0,240.8,153.9Z" fill="#d7e0ee"></path><path d="M251.4,149.7a1.1,1.1,0,0,0,1,1.2h.8v.2a1.6,1.6,0,0,0,.6.8,1.4,1.4,0,0,0,1.5-.3c.2-.1.2-.3.2-.5s0-.2-.1-.2H255l-.8-.2c-.2-.1-.1-.3,0-.5a1.3,1.3,0,0,0-.1-.6,1.2,1.2,0,0,0-1.4-.5l-.4.2H252C251.8,149.3,251.2,149.5,251.4,149.7Z" fill="#d7e0ee"></path><path d="M257.8,151.4c-.7,0-1.1-.3-1.2-.7v-.4l-.2-.2a.8.8,0,0,1-.2-.4c0-.3.4-.7,1.1-.7a1.2,1.2,0,0,1,1,.6c.1.1.1.3.2.4s.1.4.2.5.8.5,1,.9a1.1,1.1,0,0,1,.3.8c0,.3-.1.6,0,.8a1.4,1.4,0,0,0,.8.9l1,.3c.3,0,.4.2.6.3s.5.7.3,1.1l-.5.6q-.4.3-.3.6a.9.9,0,0,0,.3.5c.2.1.4.2.4.5a.8.8,0,0,1-.7.4l-.8-.2a1.5,1.5,0,0,1-.4-1.1v-.7a1.6,1.6,0,0,0-.5-.9,1.5,1.5,0,0,0-1.1-.7h-.5c-.2-.1-.2-.2-.3-.3l-.4-.4a.7.7,0,0,1-.1-.6c0-.2.2-.2.4-.4s.3-.8.2-1A.8.8,0,0,0,257.8,151.4Z" fill="#d7e0ee"></path><path d="M265.3,156.3c-.4.1-1.1.2-1.1-.2s1-.7,1.6-.8a1.1,1.1,0,0,1,.8.1l.7.3c.2.1.4.2.3.4a.8.8,0,0,1-.7.3A4.3,4.3,0,0,1,265.3,156.3Z" fill="#d7e0ee"></path><path d="M259,160.3a1.3,1.3,0,0,0,.9-.6v-.4h.2l.5-.2a.4.4,0,0,1,.4.4.7.7,0,0,0,.4.6h.2c0,.2-.4.4-.5.4a2.2,2.2,0,0,1-1.4,0Z" fill="#d7e0ee"></path><path d="M248,151.4a1.9,1.9,0,0,1,.9-.5,1.1,1.1,0,0,1,.9.2,1.2,1.2,0,0,0,.9.3c.5,0,.8.1.8.4s-.3.4-.8.5l-1.1-.2h-1.1c-.3.1-.6.3-.9.2a.2.2,0,0,1-.1-.4.4.4,0,0,1,.1-.3Z" fill="#d7e0ee"></path><path d="M409.8,46.9c1.5.1,3.8-.1,4.6-.8a.9.9,0,0,0,.1-1.2c1.2-.1,6.5-.7,5.2-1.6a3,3,0,0,0-.8-.4l-.7-.7a1.6,1.6,0,0,1-.3-1.5,3.8,3.8,0,0,1,.4-1.3.5.5,0,0,1,.3-.4,5.3,5.3,0,0,1,1.5-.8,4.1,4.1,0,0,1,1.6-.3l1.7.2a3.1,3.1,0,0,0,2.2-.3l.4-.5h1.6a13.6,13.6,0,0,0,2.9-.6l1.2-.6c.2-.1.2-.2.5-.2a3.3,3.3,0,0,1,1.4,0c.5,0,1.1,0,1.3.3s-.2.7-.7,1-1.1.5-1.6.9-1.1.8-.2,1a5.5,5.5,0,0,0,2.5-.4h.6l.4.3c.3.2.4.5.2.7a4,4,0,0,1-1.3.7c-.8.4-1.9.9-1.8,1.5s.4.5.8.7l1.3.6,1.5.6,1.2.7.8.5.5.2.3.4a3.5,3.5,0,0,0,1.6.9l1.4.4h1.7a2.2,2.2,0,0,1,1.5.9,1.4,1.4,0,0,1-.2,1.4l-.6,1.1-.4.5a.8.8,0,0,1-.2.4l-.7.2-2.2.6a34.7,34.7,0,0,1-7.3.9,27.3,27.3,0,0,1-4.1-.3c.2.4-.1.8-.6,1.1a8.2,8.2,0,0,1-2.5.7l-2.2.3h-2.5c-.1-.1,0-.3,0-.4a4.5,4.5,0,0,1,.7-.7l2.1-1c.5-.2,1.3-.4,1.5-.7s-1.2-.3-1.7-.3h-.9c-.2-.8,1.3-1.4,2.1-2s.9-1.3,0-1.8a.1.1,0,0,0-.1-.1h1.7l2.5-.4c.6-.3.3-.8-.3-.9a8.1,8.1,0,0,0-2.7-.1h-1.3c-1.1-.3-1.7.4-2.3.7a6,6,0,0,0-1.1,1.2,2.5,2.5,0,0,0,0,1.9c.1.3.1.6-.4.9a6.7,6.7,0,0,1-1.7.7,46.8,46.8,0,0,1-5.4,1l-4.7.4h-.8l-.5-.2a1.9,1.9,0,0,1-.9-.4c-.3-.2-.4-.5-.1-.7l.8-.5.8-.5.6-.3h.2a.3.3,0,0,0-.1-.2l-.2-.3-.5-.3h-.5a1.1,1.1,0,0,1-.5-.4,1.3,1.3,0,0,1,.5-1.4A1.9,1.9,0,0,1,409.8,46.9Z" fill="#d7e0ee"></path><path d="M469,2.6c-.2-.1-.4-.2-.4-.4s.3-.5,1-.6l2-.2h3l4.3.2,1.1.2h.5l.4-.3a3.2,3.2,0,0,1,1.7-.2,7.1,7.1,0,0,0,3.1-.6l.5-.2h.6l6.1-.4h1a7.1,7.1,0,0,0,3.1.6l3.3-.2,4-.2h3.8a4.5,4.5,0,0,1,2.4.5c1,.6-.6,1.1-1.7,1.4a23.3,23.3,0,0,1-3.7.4,45.2,45.2,0,0,1-5.2.2h-3.1a11.3,11.3,0,0,0,3.4.8l1.9.2h1.7c.3.1.5.2.5.4h-.2a.8.8,0,0,1-.4.7,3.1,3.1,0,0,1-2.1.5h-3.9a8,8,0,0,1-2.8-.3c-.3-.1-.3-.3-.4-.5a1.2,1.2,0,0,0-.8-.5,4.2,4.2,0,0,0-2.5-.2l-.8.5-.8.5a6.6,6.6,0,0,1-2.2,1.2,5.7,5.7,0,0,1-2.5.6h-2.4a16.9,16.9,0,0,1-5.3-1.4c-.6-.4-.8-.8-1.4-1.2a10.2,10.2,0,0,0-2.3-.8l-4.2-.7Z" fill="#d7e0ee"></path><path d="M506.6,3.3c.3-.5,1.8-.5,2.8-.5a5.9,5.9,0,0,0,2-.4,3.4,3.4,0,0,1,1.8-.3,7.1,7.1,0,0,1,2.1.3c.5.2.3.5-.1.7a7.7,7.7,0,0,1-2.7.4h-2.3a6.5,6.5,0,0,1-3.1,0h-.7C506.4,3.3,506.5,3.3,506.6,3.3Z" fill="#d7e0ee"></path><path d="M549.5,2.1c.1-.3.5-.7,1.4-.6l2.3.2,3.4.2c1,0,2.1.1,3.1,0l.8-.2c.2-.1.2-.2.6-.2a8,8,0,0,1,2.7.3l.4.2.5.4a2.7,2.7,0,0,0,2.1.6l.7-.2,1-.3a4.1,4.1,0,0,1,1.6-.3h1.3a18.7,18.7,0,0,0,3.4.3h1.7L578,2a10.7,10.7,0,0,1,3.2.6l1.5.5,2.2.5,1.5-.2a2.4,2.4,0,0,1,.9-.3,5,5,0,0,1,2.1,0,28.4,28.4,0,0,1,3.1.6,38.9,38.9,0,0,1,4.9,1.2l1,.3c.5.3.4.5.1.6l-.7.5a9.9,9.9,0,0,1-3.5.1L590.2,6a11.3,11.3,0,0,0-3.8.3l-1.1.3a2.4,2.4,0,0,1-1.2,0,29.6,29.6,0,0,1-3.1-.3l-3.2-.7-2.2-.5-.7-.2-5.8-.5a13.9,13.9,0,0,0-3,.3l-1,.2H564a29.6,29.6,0,0,1-3.1-.3l-3.2-.6-2.4-.6h-3.5l-1.5-.3a1.2,1.2,0,0,1-1-.6C549.2,2.4,548.8,1.9,549.5,2.1Z" fill="#d7e0ee"></path><path d="M594.4,20l-2.5-.6a13.8,13.8,0,0,1-3.9-1.5c-1.1-.7-1.1-1.4-.2-2s3.6-1.6,6-1.9a43.3,43.3,0,0,1,8.8.1l3.4.2a35.4,35.4,0,0,0,5.6.2c1.3-.1,2.8-.3,2.5-1s-2.6-1.2-4.3-1.4h-8.3a60.1,60.1,0,0,1-10.4-1,15.6,15.6,0,0,0-5.7,0,19.5,19.5,0,0,0-5,1.7,10,10,0,0,0-3.2,2.2,1.8,1.8,0,0,0-.4.9c0,.4.3.6.6.9a5.6,5.6,0,0,0,2.7,2.2,20.1,20.1,0,0,0,3.7.8c1.7.2,3.5.3,5.2.6s2.4.3,3.6.3a2.8,2.8,0,0,0,1.6-.1c.1,0,0-.2.1-.2S595,20.1,594.4,20Z" fill="#d7e0ee"></path><path d="M465.8,65.8a1.9,1.9,0,0,1,1.5-1.2h1.1a3.5,3.5,0,0,1,1.1.3.7.7,0,0,1,.5.8,1.7,1.7,0,0,1-.1.7c-.1.2-.3.3-.6.5s-1,.5-1.1.8.5.7,1,1a4.5,4.5,0,0,1,1.1,1.3,4.2,4.2,0,0,1,.4,1,.6.6,0,0,1,.1.4,2,2,0,0,1-1,1.3c-1.2.7-2.9-.1-3.6-.5s-1.8-1.5-1.4-2.4.7-.5.9-.8a5.9,5.9,0,0,0,.8-1.1,2.7,2.7,0,0,0,.3-1.2.9.9,0,0,0-.4-.8A1.1,1.1,0,0,0,465.8,65.8Z" fill="#d7e0ee"></path><path d="M568.1,181l2.8-.4a22.1,22.1,0,0,0,5.5-1.5,10.9,10.9,0,0,0,2.3-1.4,3.6,3.6,0,0,0,.8-.9,7.5,7.5,0,0,1,.7-1.2,3.4,3.4,0,0,1,3.3-1.8l1,.3c.2.1.2.1.3.3a12.1,12.1,0,0,1,1.1,3.2,4.4,4.4,0,0,1-1,4.2,10.1,10.1,0,0,1-2.7,1.6,5,5,0,0,0-1.4,1,4.2,4.2,0,0,0-.3,1.9,6.1,6.1,0,0,1-.3,1.3,20.2,20.2,0,0,1-1.8,3.6,28.9,28.9,0,0,1-2.7,3.7,10.5,10.5,0,0,1-2.9,2.6l-1.3.5h-.4a.4.4,0,0,0-.1.3,2,2,0,0,1-1.2.8,6.9,6.9,0,0,1-3.2-.1c-1.9-.5-4.6-1.3-4.6-2.7a2.9,2.9,0,0,1,.2-.9,1.6,1.6,0,0,0,.3-.9,16.1,16.1,0,0,0,0-2.2,2.5,2.5,0,0,1,.5-1.9l1-.4a2.9,2.9,0,0,0,1.1-.3,2.5,2.5,0,0,0,1.2-1.5,3.7,3.7,0,0,0,.1-1.8,1.7,1.7,0,0,0-.7-1.2c-.4-.2-.3-.6-.2-.9a5.6,5.6,0,0,1,.7-1.6,4.5,4.5,0,0,1,1-1.4C567.4,181.2,567.8,180.8,568.1,181Z" fill="#d7e0ee"></path><path d="M679.1,155.1a10.9,10.9,0,0,1,.5-1.7,3.8,3.8,0,0,1,.6-1.3,2.7,2.7,0,0,1,1.1-1,1.8,1.8,0,0,1,1.3-.2,3.6,3.6,0,0,1,1.2.8,7.9,7.9,0,0,1,1.9,2.7,8.3,8.3,0,0,1,.7,1.3,1.4,1.4,0,0,1,.2.7c.1,0,0,.1,0,.2a1.4,1.4,0,0,1-.2.7,3.4,3.4,0,0,1-1.5,1.9l-1.5.4a8.5,8.5,0,0,1-2.2-.4c-1.6-.6-3.2-1.5-3.2-2.5a1.9,1.9,0,0,1,1-1.5Z" fill="#d7e0ee"></path><path d="M939.8,144.5c.1-.3-.2-.8-.5-1.2a13.4,13.4,0,0,0-1.1-1.4l-.9-.9,2.1.6c1.5.1-.2-1.4-.9-2l-4.1-3-5-3.4c-1.7-1.3-3.4-2.5-4.9-3.8l-2.2-2.1-1.5-1.6a59.2,59.2,0,0,0-7.6-6c-2.5-1.7-5.1-3.4-7.8-4.9l-2.7-1.6-3.9-2.3-7.1-4-7-3.9-4.1-2.2-.2-.2c-.3.5,0,1.2.5,1.8a10.3,10.3,0,0,0,2.4,2.1l2.1,1.2a4.1,4.1,0,0,1,1.1.7c.5.4-.3.2-.6.1l-2.2-.8-1-.4h-.3l-1.1-.7c-1.7-1.2-3.4-2.6-3.9-3.8a1.4,1.4,0,0,1-.2-.6s.1-.2,0-.3l-.4-.3a17.5,17.5,0,0,0-2.7-1.6,26.2,26.2,0,0,0-4.9-1.9l-2.2-.5-1.9-.6a41.8,41.8,0,0,1-7.4-3.4c-2-1.2-3.9-2.6-4.5-3.9a1.5,1.5,0,0,1-.2-.9c0-.1-.1-.2-.1-.3l-.8-.9a31.7,31.7,0,0,0-3.6-2.3c-1.8-1-3.6-2-5.5-2.9l-6.2-2.8-6.1-2.6L826,73l-2.5-1-1.3-.4-5-1.6-7.7-3.2c-3.2-1.6-6.3-3.2-9.2-5l-4.6-3.1a17.1,17.1,0,0,0,3.8,1.3c.9.1,1.5-.1,1.6-.5s-.3-.8-.9-1.2a12.4,12.4,0,0,0-2.3-1.2l-2.2-.9-2.9-1c-.3-.1-.5-.1-.7-.3a38.2,38.2,0,0,0-5.4-2.4,43.1,43.1,0,0,0-10.4-2.7c-1-.1-2.4-.1-2,.6a3.5,3.5,0,0,0,1.1.9l1,.6a67.1,67.1,0,0,0,6,3.1l2.4,1.2h.1c-.2-.3-.1-.6.3-.7a4.4,4.4,0,0,1,1.9.3l2,.8a22.3,22.3,0,0,1,3,2,24.8,24.8,0,0,1,3,2.5l2.1,2,.5.5h-1.1l-2.1-.2a37.4,37.4,0,0,1-10.1-4l-1.6-.9a18,18,0,0,1-.8,2.1l-2.6-1.1a27.8,27.8,0,0,1-5.1-3.2,17.1,17.1,0,0,1-2.4-2.1l-.9-1.2a.8.8,0,0,0-.2-.4,1,1,0,0,1-.1-.3H770l-1-.2a16.7,16.7,0,0,1-3.2-.8,31.5,31.5,0,0,1-8.9-3.9l-1.1-.8a6,6,0,0,1-3.2.5,15.1,15.1,0,0,1-4.1-.9L745.8,45l-1.4-.8h-.8l-.9-.2-2.9-.6a62.5,62.5,0,0,1-7.7-2.3,17.3,17.3,0,0,1-6.1-3.8,3.4,3.4,0,0,1-.6-1.2c-.1-.1-.1-.3-.2-.4h-.1l-2.1-.6c-3.1-.8-6.1-1.8-8.9-2.8a53.8,53.8,0,0,1-10.2-4.9,5.7,5.7,0,0,0-1.3-.8l-1.4-.6-1.8-.3h-.8l-.5.4c-.5.4-2.1.3-3.2.1a27,27,0,0,1-3.9-.8h-.6c-.1.5-1.5.6-2.6.5a30.9,30.9,0,0,1-5.3-.9l-5.2-1a113.7,113.7,0,0,0-11.4-1.3,38.9,38.9,0,0,0-4.8-.1l-1.8.2-1.9.3a40.7,40.7,0,0,1-9.2-.1h-1.1l-1,.8a6,6,0,0,1-1.8.9,3.9,3.9,0,0,1-2.3.3,4.2,4.2,0,0,1-2.5-1.2,6.3,6.3,0,0,0-1.2-1.1,4.1,4.1,0,0,0-1.1-.7,2.1,2.1,0,0,0-2.5,1.2,2.1,2.1,0,0,0-.3.7c0,.2.2.4.4.6A16.3,16.3,0,0,0,640,29c1.2.8,2.6,1.7,2.6,2.6s-.6,1.1-1.4,1.4a8.4,8.4,0,0,1-2.4.6h-1c-1-.3-1.9-.8-1.9-1.3s.4-.7.7-.9a6,6,0,0,1,.8-.8c.5-.6.2-1.3-.5-2a8.3,8.3,0,0,1-1.5-1.1l-.7-.6a30.2,30.2,0,0,1-2.1-3.3,6.9,6.9,0,0,0-3.3-2.9,15.3,15.3,0,0,0-7.4-.9,7.7,7.7,0,0,0-2.9.7.9.9,0,0,0-.6,1.1c.2,1,1.6,2.1,3,3a23,23,0,0,0,3.5,2l1.4.8h.4c0,.1,0,.1.1.2a.7.7,0,0,1-.1.5c-.1.2-.3.3-.7.4a5.3,5.3,0,0,1-1.8-.4L621,26.9a71.4,71.4,0,0,0-8.9-3.1l-2.2-.5-2.2-.2a23.5,23.5,0,0,1-5.4-1,42.1,42.1,0,0,1-4.2-1.2l-.9-.4h-.4c-.3.2-.6.4-.5.7s.9.6,1.6.9a2.8,2.8,0,0,1,1.2.8c.1.2-.2.4-.7.4a12.2,12.2,0,0,1-2.7-.1,15.1,15.1,0,0,0-3-.1,12.7,12.7,0,0,0-2.9.4l-1,.2a3,3,0,0,1-1.8-.7,13,13,0,0,0-4.2-.9,25.5,25.5,0,0,0-5.5-.1l-2,.4-1,.7a7.4,7.4,0,0,1-1.6,1.1,6.7,6.7,0,0,1-3.7-.1c-1.2-.2-3-.6-3-1.3s.4-.7,1-.9h.1c.1-.1.2-.2.2-.3s0-.8-.7-1.1l-1.8-.4a12.3,12.3,0,0,0-2.7-.2,3.5,3.5,0,0,0-2.8.9c-.3.4-.1,1,.6,1.4a5.9,5.9,0,0,0,1.6.6,10.2,10.2,0,0,1,2.1.9c.4.3.5.6.1.9a6.4,6.4,0,0,1-2.3.6,7.8,7.8,0,0,1-3.9-.7l-1.1-.7-.4-.2h-.5l-1,.2c-.8.2-1.6.4-1.8.8s.6,1.3,1.6,1.8,2.2.9,2.6,1.5-.1.7-.6,1a12,12,0,0,1-5.5.5,6.6,6.6,0,0,1-2.5-.5c-.7-.3-1.1-.7-1.1-1.1a18.1,18.1,0,0,1-5.8-.7l-2.1-.7a9.9,9.9,0,0,1-2-1.3l-4.1-2.4L531,21.7a10.6,10.6,0,0,1,2.6-.2,21.2,21.2,0,0,1,7.5,1.8,15.4,15.4,0,0,0,3.4.8h2.9a11.6,11.6,0,0,0,4-1.4l1.1-.7h.1c0-.1-.1-.3-.1-.4a3.4,3.4,0,0,0-.6-.6,8.8,8.8,0,0,0-3.5-1.4l-3.6-.5-4.6-.2c-2.6-.1-5.1-.4-7.6-.7l-8-1.3-7.1-1.5-4.9-1.1-1.1-.2h-2.8l-5.2.2-7,.5-7.5.9a64.5,64.5,0,0,0-8.1,1.6,25.6,25.6,0,0,0-4.7,1.8,14.5,14.5,0,0,0-2.2,1.2c-.2.2-.6.4-.3.6a1.3,1.3,0,0,0,.9.1h.9l4.4-.7h.2a2.4,2.4,0,0,1,1.5.1c.4.3-.2.6-.5.9l-.5.3c-1.6.9-3.3,1.8-5.1,2.6a40.8,40.8,0,0,1-5.6,2.2,19.9,19.9,0,0,1-5.6.9h-.5l-.2.2-.9.6a17.6,17.6,0,0,1-5.6,1.6l-2.8.3H454l-.6.4a2.7,2.7,0,0,0-1.3,2c-.1,1.1,1,2.1,2.5,2.9a16,16,0,0,0,3.5,1.2l.9.3a18,18,0,0,0,4.7.3,14,14,0,0,0,3.2-.6l1.6-.7.8-.4.8-.6h1.2c.7.1,1.4.2,1.7.6s0,.9.1,1.4a4.2,4.2,0,0,0,1.1,1.3,12.5,12.5,0,0,0,7.9,2.6,14.5,14.5,0,0,0,3-.5,11.4,11.4,0,0,0,4.3-1.4c1.1-1,.6-2.2.1-3.1l2.5-.3c1.3-.3,2.7-.6,3.1-1.3a.4.4,0,0,0,.1-.5.5.5,0,0,0-.3-.4c0-.1-.1-.1-.2-.1h-.5a9.3,9.3,0,0,1-3-1.5,1.5,1.5,0,0,1,0-2.5l.3-.2c0-.1.1-.2.2-.3a12,12,0,0,1,3.4-1.5l3.8-.9h.3v-.2a4.9,4.9,0,0,1,3.2-2.6,10.2,10.2,0,0,1,4.6-.1c1.2.2,3,.6,3.3,1.2s-.6.9-1.4,1.2a16,16,0,0,1-3.5,1.1l-3.1.6-1.8.4h-.3a.4.4,0,0,0-.1.3,4.2,4.2,0,0,0-.6,1.4,3.6,3.6,0,0,0-.2,1.1,1.6,1.6,0,0,0,.8,1.6,5.3,5.3,0,0,0,3.2.5h.5l.4.2a8.9,8.9,0,0,0,2.1.6,24.4,24.4,0,0,0,4.7.1l3.5-.2,2.2-.3,1.1-.2h3.5a5,5,0,0,1,1.3.4c.3.2-.1.4-.5.5a19.1,19.1,0,0,1-7,1,42,42,0,0,1-5.1-.5h-.6a4,4,0,0,0-1.3.4c-.4.3-.1.7.3,1s1.8.6,2.3,1.1-.4,1.3-1.8,1.4a7.3,7.3,0,0,1-2.2-.3l-.9-.4-.7-.6a2.2,2.2,0,0,0-1.5-.3,3.1,3.1,0,0,0-1.4.7c-.7.5-1.3,1.4-.7,2.1s.3.2.4.4a.3.3,0,0,1,0,.4,3.1,3.1,0,0,1-1.2,1l-1.7.8-.8.3-.5.2h-.1l-.5-.2-2.3-.4a9.9,9.9,0,0,0-3-.2,15.9,15.9,0,0,0-3.3.8,14,14,0,0,1-4.1.6,10.2,10.2,0,0,1-3.7-.6c-1.2-.5-1.8-1.1-2.9-1.6s-3.2-.6-5-.5a2.1,2.1,0,0,0-.3-2,2.9,2.9,0,0,0-2.1-.9,14.4,14.4,0,0,0-4.7.6,4.4,4.4,0,0,0-2.5,1.6,1.9,1.9,0,0,0,0,1.5l.4.5a7.6,7.6,0,0,1,.9.9c.3.5.6,1,.2,1.4s-2,.7-3.2.8a12.9,12.9,0,0,0-4,.7,35.3,35.3,0,0,0-3.9,1.5,38.8,38.8,0,0,0-5,2.9h-.2c-.1.1-.4,0-.5,0a4.9,4.9,0,0,0-2.4.7,2.4,2.4,0,0,0-1,1c-.2.4-.2.8-.6,1.1a5.9,5.9,0,0,1-2.9.9,39.6,39.6,0,0,1-6.9-.1h-.4a1,1,0,0,1-.4,1.7,11.6,11.6,0,0,1-4.2.4,8.9,8.9,0,0,0-4,.6c-.7.4-1,.9-.6,1.3a4.1,4.1,0,0,0,2.8.8h2.5l2.2.4a7.2,7.2,0,0,1,3.4,1.8,2.7,2.7,0,0,1,.7,2.9A5.1,5.1,0,0,1,435,65c-.2.2-.2.2-.5.2l-7.1.5-6.5.3h-6.4l-.8.4-1.3.6c-.8.6-1.2,1.3-.6,1.9s1,.6,1.3.9a1.2,1.2,0,0,1,.4.9,3.3,3.3,0,0,1-1.1,2.1,15.4,15.4,0,0,1-1.9,1.7l-.5.4c-.1.1,0,.1.1.2l1.2,1.6a3.2,3.2,0,0,1,.5,2.3c0,.3-.2.4,0,.7a1.9,1.9,0,0,0,.8.4,13.4,13.4,0,0,0,2.8-.1l2.5-.5,1.6-.5h.5a4.1,4.1,0,0,1,2.3.5.4.4,0,0,1,.1.7l-.2.3-.4.2h-.1a8.3,8.3,0,0,1-2.6,2.7,16.6,16.6,0,0,1-3.5,1.9,23.4,23.4,0,0,1-2.4.9,7.6,7.6,0,0,0-1.8.6,4.7,4.7,0,0,0-3.1,3.5,6.9,6.9,0,0,0,.2,3.2l.2.4c0,.1.1.1,0,.2l-.2.2-.5.6a16.6,16.6,0,0,1-5.6,3.3l-2.1.4-1.4.2a4.3,4.3,0,0,0-1.7.6,10.9,10.9,0,0,0-3.1,2.9,44,44,0,0,0-2.6,3.9,31.4,31.4,0,0,0-1.8,3.7,20.4,20.4,0,0,0-.9,2.2.2.2,0,0,0,0,.3l1.1.7a10.3,10.3,0,0,1,3.3,3.7,3.3,3.3,0,0,1,.1,2.4,2.8,2.8,0,0,1-.7,1.3,10.7,10.7,0,0,0-1.4,1.6c-1,1.5-1.2,3.1,0,4.4l.5.5h.1v.2c0,.2.1.3.1.5a6,6,0,0,0,1.6,2.9,2.2,2.2,0,0,0,1.6.8h1.8a11,11,0,0,1,2.6.6,6.4,6.4,0,0,1,3,1.4,1.6,1.6,0,0,1,.6.9,11.7,11.7,0,0,0,.5,1.1,4.5,4.5,0,0,0,2,1.8l2.1.6,2.4.3a35.9,35.9,0,0,1,5.2,1.3,51.1,51.1,0,0,1,4.7,2l.8.2a10.6,10.6,0,0,0,3.1-.2l2.3-.9a5.7,5.7,0,0,1,1.9-1,11.2,11.2,0,0,1,4.2-.7,25.4,25.4,0,0,1,3.9.1l1.3.2h1.6l1.7-.4,3.2-1c1.7-.6,3.2-1.3,4.8-2a12.4,12.4,0,0,1,3.9-1,9.7,9.7,0,0,1,5.5.8,8.6,8.6,0,0,1,2.7,2.2l.4.6.4.2c1.8.7,4.6.3,6.5-.1l.7-.2h1.8c1.6.3,2.6,1.1,2.6,2h0a1.9,1.9,0,0,1-.2.7l-.2.3a4.7,4.7,0,0,0,.1,1.7c.2,1.4.2,3-1.9,4-.5.3-1.3.5-1.5.9a1.4,1.4,0,0,0,.2,1.1,16.3,16.3,0,0,0,3,2.8c1.4.9,2.8,1.9,4.3,2.7l2.9,1.7.4.3a6.8,6.8,0,0,1,1.2,1.2c1.2,1.4,2.2,3,1.2,4.5s-.3.4-.3.6v.5a4.4,4.4,0,0,0,.7,1.9,3.6,3.6,0,0,0,1.1,1l.7.3.3.2-.2.2-.3.4-1.9,3.2c-.9,1.4-1.7,2.9-2.5,4.4l-.3.8v.7a3,3,0,0,1-.2,1,4.9,4.9,0,0,0-.1,1.2c.2,1.6,1.5,3.1,2.9,4.4a8.6,8.6,0,0,1,1.4,1.3,5.2,5.2,0,0,1,1,1.1,10,10,0,0,1,1.3,2.5,52.9,52.9,0,0,1,1.3,5.4,11.2,11.2,0,0,0,2,5,8.1,8.1,0,0,0,2.1,2l1.9,1.3a15.9,15.9,0,0,1,1.3,1.3,5.2,5.2,0,0,1,1.1,4.4,2.1,2.1,0,0,1-.4,1.1l-.2.4a2.2,2.2,0,0,0,.1,2.1,3.8,3.8,0,0,0,2.7,1.5,19.3,19.3,0,0,0,4.8,0l1.7-.2.8-.2.5-.2a25.3,25.3,0,0,1,8.7-.2,9.7,9.7,0,0,0,5.1-.9,23.8,23.8,0,0,0,5-2.7l3.7-2.8,1.1-1,.5-.4,1.1-.8a11.4,11.4,0,0,0,2.2-2.2,5.4,5.4,0,0,0,.7-1.3c0-.2.1-.4.1-.6a1.3,1.3,0,0,1,.1-.6,4.2,4.2,0,0,1,1.6-1.7,20.1,20.1,0,0,1,5.2-2h.8a10.9,10.9,0,0,0,.8-1.5,8.7,8.7,0,0,0,.8-5.9l1.4.5c1.1.1,1.3-.7,1.5-1.2a10.3,10.3,0,0,1,2.4-3.3,9.6,9.6,0,0,1,5.9-2.2h1.4l1.1-.3a6.2,6.2,0,0,0,1.6-1,8.8,8.8,0,0,0,1.8-2.8,20.2,20.2,0,0,0,.9-3.3c0-.6.1-1.1.1-1.7h0a.8.8,0,0,1-.2-.4l-.6-1.1a21.7,21.7,0,0,1-1.5-3.5,15,15,0,0,1-.9-4.6,8.3,8.3,0,0,1,1.1-4.6,7.9,7.9,0,0,1,1.7-2,13.7,13.7,0,0,1,2-1.3c1.6-1,3.4-1.8,5.2-2.7l6.3-2.7,6.7-2.8c2.1-.9,4.2-1.8,6.1-2.8a25.3,25.3,0,0,0,4.6-2.7,4.7,4.7,0,0,0,2.1-2.6v-.6c-.1-.2-.1-.2.1-.2l1.4-.7c1.7-1,2.9-2.3,3.1-3.8a3.7,3.7,0,0,0-.7-2.8l-5.8.5a69.6,69.6,0,0,1-11.2.1c-2.2-.3-7.6-1.2-6.1-2.9a4,4,0,0,1,1.6-1h1.7l2.2-.3a5.3,5.3,0,0,0,1.6-.4c.3-.2.2-.4.5-.5h1.3l4.5.2h2.2l1.4-.3.6-.3,1-.3,1.1-.2,5.3-.2c.1,0,.6.1.6,0s.1-.2.1-.2.1-.3.2-.5a2.2,2.2,0,0,1,1.1-1,4.4,4.4,0,0,1,2.1-.3c1.8.1,3.5.5,5.3.5s1.4,0,1.7-.3.7-.7,1.3-1,3.1-.2,4.6-.3,3.4-.6,3.9-1.6a1.7,1.7,0,0,0-.4-1.7,14.2,14.2,0,0,0,4.5-1,2.9,2.9,0,0,0,1.9-1.8,2.7,2.7,0,0,0-.9-2.5c-1.4-1.3-3.8-2.2-6.2-2.9l-1.1-.3h-.6a4.1,4.1,0,0,0-.5-.9l-1.9-3.5h-.1a6.5,6.5,0,0,1-1.2,1.1,9.3,9.3,0,0,1-3.6,1.6,11.2,11.2,0,0,1-2.7.3,12.6,12.6,0,0,1-3.3-.5c-1.9-.5-4-1.3-4.1-2.5a1.2,1.2,0,0,1,.4-.9l.3-.3h.2l-2.5-1.1a27.3,27.3,0,0,1-4.8-2.7c-1.5-1.1-2.6-2.4-2.6-3.6s.3-2.1,2.5-1.7a11.2,11.2,0,0,1,2.2.9l1.4.8.5.3v.2a.5.5,0,0,1,.2.4,12,12,0,0,0,3.3,2.9,28.4,28.4,0,0,0,3.9,2,21.6,21.6,0,0,0,4.5,1.5,10.6,10.6,0,0,0,5,.1l.5-.2h.5a1.9,1.9,0,0,1,.9.4,6.7,6.7,0,0,1,1.4,1.6l.7,1.4a.5.5,0,0,0,.3.5l1.2.9a22.3,22.3,0,0,0,4.6,1.3c2,.5,4.1.8,6.1,1.1l6.4.8,5.5.6,3.1.3h.3l.2.4.5.6a14.4,14.4,0,0,0,3.7,3.7,14.2,14.2,0,0,0,4.1,1.9,1.9,1.9,0,0,0,1,.3l.9.2.4-.2c.2.2.5.6.2.8h-.8l-1-.2c-.5-.1-3-.6-2.5.1l.4.5a2.1,2.1,0,0,1,.4.6l1.1,1.3a5,5,0,0,0,3.1,1.9h5.4a4.4,4.4,0,0,0-.7,1.9,6.6,6.6,0,0,0,1.4,5v.4a1.7,1.7,0,0,0,0,1,8.8,8.8,0,0,0,1.9,4.2l.2.4.3.3h0v.4a11.7,11.7,0,0,0,.4,2.6,10,10,0,0,0,1,2.1c.4.8.7,1.6,1,2.3a25.9,25.9,0,0,1,1.1,3.7c.1.5.1,1,.2,1.4a3.3,3.3,0,0,0,2.7,2.5,7,7,0,0,0,2.1-.1l2.2-.8,1.7-.9.5-.3.3-.2h.6a2.5,2.5,0,0,0,1.3-.3,1.7,1.7,0,0,0,.7-1.7,4.9,4.9,0,0,1,.6-2.3,7.5,7.5,0,0,1,1-1.7l.4-.5.2-.2v-.6a1.7,1.7,0,0,1,.1-1.2,1.6,1.6,0,0,1,1.1-1h2.7a20.4,20.4,0,0,0,5.1-.6c1.6-.5,3.2-.9,4.7-1.5a25.2,25.2,0,0,0,3.3-1.5c.2-.1.3-.3.6-.3a1.4,1.4,0,0,1,.9.1,6.8,6.8,0,0,0,2.8.1,4.5,4.5,0,0,0,1.7-1,4.1,4.1,0,0,0,.9-1h.1c.6-.4,2.2.3,2.9.6l1.7,1,1.6.9a7.1,7.1,0,0,0,2.5.6,3.4,3.4,0,0,0,2.6-.9c.1-.1.1-.2.3-.2a1.2,1.2,0,0,1,1.3.5,1.8,1.8,0,0,1,.2,1v.9a3.7,3.7,0,0,0,.5,2,2.8,2.8,0,0,0,.9,1l1.3,1.1a2.4,2.4,0,0,1,1.1,1.8.6.6,0,0,1-.1.4c0,.1-.2.2-.1.2l.2.2.6.5c1.1,1.1,1.9,2.4.9,3.2l-.4.2h-.3l-1-.3h-1c-.5.1-.5.4-.5.6s-.3.4-.3.6.3.5.6.7a6,6,0,0,0,2.1,1.1,14.9,14.9,0,0,0,3,.9,5.8,5.8,0,0,0,2.6.1,4.1,4.1,0,0,1,1.6-.3l1.3.3.9.4.2.3a9.4,9.4,0,0,1,.4,1.6,9.9,9.9,0,0,1-.7,5.4l-.6,1c-.1.1-.2.4-.5.5h-.1l-.4.2a1.2,1.2,0,0,0-.3,1,5,5,0,0,0,.2,2.1c.4,1.4.7,3-.3,4.1a2.3,2.3,0,0,1-1.3.6l1.2.5a4.7,4.7,0,0,1,1.7,2.1,11.8,11.8,0,0,1,0,6.4s-.1.3-.3.2a16.4,16.4,0,0,0,1.4,2.2,21.1,21.1,0,0,0,3.4,4.1,12.5,12.5,0,0,0,2.2,1.6,4.9,4.9,0,0,0,2.3.8c1.4.1,1.3-1.2,1.2-1.9a10.7,10.7,0,0,0-1-3.2s-.1-.1,0-.1.1-.3.2-.5a4.6,4.6,0,0,0,.1-2.6,7.3,7.3,0,0,0-2.5-4.1l-1.4-1.2-.9-.6h-.1c0-.1.1-.2.1-.3a1.3,1.3,0,0,0,.1-.6,4.1,4.1,0,0,0-.9-3.7l-1.1-1.1-.4-.3h0a8.8,8.8,0,0,1,.5-1.5,5.7,5.7,0,0,1,.8-1.3,3.9,3.9,0,0,1,2.1-1.2h.4a1.7,1.7,0,0,0,.4-1.1,1.7,1.7,0,0,0-.1-.7c0-.2-.2-.4-.2-.6s0-.4.3-.4a3.4,3.4,0,0,1,2.3.8,1,1,0,0,1,.3,1l-.4.5a.6.6,0,0,0-.1.7l.9,1.1a4.5,4.5,0,0,0,1.3,1,5.5,5.5,0,0,1,1.3,1.4,21,21,0,0,1,1.5,3,4.2,4.2,0,0,0,1.1,1.6.9.9,0,0,0,.5.3h1.7c.4.3.1.6,0,.8l-.8,1.2a1.4,1.4,0,0,0-.2.7,1,1,0,0,0,.6.5l1.5.2h1.4a4.7,4.7,0,0,0,1.7-.1,3.1,3.1,0,0,0,2-1.4,8,8,0,0,0,4.5,1.2c1.6-.1,2.4-.9,3.4-1.5a6.5,6.5,0,0,0,2.3-2,1.7,1.7,0,0,0,.2-1.2,3.3,3.3,0,0,0-.4-1.3,8.3,8.3,0,0,1-.4-1.5,9.8,9.8,0,0,0-1.2-3.9,18.2,18.2,0,0,0-2.1-3l-1.7-1.9-1.8-1.7c-.9-1-1.9-2.3-.6-2.9s3.1-.2,4.6,0a50.5,50.5,0,0,1,5.6,1.2l1.8.5c.3.1.5.1.6.3s1,1.1.6,1.5-1.2.5-1.9.5a5.7,5.7,0,0,0-2.4.4c-.9.4-1,1.3-.5,2.2a4.9,4.9,0,0,0,2.8,1.8,4.5,4.5,0,0,0,3.8-.6l.9-.9a2.4,2.4,0,0,0-.2-.8,4.2,4.2,0,0,1-.4-1.5c-.1-.3,0-.5.3-.7a5,5,0,0,1,2.6.3c.9.2,1.8.6,2.7.9l.5.3h.9c.5.1,1.1.1,1.2-.2a.8.8,0,0,0-.2-.4c-.1-.1-.1-.2,0-.2h.9l1.5.5,2.2.8.9.3a31.9,31.9,0,0,0,6,.8,17.8,17.8,0,0,0,8.1-1.4,8.7,8.7,0,0,0,2.5-1.5.6.6,0,0,0,.2-.7.4.4,0,0,1,0-.5l.7-.2,1.5-.3a9.9,9.9,0,0,0,3.9-1.3,1.6,1.6,0,0,0,.6-1.8,4.4,4.4,0,0,0-1-1.5l-.5-.4h0v-.2c0-.2.1-.3.1-.5a7.6,7.6,0,0,0-.1-1.5,12.8,12.8,0,0,0-2.2-5,16,16,0,0,0-2.8-3.1,25.4,25.4,0,0,0-2.4-2l-1.2-.9c-.5-.5-1.2-1.1-1.1-1.5s.5-.5,1-.5l2.4.3,1.9.4c2,.5,4.1,1.1,6.1,1.8h.3a.8.8,0,0,0,.4-.7c0-.5-.6-1-1.3-1.5l-2-1.1-1.5-.6a.7.7,0,0,0-.6-.1l-2.7.2a5.3,5.3,0,0,1-3.5-1.4c-.4-.4.2-.6.5-.9s-.7-1.3-1.5-1.8l-2.4-1.5c-.3-.2-.6-.5-.5-.8s1.4-.2,2.2-.1l1,.2h1.2l.3-.2,1.1-.5a5.2,5.2,0,0,1,3.4.3,2.2,2.2,0,0,1,1.5,1.9,1.8,1.8,0,0,1-.5,1.2l-.6.7a.5.5,0,0,0-.2.4c-.1.4.5.7,1.2.9a16.5,16.5,0,0,0,3,.4h3.8l1.6.7a5.2,5.2,0,0,1,1.7,1.5,1.8,1.8,0,0,1-.4,2.2c-.5.6-1.1,1.2-.5,2a3.8,3.8,0,0,0,2,1.4,18.2,18.2,0,0,0,3.8,1.1,2.1,2.1,0,0,0-1,3.3,12.3,12.3,0,0,0,2,1.9l2.4,1.8a6.9,6.9,0,0,0,4.3,1.4c1.1-.1,1.6-.7,1.6-1.4a5,5,0,0,0-.3-2.4,16.8,16.8,0,0,0-2-3.7,16.6,16.6,0,0,0-3.1-3.5l-1.9-1.4c-.3-.3-.7-.6-.7-.9s1.1-.5,1.7-.4l3.2.7,1,.2h.4c.7-.1,1.4-.4.8-1a2.7,2.7,0,0,0-.8-.7c-.5-.3-1-.5-1.2-.9s-.1-.2,0-.4,1.3-.6,2.2-.6a7.4,7.4,0,0,1,3.5.8c.6.3.8.7,1.2,1a3.8,3.8,0,0,0,1.3.9,11.8,11.8,0,0,0,3.5,1.1,8.4,8.4,0,0,0,3.7-.4,4.8,4.8,0,0,0,1.6-.8,5.2,5.2,0,0,0,1-1.1,3.2,3.2,0,0,1,1.2-1.1l1-.3,1-.4a2.7,2.7,0,0,0,.7-.8,5,5,0,0,0,.4-1.3l.3-2.4v-1.6h0l-.5-.7a4.2,4.2,0,0,1-.7-1.3,1.9,1.9,0,0,1,.6-2.7c.3-.1.6-.2.7-.5a.8.8,0,0,0,0-.7,10.2,10.2,0,0,0-1.6-2.2,34.1,34.1,0,0,0-6.5-5.1,14.5,14.5,0,0,0-3.5-1.8l-1.4-.5a7.8,7.8,0,0,1-1.4-.2,12.5,12.5,0,0,1-3.6-1.5,11.1,11.1,0,0,1-2.8-2.3c-.6-.7-.9-1.4-.3-1.8s2.8-.4,4.4-.3c3.1.2,5.8-.3,6.2-1.9a1.1,1.1,0,0,0,0-.8l2.8,1.6c1.7,1,3.5,1.9,5.4,2.8a35.9,35.9,0,0,0,5.3,2.4,8.6,8.6,0,0,0,2.1.4h1l1.2.2a8.6,8.6,0,0,1,2.5,1.4l1.3,1.1,1.7,1.9.4.4a26.5,26.5,0,0,0,4.4,2.5,12,12,0,0,0,2.7.8c.8.1,1.5-.2,1.6-.6s-1.3-2.1-2.5-3l-.8-.6-.5-.3a2.5,2.5,0,0,1-.4-.7c-.2-.4-.3-.9.1-1.2s1.7.2,2.6.5a34.6,34.6,0,0,1,5.6,2.3c2.1,1.3,2.7,2.8,2.7,4s-.1.2.1.4l.5.4a5.6,5.6,0,0,0,1.6.7,1.8,1.8,0,0,0,1.8-.2l.3-.3.2-.2h.4a4.9,4.9,0,0,1,1.6.5c.8.3.9.8.8,1.1a2.1,2.1,0,0,1-.6,1,1.7,1.7,0,0,1-.6.6,3.1,3.1,0,0,1-1.2.5,4.7,4.7,0,0,0-1.4.8l-.3.5c-.1,0-.1.2-.3.3H884a9,9,0,0,0-2.4.2c-.5.1-1,.4-.7.9l.5.6.4.4,3.3,3c1.1,1.1,2.2,2.3,3.1,3.4a24.7,24.7,0,0,1,2.5,3.8,10.4,10.4,0,0,1,.9,4,5.8,5.8,0,0,1-.4,1.9,12,12,0,0,1-1.3,2.1,12.4,12.4,0,0,0-1.5,3.3c-.1.5-.3,1.1.2,1.6a.8.8,0,0,0,.8.5h.5l.3-.3.7-.9,2.3-2.4a15.8,15.8,0,0,1,3.6-2.6l.9-.4c.2-.1.1-.1,0-.2l-.3-.7a2.3,2.3,0,0,1-.2-1.8,2.3,2.3,0,0,1,1.6-1.2c1.1-.4,2.6-.6,3.1-1.4s-1.6-2.8-3.2-4a10.1,10.1,0,0,1-3.8-4.4,3.1,3.1,0,0,1-.1-2.5l.3-.5h.7a4.5,4.5,0,0,1,2.6.9,15.4,15.4,0,0,1,1.3,1.2,4.1,4.1,0,0,0,1.3.8,10.9,10.9,0,0,0,4.2.7,5.3,5.3,0,0,0,1.6,2.6,5.8,5.8,0,0,0,3.6,1.7,8.5,8.5,0,0,0,2.3-.4,7.3,7.3,0,0,1,3-.1,15.9,15.9,0,0,1,4.9,1.7,37.9,37.9,0,0,1,3.4,2l2.2,1.5c.4.2,1.6.9,1.7.5a.9.9,0,0,0-.3-.6l-.4-.6a53.7,53.7,0,0,0-5.2-5.7l-1.4-1.3-1.6-1.4-1.2-1.2c-.2-.3-.6-.7-.5-.8s.9.1,1.3.2l3.8,1.9a33.5,33.5,0,0,1,6.3,4.4,4.1,4.1,0,0,1,.9,1h.1l.9.9a38.4,38.4,0,0,0,5.2,4.3,9.5,9.5,0,0,0,2.5,1.2C939,144.8,939.7,144.9,939.8,144.5ZM548.6,59.4c1.5-.7,4.2-.6,6.2-.5s1.7,1,1.7,1.6-.8.6-1.7.6a20.6,20.6,0,0,1-4.3-.1l-2.4-.5c-.2,0-.4-.1-.4-.2S548.1,59.6,548.6,59.4Zm3.3,21.4a4.3,4.3,0,0,0-.2,1.1l-.3,1.4a7.6,7.6,0,0,1-1.2,3,5.6,5.6,0,0,1-3.8,1.7,12.2,12.2,0,0,1-3.3-.2l-2.7-.7c-2.1-.5-5.2-.9-6.9,0s-.6.5-1.1.6l-1.2.2a21.9,21.9,0,0,1-3.6-.3,46.9,46.9,0,0,1-6.5-1.4l-1-.2-2.6-.4a19,19,0,0,1-4-1.2l-.8-.5-.7-.5a5.9,5.9,0,0,0-1.6-.6,14.1,14.1,0,0,0-4.1.1,10.5,10.5,0,0,0-3.4,1.1,1.3,1.3,0,0,0-.8.6c-.2.3-.1.6-.1.9s.3,1.4-.3,2-2,.6-3.2.5a29.7,29.7,0,0,1-4.3-.8,16,16,0,0,1-3.9-1.4,4,4,0,0,1-1.2-1c-.3-.3-.3-.6-.6-.8a5.2,5.2,0,0,0-2.5-.9l-3.7-.4a52.3,52.3,0,0,0-5.6,0,3,3,0,0,1-2.7-1c-.6-.9-.2-1.8.1-2.7a4.5,4.5,0,0,0,.5-2.5c-.3-.7-1.3-1.3-2.8-1.5a24.8,24.8,0,0,0-3.9-.2,82.7,82.7,0,0,0-8.7.8l-2.3.4h-1.1a55.1,55.1,0,0,0-9,1,33.9,33.9,0,0,0-5.5,1.3l-4.8,1.7-1.9.8-.4.2a2,2,0,0,1-.8.4l-1.6.4a10.5,10.5,0,0,1-4.7-.2l-1.2-.4-.9-.4c-.3-.1-.6-.3-.6-.5s.2-.4.6-.6l2.2-.4,2-.2,4.1-.7a18.8,18.8,0,0,0,3.8-1.3,6.8,6.8,0,0,0,2.6-2.4c.6-.8,1.1-1.7,1.7-2.6a7.3,7.3,0,0,1,1.7-1.9,8.5,8.5,0,0,1,2.7-1.3l2-.5,1.2-.3h.8v-.2c0-.1-.1-.3-.1-.4a2.5,2.5,0,0,1,.2-1.2,2.4,2.4,0,0,1,1.1-1.2,9.8,9.8,0,0,1,2.7-.6c1.7,0,3.2.4,4.9.5a22.2,22.2,0,0,0,4.5-.4,9.1,9.1,0,0,0,4.3-2.1l.3-.2h0a3.3,3.3,0,0,1,1,0l2,.5a12.1,12.1,0,0,1,2.8,1.6l1.6,1.4a.7.7,0,0,0,.5.4l1.8.6,6.3,2,2.7.8,1.3.4.9.5c.5.4,1,.8,1,1.3s-.9,1-2,1.2l-3.1.4-2.7.2a7,7,0,0,1-2.5-.1l-.4-.2c-.8.3-1.6.8-1.1,1.3a3.4,3.4,0,0,0,1.2.6l2.5.6,1.9.3h1.9l.6.2h1l.6-.3.4-.2-.3-.3c-.2-.3-.4-.6-.1-.9s1.6-.4,2.4-.7a6.8,6.8,0,0,0,2.1-1l1.4-1.1.4-.4a.2.2,0,0,0,.2-.2h-.4l-.8-.4c-.4-.2-1.1-.6-.9-.9a3.3,3.3,0,0,1,1.2-.5,1.7,1.7,0,0,1,1.2.1c.5.1.7.4,1.1.6a3.3,3.3,0,0,0,1.5.3,2.8,2.8,0,0,0,1.3-.3.7.7,0,0,0,.5-.6c.1-.3-.2-.7-.8-.9l-2.4-.5L491.1,67,486,65.4l-4.6-1.8a6.1,6.1,0,0,1-2.5-1.7.8.8,0,0,1,.1-.9,2.5,2.5,0,0,1,.4-.7l.5-.3a3.9,3.9,0,0,1,1.5.2,12.9,12.9,0,0,1,2.1.6,23.5,23.5,0,0,1,3.9,1.9,25.2,25.2,0,0,0,5.5,2.1l1.6.4,1.8.3a9.2,9.2,0,0,1,2.5.9,4.2,4.2,0,0,1,2.2,2.2,3.2,3.2,0,0,1,.3.9c0,.1-.1.2,0,.4v.2l.4.6a9.3,9.3,0,0,0,1.9,2.1,17.8,17.8,0,0,0,3.3,2.5l2.3,1,1.3.4,1,.2a1.5,1.5,0,0,0,1.3,0c.4-.2.4-.5.5-.7s.1-.7.1-1a1.4,1.4,0,0,1,1.5-1h1.3a.9.9,0,0,0,.6-.4c.3-.5-.7-1.1-1.4-1.4l-2.6-1.3c-.5-.3-1.2-.7-.9-1.1s2-.6,2.9-.7a28.5,28.5,0,0,1,2.9-.3,3.9,3.9,0,0,1,1.6.2,2.9,2.9,0,0,1,1.1,1.1,3.1,3.1,0,0,1,.5,1c.7,1.7,1.2,3.6,3.7,5a16.4,16.4,0,0,0,6,1.7,11,11,0,0,0,4.8-.3l.9-.4c.1,0,.1-.1.2-.2h1.1a2.3,2.3,0,0,1,1.7.4c.5.5.3,1.1,1.2,1.5a5.3,5.3,0,0,0,2.5.1,32.3,32.3,0,0,0,3.3-.6,9.7,9.7,0,0,1,3-.2C551.7,78.6,552.4,79.9,551.9,80.8Zm16-10.8-.5.2a13.7,13.7,0,0,1-2.9.2,28.8,28.8,0,0,1-7.2-.6,25.5,25.5,0,0,1-4.4-1.2l-2.1-.7-2.2-.5a22.3,22.3,0,0,0-7.3-.2,25.9,25.9,0,0,0-4.2.9l-1.6.4a10.1,10.1,0,0,1-5.5-.4,6.4,6.4,0,0,1-2.7-1.8,1.4,1.4,0,0,1-.3-1.7c.5-1.2,2-2.2,3.5-3.2l2.1-1.4a4.5,4.5,0,0,1,2.2-1.1,7,7,0,0,1,2.5.1l1.4.5.2.2a6,6,0,0,0,.8.8,9.2,9.2,0,0,0,2.6,2.1,3,3,0,0,0,1.4.6,1.5,1.5,0,0,0,1.2-.2c1.3-.7,3.6-.8,5.5-.8h2.7a25.5,25.5,0,0,0,3.3,1.7,39.4,39.4,0,0,0,6.6,2.5l2,.5,1.9.4a4.8,4.8,0,0,1,1.9,1C569.3,69.1,568.7,69.6,567.9,70Zm39.8,11.8c-.7.8-2.7,1.2-4.7,1.1a3.6,3.6,0,0,1-2-.7,16.2,16.2,0,0,0-6.1-2.1,2.5,2.5,0,0,1-1.6-1.1,1.9,1.9,0,0,1,.1-1.9l.8-1.2.8-.6a1.1,1.1,0,0,1,1,0l.3.2h.5c.2-.3.4-.6.1-.9a4.5,4.5,0,0,0-2.4-.5h-.3l-.5-.4L592,72.2a1.8,1.8,0,0,0-.7-.5l-1.1-.7a19.9,19.9,0,0,1-3.6-2.7c-1-.9-1.9-2.1-1.1-3l.9-.6,2.1-.9a21.2,21.2,0,0,1,4-1,10.3,10.3,0,0,1,3.5,0,7.6,7.6,0,0,1,1.6.3,4.7,4.7,0,0,0,1.7.4h2.6c.3.1.4.3.4.4a2.1,2.1,0,0,1-.4,1,2.7,2.7,0,0,1-2.2.8,8.3,8.3,0,0,1-2.2-.3h-.8a11.4,11.4,0,0,0-1.9.9c-.6.5-.4,1.1.5,1.7l1.4.7,1.4.9a29.7,29.7,0,0,1,4.1,3.7l.6.5.2.2h-.1v.3c-.1,1,.8,2.1,1.9,3.1l1.6,1.3a7.7,7.7,0,0,1,1.3,1.2A1.2,1.2,0,0,1,607.7,81.8Z" fill="#d7e0ee"></path><path d="M746.4,235.4l1.4.6a19,19,0,0,0,3.6,1.2,42.1,42.1,0,0,0,4.9.9,18.7,18.7,0,0,0,5.4-.5,7.4,7.4,0,0,0,2.6-1l.7-.3.6-.2c.8-.2,3-.8,3.6.3s0,.7.5.9a3,3,0,0,0,1.3.2,24.3,24.3,0,0,0,4-.5l4-.9,1.3-.4h.4a6.2,6.2,0,0,1,2.3.4,4.7,4.7,0,0,1,1.2.7,1.9,1.9,0,0,1,.4,1.1c0,.5-.5.8-.9,1.2s-.2.3,0,.4.6.5.9.7a6.3,6.3,0,0,0,2.9.6,2.6,2.6,0,0,0,1.6-.6,2.8,2.8,0,0,0,.7-.9h.1a.1.1,0,0,1,.2,0h.4a4.9,4.9,0,0,0,2.1-.1c.8-.2,1.1-.7.9-1.4s-.6-1.2-.1-1.5a2.5,2.5,0,0,1,1.7.1l2.8,1.1a15.8,15.8,0,0,1,3.6,2.6,8,8,0,0,1,1.9,2.3,2.3,2.3,0,0,0,.7,1l.9.6a8.8,8.8,0,0,0,2.6.6h3.3a2.4,2.4,0,0,1,.5,2.2,2,2,0,0,1-1.7.9h-3.6c-1.6,0-3.7.4-4,1.6a2.5,2.5,0,0,0,.1.8,5.6,5.6,0,0,0,.5.8l1,1.9,1.1,2a6.6,6.6,0,0,0,1.2,1.7,3,3,0,0,0,1.4,1h1.8a19.9,19.9,0,0,0,3.4.5,3.2,3.2,0,0,0,2.5-2.2,7.7,7.7,0,0,1,2.9-3.1,13.9,13.9,0,0,1,3.9-1.7,5.2,5.2,0,0,1,1.8-.3,1.7,1.7,0,0,1,1.1.3l1.2.8.5.6a.7.7,0,0,1-.3.9l-2,1.7a4,4,0,0,0-1.4,2.8,3.4,3.4,0,0,0,.7,1.8,6.4,6.4,0,0,1,1.2,2.3c0,.7-.5,1.1-1.4,1H823l-.5.3a5.7,5.7,0,0,0-1.6,1.5,5.4,5.4,0,0,0-1.1,2.7,7,7,0,0,0,1.2,3.9l.4.5h.1a.1.1,0,0,0-.1.1l-.5.4a4.9,4.9,0,0,0-1.1,1.8,7.2,7.2,0,0,0-.5,3.3,11.8,11.8,0,0,0,1.8,4.8,3.4,3.4,0,0,1,.5,2.3,3.6,3.6,0,0,1-1.2,1.8,10.1,10.1,0,0,1-2.5,1.4,17.3,17.3,0,0,1-3.2,1.1l-3.6.8-3.4.6-2.9.4-1.9.2h-.6l-2.1-.2-4.2-.2a38.5,38.5,0,0,0-4.8.2,21.2,21.2,0,0,0-4.5.7l-1.7.8a1.5,1.5,0,0,1-1.3,0c-.3-.1-.4-.3-.7-.5l-.5-.3-1.6-.5a33.4,33.4,0,0,0-4.3-1,5.7,5.7,0,0,0-1.8-.3,2.7,2.7,0,0,0-.9,0c-.2.1-.4,0-.6-.2a1.2,1.2,0,0,1-.4-.8.4.4,0,0,1,.1-.3c0-.1.1-.2.1-.3s-.3-.5-.5-.7a3.8,3.8,0,0,0-1.3-.6l-1.3-.2a4.7,4.7,0,0,1-1.5-.6,8.1,8.1,0,0,1-2.8-2.7,3.3,3.3,0,0,1-.5-1.6,2.6,2.6,0,0,1,.7-1.6,3.9,3.9,0,0,1,1-.8,1.3,1.3,0,0,0,.6-.7l.3-.9a1.7,1.7,0,0,0-.1-.7,3.2,3.2,0,0,0-1.4-.8h-2.5a1.5,1.5,0,0,1-.9-.4c-.5-.3-.8-.7-.7-1.1s.5-.9.8-1.3a10,10,0,0,0,.8-1.4,3.9,3.9,0,0,0,.4-1.8,3.4,3.4,0,0,0-.8-2,10.3,10.3,0,0,0-2.8-2.1,30.8,30.8,0,0,0-5.3-2.1l-6.7-1.9-4.1-1.2-2.1-.5a1.1,1.1,0,0,0-1,.1c-.5.2-.7.6-1.1.8s-2.1.2-3.1-.3a18.1,18.1,0,0,1-2.7-1.8l-.4-.3-.8-.4a14.5,14.5,0,0,0-4.1-1,8.7,8.7,0,0,0-2.3.1l-.9.3-.9.2a8,8,0,0,1-3.7-.8,4,4,0,0,1-2.3-2.3,2.1,2.1,0,0,1,.8-2.1,3.3,3.3,0,0,1,1.4-.4h1.5l1.7-.3a4.8,4.8,0,0,0,1.7-1,6.2,6.2,0,0,0,1.5-2.1,13.6,13.6,0,0,0,1.2-3.9c.2-.7.3-1.5.5-2.2a14.2,14.2,0,0,1,.8-1.8,9.4,9.4,0,0,1,2.1-2.8,15.8,15.8,0,0,1,2.9-1.7,14,14,0,0,1,3.1-.9l3.1-.4H744l1.8.2Z" fill="#d7e0ee"></path><path d="M766.1,287.4h.6a.9.9,0,0,1,.9.6c.2.4-.3.7-.3,1.1s.2.5.5.8l1.2.9c.5.5.8,1.1,1.6,1.4a4.5,4.5,0,0,0,1.6.3h.5l.8-.4a1.4,1.4,0,0,1,.9-.3,1.3,1.3,0,0,1,.9.7.5.5,0,0,1-.2.9c-.4.2-.6.6-1,.9a2.9,2.9,0,0,1-1.9.5,8,8,0,0,1-1.5-.3,2.9,2.9,0,0,0-1.3-.1,1.7,1.7,0,0,0-1.4.6l-.4.3a2.2,2.2,0,0,1-1.6.4,3.7,3.7,0,0,1-1.1-.5l-1.4-.8-1.4-.5-.8-.2c-.3-.1-.6-.3-.6-.6a1,1,0,0,1,.5-.8,5.6,5.6,0,0,0,.5-.8,1.2,1.2,0,0,1,.5-.7,2.5,2.5,0,0,1,1.3-.3,5,5,0,0,0,1.3-.3,1.9,1.9,0,0,0,.8-.7,3.8,3.8,0,0,0,.5-1.5Z" fill="#d7e0ee"></path><path d="M824.7,321.8a15.1,15.1,0,0,0,5,.9,5.9,5.9,0,0,0,3.6-1c.6-.5,1.1-1.2,1.6-1.7a6.9,6.9,0,0,1,1.1-1.3,2.7,2.7,0,0,1,.8-.7h.5l.8.5c.2.2.5.5.5.7s-.2.4-.4.6-.4.9-.4,1.4v.6c0,.1.1.1-.1.2s-1,0-1.2.3.1.5.3.7.2.4.1.5a1.6,1.6,0,0,1-.8,1l-1,.7c-.2.1-.4.2-.3.4s.3.5.6.6l1,.2h1.9l.6.4c.5.4.8.9.4,1.2s-.8.3-1.2.4l-3.9-.3h-1.1l-.5-.3a3.8,3.8,0,0,0-1.7-.8l-1.1-.2-1.1.2a12.9,12.9,0,0,1-4.7-.8l-2.2-1a3.2,3.2,0,0,1-1.3-1,2.3,2.3,0,0,0-1.6-.8,3.5,3.5,0,0,0-1.4.3h-.4l-1.5-.3a15.3,15.3,0,0,0-4.2-.4,3.3,3.3,0,0,0-1.5.3,5.7,5.7,0,0,0-1.3-.8,9,9,0,0,0-4.2-1h-4.2a18.1,18.1,0,0,1-4-.4,4.5,4.5,0,0,1-2.8-1.5l-.4-.7-.4-.7a6,6,0,0,0-.8-.8l-.3-.4c0-.2.4-.3.6-.3l1.3-.4h1.1a15.5,15.5,0,0,1,2.9.4l3.3.7,5.4,1.6.8.3,1,.4a24.1,24.1,0,0,0,6.4,1.2h4a2.2,2.2,0,0,1,1.6.9,5.4,5.4,0,0,1,.7,1.3,3.8,3.8,0,0,0,1.1,1.1,1.8,1.8,0,0,0,1.4.2,2,2,0,0,0,1.2-1c0-.1.1-.4,0-.6a.3.3,0,0,1-.1-.2C824.2,321.8,824.5,321.8,824.7,321.8Z" fill="#d7e0ee"></path><path d="M836,162.5c-.9-.3-1.8-.9-1.8-1.4a1.4,1.4,0,0,1,.2-.7,2.4,2.4,0,0,0,.2-.8,2.3,2.3,0,0,0-.7-1.6l-1-.9-1.2-.7c-.5-.3-.6-.6-.3-.8a4.2,4.2,0,0,1,1.3-.3h.7l.4.2,1,.3a10.8,10.8,0,0,0,3.6,0l2.4-.7a1.3,1.3,0,0,1,1.1-.2,3,3,0,0,1,1.8.8l1.7,1.1a7.8,7.8,0,0,0,4.5,1.5,4.4,4.4,0,0,0,2.2-.8.8.8,0,0,0,.4-.9l-.2-.3a.3.3,0,0,0-.1-.2h.1l.4-.2a1.6,1.6,0,0,1,1.4.8c.1.4-.3.7-.5.9s-.2.7.5,1a1.6,1.6,0,0,0,1.3.2,8.3,8.3,0,0,0,3-.7l1-.4.3-.2a2.3,2.3,0,0,0,.3-2.3l-.6-1.1a.9.9,0,0,1-.3-.6,1,1,0,0,1,.2-.9c.3-.6.9-1.1.4-2a6.5,6.5,0,0,0-1.6-1.8,7.8,7.8,0,0,1-2.1-1.9c-.3-.4-.4-.8-.1-1a1.8,1.8,0,0,1,1.3-.2,6.3,6.3,0,0,1,1.9.3l1,.4.8.4c1.3.4,1.2-.6,1.1-1.1a5.8,5.8,0,0,0-1.1-1.8,12.6,12.6,0,0,0-2-2,6.3,6.3,0,0,1-1.8-2.8,6.9,6.9,0,0,1,.4-4.3.4.4,0,0,0,.1-.3c.1-.1,0-.2,0-.3a16.2,16.2,0,0,0-.4-1.9,18,18,0,0,0-.9-2.8,11,11,0,0,0-1.8-2.8,6.9,6.9,0,0,0-1.3-1.1c-.2-.1-.5-.2-.6-.4l-.2-.3c-.1,0-.2-.2-.3-.3h.3l.6-.3c.4-.6-.3-1.4-.8-2.2l-.8-1-.4-.4c-.1-.2-.1-.4-.2-.6s-.4-1.8.9-1L853,120l1.3,1.4,2.2,3,.7.9a16.2,16.2,0,0,0,1,1.8,69.8,69.8,0,0,0,4.5,7.1l1.5,1.8.7.9c.1.1.3.2.4.4l.3.3a.2.2,0,0,1-.2.2.4.4,0,0,1-.5.1c-.6,0-1.3-.7-1.7-1.1l-1.7-1.6-.6-.7-.3-.2c-.1-.1-.3,0-.4,0s-.4.3-.3.5.5.9.7,1.4a32.4,32.4,0,0,0,2.8,4,5.2,5.2,0,0,0,1,1.1l.8.8c.2.4.4,1-.4.7a8.3,8.3,0,0,1-1.6-.9,7.5,7.5,0,0,0-1.5-.9c-.7-.2-.3.4-.2.6a5.8,5.8,0,0,0,1.4,1.9l.7.6.3.3c.1,0,.1.2.1.3a6.2,6.2,0,0,0,1.2,2,11.2,11.2,0,0,0,3.5,2.7,22.3,22.3,0,0,0,6,2,25.6,25.6,0,0,0,7.7.3h.4c.4.3.8.7.8,1s-1.4.7-2.4.6l-4.5-.5c-1.1,0-2.5,0-2.8.6s0,.4-.1.6-.4.5-1,.3l-1.2-.5-1-.5a3.7,3.7,0,0,0-1.7-.5,1.4,1.4,0,0,0-1.2.8.7.7,0,0,1-.9.2,3.3,3.3,0,0,1-1.1-.9l-.9-1.1a2.5,2.5,0,0,0-.4-.7l-.8-.6c-.4-.3-.9-.5-1-.1a1.2,1.2,0,0,0,.1.8c.4.9.8,1.8,1.3,2.7s1,1.9,1.6,2.8l.4.8a.4.4,0,0,1,.1.3l-1.1,1.5-.6.8c0,.1,0,.2-.1.2h-.1c-.4,0-.8,0-.9.2s.3,1.2.5,1.8a4.9,4.9,0,0,1,.5,1.9,1.6,1.6,0,0,1-.4,1.5.8.8,0,0,1-.6.2h-.6l-.9.3a3.2,3.2,0,0,1-2.3-.2,13.2,13.2,0,0,1-2-1.2l-.6-.5-.5-.4h-.3a7.3,7.3,0,0,0-2.9-.7,3.1,3.1,0,0,0-1.4.1.8.8,0,0,0-.5.5l-.2.3s.1.1,0,.1h-.7l-1.2-.5c-.8-.5-1.2-1.2-1-1.6v-.4h-.6l-3.1.2H843a3.7,3.7,0,0,1-1.4-.4,2.4,2.4,0,0,1-1.2-.9c-.2-.2-.3-.4-.6-.5a1.3,1.3,0,0,0-1.3.2,1,1,0,0,0-.7,1,2.4,2.4,0,0,0,.2.8c.2.2.3.4.2.6S836.7,162.8,836,162.5Z" fill="#d7e0ee"></path><path d="M803,59.8c-.1-.5,1.3.1,1.8.3a23,23,0,0,1,3.4,1.2l4.2,1.6a12.6,12.6,0,0,1,3,1.8c.5.4,1,1.1.2,1.2a5.9,5.9,0,0,1-2.7-.8l-2.3-1c-.5-.3-1-.4-1.4-.7l-3.5-1.6a7.8,7.8,0,0,1-2.6-1.7C803.1,60,803,59.9,803,59.8Z" fill="#d7e0ee"></path><path d="M894.6,106.2c0-.2.1-.3.3-.5s1,0,1.7.4l1.9,1,1.9,1a9.7,9.7,0,0,1,2.9,1.9c.4.5.7,1.3-.2,1.1l-1-.3a8.5,8.5,0,0,1-2.2-.9,6.2,6.2,0,0,1-2.3-1.2l-.5-.5a1.8,1.8,0,0,0-.7-.5l-1.5-.6c-.2-.1-.3-.1-.4-.3S894.3,106.3,894.6,106.2Z" fill="#d7e0ee"></path><path d="M658,14.4a3.4,3.4,0,0,1,2-.5,18.4,18.4,0,0,1,3.3.3,50.7,50.7,0,0,1,5,1.4l2.8,1.4,1.6.9a15.5,15.5,0,0,0,3.1.7,8.7,8.7,0,0,1,3.1,1,2.1,2.1,0,0,1,1,1.2c.1.1.2.4.1.5s-1,.2-1.6.1a14.7,14.7,0,0,1-3-.8,35.8,35.8,0,0,0-4.9-2,19.2,19.2,0,0,0-7.1-1.1h-1.5l-1.2-.3c-.9-.2-1.9-.5-2.2-1s.1-.6.1-.9a1.1,1.1,0,0,0-.3-.7Z" fill="#d7e0ee"></path><path d="M683.2,22.1a.7.7,0,0,1-.3-.8c.1-.6,1.1-.7,2.3-.6a20.8,20.8,0,0,1,5.6,1.3c1.7.6,3.3,1.2,4.8,1.9l1.3.6.4.2a.4.4,0,0,1-.1.5c-.2.3-.7.3-1.3.1l-1.8-.4-2.2-.4-4.6-.6c-1.4-.2-3.5-.3-4-1.2A.5.5,0,0,1,683.2,22.1Z" fill="#d7e0ee"></path><path d="M721.7,172.6a10.7,10.7,0,0,1,2.7,2.4,13.1,13.1,0,0,1,2,3,6.1,6.1,0,0,1,.7,1.7,3.7,3.7,0,0,0,.6,1,2.3,2.3,0,0,1,.7.7,3,3,0,0,1,.4.8l.6,2.1c.1.7.3,1.4.4,2.1a1.3,1.3,0,0,0,.1.6v.2l.4.4a3.5,3.5,0,0,1,.5.8,2.1,2.1,0,0,1,.2,1.3,2.8,2.8,0,0,1-.4,1.2,5.6,5.6,0,0,0,.1,1.8,10.9,10.9,0,0,0,1,2.5,11.7,11.7,0,0,0,1.6,2.5,10,10,0,0,0,2.1,1.9l1.1.5,1.7.3,1.8.3a3.3,3.3,0,0,0,1,0,.7.7,0,0,0,.6-.4l.3-1a2.5,2.5,0,0,1,.6-1.3,1.6,1.6,0,0,1,.9-.7,2.9,2.9,0,0,1,1.3.1l.8.3.7.4c1.2.3,1.2-.6.9-1.1a1,1,0,0,0-.4-.5l-.8-.5a1.1,1.1,0,0,1-.6-.9,1.2,1.2,0,0,1,.4-.8l.2-.2h.1l-.2-.2-.4-.3a1.8,1.8,0,0,0-1.2-.5c-.6.1-.7.6-1.3.6a2.2,2.2,0,0,1-1.1-.5l-.4-.4v-.2h.1l.2-.3c.1-.3.2-.6-.2-.9l-.8-.5a1.7,1.7,0,0,1-.6-.6.8.8,0,0,1,0-1.2c.2-.2.4-.3.4-.5a4.6,4.6,0,0,0-.8-1.3,28,28,0,0,0-3.7-4.1l-2.8-2.8c-.2-.1-.2-.3-.3-.5l-.9-1.7a17.1,17.1,0,0,0-1.3-2.3,13.9,13.9,0,0,0-1.5-1.9l-.7-.5-1.8-.6c-1.2-.4-2.8-.8-3.2-1.6a1.3,1.3,0,0,1-.1-.6.6.6,0,0,0-.1-.4c-.2-.3-.6-.2-.9-.2a1.9,1.9,0,0,0-.9.4c-.2.2-.4.4-.3.7l.5.4a.9.9,0,0,1,.3.6A.7.7,0,0,1,721.7,172.6Z" fill="#d7e0ee"></path><path d="M737.3,201.8a3.5,3.5,0,0,0,1.7.2h.5l.5-.2h.5l1.6.5,2,1,3,1.6c.2.1.1.2.2.3a2.8,2.8,0,0,0,1.3,1.1,7,7,0,0,0,2.4.9l2.2.9,4.8,2.1,1.5.8.4.2c.1,0,0,.1,0,.2s-.1.5-.5.4l-.7-.3-1-.4a1.3,1.3,0,0,0-.8-.3c-.3-.1-.4.1-.3.2s.2.5.5.8l.8.4,3.3,1.6.3.2a3.5,3.5,0,0,0,.9.7,42,42,0,0,0,6,3,30.4,30.4,0,0,1,4.7,2.5l.4.2.9.3,7.6,2.9,1.2.4h.3a5.8,5.8,0,0,1,2.9,1.8c.5.6,1.3,1.3,1.2,1.9s-.6.6-1.1.6a6.2,6.2,0,0,1-1.9-.1H782a7.9,7.9,0,0,1-2.2.1,2.5,2.5,0,0,1-1.7-.4c-.4-.2-.2-.5,0-.7l1.3-.6,1.5-.5,1.1-.2c.1-.1.1-.1,0-.3a1.8,1.8,0,0,0-.9-.8,18.1,18.1,0,0,0-3.1-.9,7.9,7.9,0,0,1-2.6-1.3l-.9-.5-.5-.2c-.2-.1-.3.1-.3.2a2.8,2.8,0,0,0-.1.9c0,.3.1.5.1.8s.1.1.1.2a1.2,1.2,0,0,1-.6.6c-.7.1-1.5-.6-1.9-1a9.4,9.4,0,0,1-1.7-1.8,2.5,2.5,0,0,1-.4-.7,2,2,0,0,1,.1-.5c.2-.6-.4-1.3-1.1-1.7l-1.7-.6a35.2,35.2,0,0,1-3.9-1.7l-4-1.8-1-.5h-.1a1.3,1.3,0,0,0-.7-.8,12.3,12.3,0,0,0-3.6-1.9l-1.6-.5-1.5-.5-1-.4a18.6,18.6,0,0,1-3.7-2l-.7-.6-.2-.3h-.1v-.2h-.2l-.6-.2a16.5,16.5,0,0,1-3.6-1.6,4,4,0,0,1-1.3-1.3c0-.2-.1-.3-.1-.4v-.2h-.4a1.8,1.8,0,0,1-1-.4C736.6,202.4,737,202,737.3,201.8Z" fill="#d7e0ee"></path><path d="M718.5,155.4a1.4,1.4,0,0,1,.2-.6,2,2,0,0,1,1-.7c.8-.1,1.6.6,2.1.9a4.5,4.5,0,0,1,1,.9c.1.2.2.5.1.6s-.4.2-.7.2l-.7.4a3.5,3.5,0,0,0-.8,1c-.1.2,0,.4-.2.5s-1.3-.4-1.6-.6a3.4,3.4,0,0,1-1.2-1.8C717.5,155.9,717.5,155.3,718.5,155.4Z" fill="#d7e0ee"></path><path d="M717.3,159.7a2.7,2.7,0,0,0,1.8,0c.1-.1.3-.3.2-.4s-.2-.2-.3-.3l-.5-.3c-.8-.3-.9.4-1,.7l-.2.3Z" fill="#d7e0ee"></path><path d="M717.6,161.8a.8.8,0,0,1,1,0l.3.4c0,.2.1.3.2.5a.7.7,0,0,1,.4.5c.1.1-.1.2-.3.1l-1.3-.3h-.7c-.2-.1-.2-.2-.2-.3A.6.6,0,0,1,717.6,161.8Z" fill="#d7e0ee"></path><path d="M719,164.5l.2-.2a1.1,1.1,0,0,1,.8,0l.4.2c.1.1,0,.3-.1.4s-.1.3-.4.3h-.5c-.5,0,.4.6.6.7l.5.5c0,.3-.1.5-.1.7s-.1.4-.2.6a.6.6,0,0,1-.5.2l-1-.2c-.3-.1-.2-.2-.2-.4a.7.7,0,0,0-.3-.7l-.3-.5a.6.6,0,0,1,0-.6l.5-.5.4-.3Z" fill="#d7e0ee"></path><path d="M721.1,176.2c.1.1.4,0,.5,0l1,.2c.4.1.5.3.7.6s.5.4.6.7-.6.8-1.3.7l-1-.4-.8-.4C720.3,177.1,720.7,176.5,721.1,176.2Z" fill="#d7e0ee"></path><path d="M724.2,180.2l.7.2c.2.2.2.4.3.5l.5.4.4.2a.9.9,0,0,1,.4.7c.1.2-.1.4-.5.4a1.7,1.7,0,0,1-1-.1c-.3-.2-.2-.6-.3-.8s0-.2-.2-.3a.2.2,0,0,1-.2-.2C724.2,181.1,723.7,180.1,724.2,180.2Z" fill="#d7e0ee"></path><path d="M724.7,184.5c.1-.2.2-.5.5-.6h.6l.6.3h.4c.3.1.3.2.2.3a2.4,2.4,0,0,0-.2.8c0,.1,0,.3.1.3h.3l.4.2a.7.7,0,0,1,.4.5v.3l.2.3a.9.9,0,0,1,.3.7.8.8,0,0,1-.3.8,1,1,0,0,1-.8.2l-.8-.3c-.6-.3-1.2-.7-1.1-1.2s.5-1-.2-1.6-.9-.4-.9-.6S724.6,184.7,724.7,184.5Z" fill="#d7e0ee"></path><path d="M727.2,189.6c.1-.5,1.5-.1,1.9.1a.8.8,0,0,1,.4.7v.2h-.1c0,.1,0,.1.1.1s.1.3.1.4a.9.9,0,0,1,.1,1,1.7,1.7,0,0,1-1.3.2c-.5-.2-.6-.4-.6-.7a.7.7,0,0,1,.3-.6c.2-.2.1-.4-.1-.6l-.5-.5C727.3,189.9,727.3,189.7,727.2,189.6Z" fill="#d7e0ee"></path><path d="M747.2,198.6a1.8,1.8,0,0,0,.7-.5c.1-.1.3-.3.3-.4a1.4,1.4,0,0,0-.2-.6c-.4-.6,1.1,0,1.4.1l.8.3q.8.5.6.9a1.9,1.9,0,0,0-.2.7c0,.2.1.3.1.5s-.8,0-1.2,0a.5.5,0,0,0-.4.2c-.2.2-.4.1-.7,0S747.2,199.1,747.2,198.6Z" fill="#d7e0ee"></path><path d="M758.8,203a1,1,0,0,0,1.1.8.9.9,0,0,1,.7.3.5.5,0,0,0,.3.4h1c.5-.1.9-.1,1.1.3a4.3,4.3,0,0,0,1.6,1.3l.4.2v.2a1.2,1.2,0,0,0,.2,1.1,3.9,3.9,0,0,0,1.1.6l1.3.5h.9c.2-.1.2-.3.4-.3l1.4.3a.8.8,0,0,0,1.1-.6,1.2,1.2,0,0,0,1.2-.1c.4-.2.3-.7.4-1.1a2.1,2.1,0,0,1,.8-1.1,2.1,2.1,0,0,1,1.2-.3l.7.2.8.2a2,2,0,0,0,1.4-.5c.2-.4.1-.8.3-1.2a1.8,1.8,0,0,1,2.4-.4l1.4,1a1,1,0,0,0,.9.2c.2-.1.2-.2.3-.3l.4-.3.5-.5c0-.2-.4-.5-.7-.6l-1-.7a2.6,2.6,0,0,1-.8-1.8,3.6,3.6,0,0,1,.3-2.1l.7-.7.5-.3.5-.2.3.3.5.3c.5.2.7-.2,1-.2s.9,0,1-.2-.2-.3-.3-.5h-.1l.6.3.9.4c.3.1.4,0,.5-.2s.1-.6.1-.9a.8.8,0,0,0-.1-.8,4.1,4.1,0,0,0-1.3-.8c-.4-.2-1-.3-1.2-.6a.7.7,0,0,1-.1-.6.8.8,0,0,0,.1-.7c-.1-.2-.5-.4-.7-.7a.7.7,0,0,1-.2-.6c0-.2,0-.4-.2-.5s-.5-.4-.9-.4l-1.4-.2a6.5,6.5,0,0,0-2.1.4l-2.3.7a8.1,8.1,0,0,1-5,.4,21.3,21.3,0,0,0-2.7-.8,4.7,4.7,0,0,0-2.1.2c-1.2.4-2,1.2-3.2,1.6a3.9,3.9,0,0,1-1.6.1l-1-.5-1.1-.6-2.2-1.2a5.6,5.6,0,0,0-2.1-.6,2.4,2.4,0,0,0-1.6,1,5.8,5.8,0,0,0-.9,2.5,3.6,3.6,0,0,0,1.3,3.1c.3.3.8.6.8.9a.7.7,0,0,1-.4.6l-.6.7c-.2.2-.5.4-.6.7s-.3.4-.2.6a3.4,3.4,0,0,0,.9.8l1.4,1a5.2,5.2,0,0,0,1.3.6C758.2,203,758.6,203.2,758.8,203Z" fill="#d7e0ee"></path><path d="M777.5,212.5a8.7,8.7,0,0,0-1.5,2.4,1.4,1.4,0,0,0-.2.7,1,1,0,0,0,.6.5,1.8,1.8,0,0,0,2.4-.3,15.3,15.3,0,0,0,1.1-1.6,5.6,5.6,0,0,1,1.2-1.6l.7-.2c.4,0,1,.2,1.1.5s0,.5-.2.8a1.8,1.8,0,0,0-.3,1.9c.1.3.5.7.5,1s-.1.5-.3.8a.5.5,0,0,0-.1.7,3.6,3.6,0,0,0,1.3,1.1,2.4,2.4,0,0,0,1.4.5,1.8,1.8,0,0,0,1-.4l.7-.7a4.1,4.1,0,0,0,.5-.9,4.3,4.3,0,0,0,.4-2.5,1.6,1.6,0,0,0-.3-.9,8.3,8.3,0,0,1-.8-1.2c-.2-.3-.4-.7-.2-1s.7-.2,1.2-.1,1.4,1,2,1.5a1,1,0,0,0,.9.4,2.4,2.4,0,0,0,1.5-.4c.5-.3,1.4-1,.6-1.7a10.4,10.4,0,0,0-2.7-1.7,2.1,2.1,0,0,0-1.3-.3,1.8,1.8,0,0,0-.9.4,2.5,2.5,0,0,1-2.4.1,2.3,2.3,0,0,1-1.1-1.1,1.3,1.3,0,0,1-.1-1.2.9.9,0,0,1,.7-.6,4.2,4.2,0,0,1,1.9.1l2.2,1,1.4.8,3.4,1.5,1.1.4.7.2a11,11,0,0,0,3.1.2l1.2-.2a.7.7,0,0,0,.3-.8c-.3-1-1.9-1.2-3-1.2h-1l-.9-.2a6.7,6.7,0,0,1-1.8-.7,10.9,10.9,0,0,1-2.7-1.9l-.8-.8-1.3-1a5.9,5.9,0,0,0-1.4-.6,1.4,1.4,0,0,0-1.1.4c-.3.3-.4.6-.7.8s-.4.3-.8.3-.7-.3-1.1-.2l-.5.4a6,6,0,0,0-.8,1.6c-.2.4-.4,1-1,1.2h-.9a2.4,2.4,0,0,0-1.2,0,2.9,2.9,0,0,0-1.7,1.5A2.2,2.2,0,0,0,777.5,212.5Z" fill="#d7e0ee"></path><path d="M792.5,215.4c-.2-.2-.5-.7.1-.7s.3.1.4,0h.2c0-.1,0-.3.3-.2l.6.6.8.7a4.8,4.8,0,0,0,1.7,1l1,.2.7.6c.1.2,0,.4-.2.4a1.8,1.8,0,0,0-.7.5c-.1.1-.2.2-.5,0s-.4-.2-.4-.4.1-.3,0-.5a.9.9,0,0,0-.6-.4l-2.1-.9-.9-.5Z" fill="#d7e0ee"></path><path d="M795.8,218.9l.8.3.7.2h.6a1.7,1.7,0,0,1,1,.6c.1.2.2.3.2.5l-.2.3a2.5,2.5,0,0,1-.4.7c-.1.2-.2.5-.6.4a1.8,1.8,0,0,1-.9-.4l-.6-.5-.3-.2h-.3c-.8-.3-1-.8-.8-1.2Z" fill="#d7e0ee"></path><path d="M800,222.5c-.1-.2-.3-.3-.3-.5a.6.6,0,0,1-.1-.4l.4-.2c.2-.1.2-.4.5-.4s.7.2,1,.3a18.4,18.4,0,0,1,2.5.9l.9.6c.2.3.1.5.4.7a10.8,10.8,0,0,0,1.9.8,1.7,1.7,0,0,1,.6.6,3.3,3.3,0,0,1,0,1c0,.4-.1,1.1-.9.7a5.5,5.5,0,0,1-1.9-1.8,1.9,1.9,0,0,0-1-.6l-1.7-.4C801.4,223.6,800.1,223.3,800,222.5Z" fill="#d7e0ee"></path><path d="M800.9,218.4c-.2.2.1.6.5.8l1.3.5c.2.1.5.2.6,0s0-.5,0-.8-.1-.6.1-.7h.4l.5.2c.3,0,.4-.2.4-.3s.1-1,.8-1a3.3,3.3,0,0,1,1.3.4c.4.1.9.3,1,0a.9.9,0,0,0,0-.7,1.7,1.7,0,0,1-.1-1c.1-.3.5-.4.8-.6s.5-.5.7-.8.6-.6.6-1-.6-.7-1.2-.8a9.1,9.1,0,0,0-2.1-.5c-.7,0-.8.4-.9.8s-.1.6-.3.8l-.7.4c-.5.2-.9.5-.9,1a2.8,2.8,0,0,1-.1.9.9.9,0,0,1-.6.3,2,2,0,0,1-1.3-.1c-.3,0-.6,0-.7.2s.1.7.1,1a1.1,1.1,0,0,1-.1.8Z" fill="#d7e0ee"></path><path d="M806.5,221.7a2,2,0,0,0,1.3.1c.3-.1.5-.4,1,0a1.2,1.2,0,0,1,.5.9c0,.5-.7.4-1.3.3a3.1,3.1,0,0,1-1.2-.5A.8.8,0,0,1,806.5,221.7Z" fill="#d7e0ee"></path><path d="M810.5,219a5.7,5.7,0,0,1,2.2.4c.7.4.7.9.6,1.2a1.7,1.7,0,0,1-.5,1.2c-.1.1-.4.3,0,.5a1.7,1.7,0,0,0,1.2.2l.7-.4c.3-.1.9.2,1.3.4l2.2,1.6a4.6,4.6,0,0,1,1.3,1.6q.4.8,0,1.2l-1.1.8a.9.9,0,0,0-.2,1.3c.1.4.6.9.4,1.2h-.7c-.2,0-.4.1-.2.2a2.8,2.8,0,0,0,1.2.8h1.4a9.5,9.5,0,0,0,2-.6.1.1,0,0,1,.1-.1.9.9,0,0,1-.4-.7,2.5,2.5,0,0,1,.1-1.7c0-.1,0-.2.2-.1s.3.3.3.4a17,17,0,0,0,1.9,1.9,7.2,7.2,0,0,0,2.4,1h.5l2.4,2.4,4.3,3.8,2.3,1.9a10.9,10.9,0,0,1,1.7,1.3,17.8,17.8,0,0,1,2.6,3.1,34.8,34.8,0,0,1,2.2,3.6c.5,1,1,2.1,1.4,3.1a3,3,0,0,1,.4,1,.8.8,0,0,1,.2.5h0l-.3.4a14,14,0,0,0-.9,1.7,6.2,6.2,0,0,0-.2,5.2l.8,1.3a12.2,12.2,0,0,0,1.7,1.5c.4.4,2.3,1.9,1.2,1.9l-1.3-.2-1.5-.6a20,20,0,0,1-2.8-1.6,10.4,10.4,0,0,1-3.5-3.8,19.8,19.8,0,0,1-1.3-4.4,4.1,4.1,0,0,0-2-3,7.8,7.8,0,0,0-2.5-.7h-1a2.5,2.5,0,0,1-3.7.6,9.1,9.1,0,0,1-1.7-1.7l-1.9-2.4-1.5-1.7-1.3-1a12.3,12.3,0,0,0-1.9-.2,4.3,4.3,0,0,1-2.2-1.2c-.2-.3-.2-.6.2-.7s.6,0,.9,0a3.2,3.2,0,0,0,2.7-1,1.5,1.5,0,0,0,.7-1.2,2.7,2.7,0,0,0-.3-1.5,10.2,10.2,0,0,0-2.1-2.8,13.4,13.4,0,0,0-2.1-2l-.3-.3v-.6a2.2,2.2,0,0,0-1.8-2.2,3.6,3.6,0,0,0-1.4-.2.9.9,0,0,0-.6.4c0,.1-.1.3,0,.4v.4h-.5a1.4,1.4,0,0,1-.9-.3c-.6-.4-.6-1-.8-1.4a3.7,3.7,0,0,1-.2-1.8,6.1,6.1,0,0,1,.5-1.2l.5-.9.3-.5s.2-.2.1-.2l-.3-.3-.6-.5a2.6,2.6,0,0,1-.9-1.3.8.8,0,0,1,.2-.7c.1-.2.3-.3.2-.6s-.4-.8-.7-1.2-.6-.6-.3-.7h.8C810.7,219.3,810.6,219.2,810.5,219Z" fill="#d7e0ee"></path><path d="M812,233.5a.9.9,0,0,1,.7-.3l.6.3.7.4c.1.1.3.1.3.3s-.1.3-.2.4a1.4,1.4,0,0,0-.2.7v.4c0,.2-.2.2-.4.2h-.9c-.5,0-.7.3-1.1.4s-.5-.4-.5-.5a4.2,4.2,0,0,0-.4-1l-.3-.4c-.1-.1,0-.1.1-.2a4,4,0,0,0,1.1,0C811.9,234.1,812.2,233.9,812,233.5Z" fill="#d7e0ee"></path><path d="M790.9,226.7a4.1,4.1,0,0,1,1.9.1,2.2,2.2,0,0,1,1,.9,1.8,1.8,0,0,0,1,.9h.2c0,.1-.3.1-.4.1l-1.6.4a1.2,1.2,0,0,1-1,0,1,1,0,0,1-.4-.5l-.6-.6c-.3-.3-.6-.6-.4-.9Z" fill="#d7e0ee"></path><path d="M798.9,230.3a1,1,0,0,1,1.1-.3,2,2,0,0,1,1,.8.6.6,0,0,1,.1.9c-.5.4-2,.2-2.9-.2a1.4,1.4,0,0,1-.7-.6c0-.2.1-.2.2-.3a.8.8,0,0,0,.2-.4c0-.1-.1-.5.2-.4Z" fill="#d7e0ee"></path><path d="M803.6,232.2a1.8,1.8,0,0,0-1.7.6c-.2.4-.4,1.8,1,1.8h1.2l.5-.5.6-.4.6-.3.2-.3c0-.2-.4-.3-.6-.4l-.9-.5-.5-.3C803.7,231.9,803.6,232.1,803.6,232.2Z" fill="#d7e0ee"></path><path d="M808,230.7c.3,0,.7.1.8.4s.5.3.8.4l.5.2c.1.2.3.5.1.6h-1.4c-.5-.1-.5-.5-.8-.7a1,1,0,0,0-.5-.4H807v-.2a.4.4,0,0,1,0-.5A1.5,1.5,0,0,1,808,230.7Z" fill="#d7e0ee"></path><path d="M847.6,254.5c-.1-.3-.2-.6,0-.8s.9-.2,1.4.1,2.3,1.3,3.5,1.8a7.9,7.9,0,0,0,2,.4l1.1-.2h1.3l2.4.6a7.1,7.1,0,0,1,1.7,1.1c1,1,2.2,2.1,2.3,3.1a.7.7,0,0,1-.6.9c-.4,0-.8-.5-1.1-.7a6.9,6.9,0,0,0-1.3-1.1c-.2-.2-.4-.2-.7-.3l-.6-.3a3.3,3.3,0,0,0-1.3-.7,5.2,5.2,0,0,0-2.2.2c-1.1.2-2.7.5-4-.4a2.7,2.7,0,0,1-.8-.7,11.4,11.4,0,0,1-1.1-1.1l-1.8-1.6C847.8,254.7,847.7,254.6,847.6,254.5Z" fill="#d7e0ee"></path><path d="M861.6,262.1a1.4,1.4,0,0,1,1.1.1c.5.3.8.7.6,1s-.4.5-.5.8.6.8.9,1.2a.9.9,0,0,1-.7,1.5,1.6,1.6,0,0,1-1.3-.6,1.4,1.4,0,0,1-.7-1.4,2.6,2.6,0,0,1,.5-.9.6.6,0,0,0,.2-.6A1.4,1.4,0,0,1,861.6,262.1Z" fill="#d7e0ee"></path><path d="M862.2,268.5a.5.5,0,0,1,.5-.3c.3,0,.7.5.8.7s-.1.3,0,.4a.8.8,0,0,0,.2.4l.8.7c.6.6,1.3,1.7.4,1.9h-.7a1.1,1.1,0,0,1-.7-.3,1.6,1.6,0,0,1-.6-1.3c0-.3.1-.5.1-.7a.9.9,0,0,0-.1-.5l-.4-.2c-.1-.1-.1-.3-.2-.4S862.2,268.6,862.2,268.5Z" fill="#d7e0ee"></path><path d="M863.9,267.3c.1-.2.6-.6.9-.4l.3.3c0,.1.1.2.2.4a2.4,2.4,0,0,1,.6.9,1.1,1.1,0,0,1,.2.9.4.4,0,0,1-.4.4c-.6-.1-1.1-.8-1.3-1.1a4.1,4.1,0,0,1-.5-.9A.4.4,0,0,1,863.9,267.3Z" fill="#d7e0ee"></path><path d="M866.6,270.8h.7l.7.4c.1.2.2.3.2.5s.1.8.5,1.3.6.6.5.9a1.4,1.4,0,0,1-.3.9l-.3.2a.7.7,0,0,1-.5-.4c-.4-.3-.9-.8-.9-1.1s.2-.3.3-.4a.6.6,0,0,0-.1-.4c-.3-.4-.9-.8-.7-1.2l.3-.3Z" fill="#d7e0ee"></path><path d="M866.1,274.9l.3-.2c.5-.1.8.5,1.1.7s2.1.2,2.5-.1l.3-.3a.3.3,0,0,1,.4,0,1,1,0,0,1,.9,1,1.1,1.1,0,0,1-.2.6l-.3.3c-.3.4.1,1,.3,1.5s.3,1-.1,1.3l-.7.2-.5.2c-.1.2.2.5.4.7s.2.4-.2.5-2.1-.6-2.2-1.2.2-.3.3-.4l.4-.3.7-.8c0-.2.1-.5-.3-.6a1.2,1.2,0,0,0-.8-.2l-1-.4a5,5,0,0,1-1.3-1.2c-.2-.4-.5-.8-.3-1.1l.3-.2Z" fill="#d7e0ee"></path><path d="M804.2,163.3l1.8-.2,1.4-.5,1.1-.6h.9c.3.1.5.4.7.5a2.3,2.3,0,0,1,.2,2.1,5.5,5.5,0,0,1-1.2,1.9,6.2,6.2,0,0,1-2.1,1.3,2.9,2.9,0,0,1-2.1.1,3.1,3.1,0,0,1-1.9-1.6,1.5,1.5,0,0,1,0-1.7h.3l.7-.2c.4-.1.5-.4.3-.8Z" fill="#d7e0ee"></path><path d="M832.1,166.1c.4.1,1.4.1,1.4.5s-.8.5-1.3.6a2.9,2.9,0,0,0-1.1.3,2.2,2.2,0,0,1-1.1.5c-.8.2-1.6.3-1.6,1a.5.5,0,0,1-.4.5h-.9c-.6-.2-1.3-.6-1.4-1s.1-.3.1-.4v-.6c-.1-.2-.1-.4.2-.5a2.6,2.6,0,0,1,1.5.1h1.1c.3-.1.4-.4.7-.5l1-.3Z" fill="#d7e0ee"></path><path d="M814.4,166.9c.7-.1,1.2.6,1.8.9l.8.4c.3.2-.1.4-.2.4a1.9,1.9,0,0,1-2-.3c-.1-.2-.1-.3-.2-.4s0-.2-.2-.3H814C813.9,167.5,814.3,167,814.4,166.9Z" fill="#d7e0ee"></path><path d="M818.9,167.9c.1-.1.2-.3.5-.2a1,1,0,0,1,.8.4l.7.3.2.2c0,.2-.3.3-.5.4s-.9.3-1.1-.1a.4.4,0,0,1-.1-.3l-.3-.2C818.8,168.2,818.8,168.1,818.9,167.9Z" fill="#d7e0ee"></path><path d="M786,189.9l-.5-.3c-.4-.2-.3-.4-.3-.6s-.1-.4.2-.5l.8-.2,1.6-.3a18.7,18.7,0,0,1,2.2-.7l2.2-.2c.7-.1,1.4-.2,1.7-.6s.1-1,.5-1.3a1.8,1.8,0,0,1,1.5-.2,2.4,2.4,0,0,1,1.1.8c0,.2.1.5.1.7s.1.3,0,.5-.7.5-1.3.6-1.6,0-1.9.5,0,.7-.2,1-1,.3-1.6.2a4.7,4.7,0,0,0-2.1.1l-.2.3a1.2,1.2,0,0,1-1.3.1l-.5-.2c-.1,0-.1.1-.1.2s-.2,1.1-1.1.6Z" fill="#d7e0ee"></path><path d="M789.1,197.5a1.5,1.5,0,0,1,1.1.2l.7.4c.1.1.2.1.2.2s-.2.3-.3.4a.5.5,0,0,1-.4.2c-.4.1-.8-.5-1.2-.6v-.2A.6.6,0,0,0,789.1,197.5Z" fill="#d7e0ee"></path><path d="M793,197.6c.4-.3,1.2.5,1.4.8l1.1.5h-.3l-1.1.4H794l-.2-.2a.9.9,0,0,0-.6-.6h-.6c-.1,0-.1-.2-.1-.3v-.5a.4.4,0,0,1,.1-.3Z" fill="#d7e0ee"></path><path d="M795.7,197.5a.9.9,0,0,0,.3.6c.1.2.3.2.5.2h.4c.2.1.1.4.2.5s.5.2.7,0,.1-.6.4-.8.9-.1,1.4,0l.8.2h.6c.4.2.1.6,0,.8a3.2,3.2,0,0,0-.3.9c0,.3.3.6.5.9l1,1.5.8,1.3.4.3h.5l1.3.5c.6.2.8-.2.8-.5s-.3-.7-.3-1,.1-.3.3-.4l.7-.4a.4.4,0,0,1,.5-.1.7.7,0,0,1,.4.6,3.8,3.8,0,0,0,.3,1c.1.3.5.1.6,0l1.6-.9a1.6,1.6,0,0,0,.9-.5.9.9,0,0,0,.1-1,2,2,0,0,1,0-1.1,5.3,5.3,0,0,0,.2-2.2,1,1,0,0,0-.5-.8,2.1,2.1,0,0,0-1.3-.3l-1.2.4-1.1.2-.6-.2H806c-.3,0-.5.2-.8.3a1.1,1.1,0,0,1-.9-.5,5.6,5.6,0,0,0-2-1.2c-.5-.1-1.3-.3-1.5-.1s0,.4-.4.4-2.2-1.2-2.5-.6a4.9,4.9,0,0,0-.4,1.1c-.1.3-.3.4-.6.5S795.5,197,795.7,197.5Z" fill="#d7e0ee"></path><path d="M800.4,190a1.4,1.4,0,0,1,.1-1.1c.1-.2.3-.3.7-.3l.6.3.9.6a4.7,4.7,0,0,1,.6.9c.2.3.6.3.9.4s.8.7.7,1.1a.9.9,0,0,1-.3.6c-.1.1-.3.2-.4.4s.2.7.5,1.1a2.4,2.4,0,0,1,.4,1.3c0,.2-.2.4-.7.2a2.5,2.5,0,0,0-1.5-.2h-.6c-.2-.2-.3-.3-.5-.3h-.4l-.3.2a.3.3,0,0,1-.3-.3l-.4-.5a.6.6,0,0,1,.2-.9.5.5,0,0,1,.5-.3c.1,0,.2.1.3,0s0-.1,0-.1l-.4-.8c0-.1.1-.2.2-.4s.1-.1,0-.3l-.6-.6c-.2-.2-.4-.4-.4-.6S800.2,190.1,800.4,190Z" fill="#d7e0ee"></path><path d="M807.6,190.9a1.2,1.2,0,0,1,.9-.3,5.2,5.2,0,0,1,1.5.6,3.2,3.2,0,0,1,1.2,1.1,1.1,1.1,0,0,1-.3,1.5l-.7.4c-.4.1-.5.4-.6.7a2.2,2.2,0,0,1-.5,1.1.9.9,0,0,1-.9.3h-.8a.4.4,0,0,1-.6-.2,1.3,1.3,0,0,1-.3-.5l-.4-.5c-.3-.3-.4-.5-.2-.8s.4-.4.2-.5-.3,0-.4-.2.1-.2.1-.2l.5-.5.9-.3c.3,0,.3-.2.3-.4a1.7,1.7,0,0,1,0-1.2Z" fill="#d7e0ee"></path><path d="M801.9,174.5c0-.1,0-.3.3-.3l.9.3,1.3.6c.5.2,1.1.2,1.3.6a5.6,5.6,0,0,1,.5.8l.7.8a1.6,1.6,0,0,1,.6.8,1.6,1.6,0,0,0,0,.7c.1.4.4.8.2,1.2s-1.1.7-1.9.7-1.2,0-1.4.3-.2.5-.4.7h-.6c-.3.1-.7,0-.5.3a2.3,2.3,0,0,0,.7,1l.6.7a3.8,3.8,0,0,0,1.2.9c.6.3,1.3.6,1.4,1.1s-.2.4,0,.6l.5.2a4.9,4.9,0,0,1,1.6.5,2.5,2.5,0,0,1,.5.8.8.8,0,0,1-.1.8,1.2,1.2,0,0,1-.9.3h-.5l-.7-.2c-.6-.1-.5.5-.5.8a1.7,1.7,0,0,1,.1.7.8.8,0,0,1-.2.5.6.6,0,0,1-.5.2l-.9-.4c-.2-.2-.5-.3-.5-.5s.1-.3.1-.4a.7.7,0,0,0,.2-.6,2.5,2.5,0,0,0-.4-1.1l-.4-.8c0-.2-.1-.3-.2-.5l-.3-.2-.9-.5-.8-1a1.2,1.2,0,0,0-.8-.4c-.3,0-.4.3-.5.4a1.4,1.4,0,0,0,.1,1.1,4.1,4.1,0,0,1,.1,1.1.7.7,0,0,1-.3.6c-.4.2-1-.3-1.1-.6s-.1-.4-.2-.5a3.1,3.1,0,0,0-.5-1l-.7-.9c-.1-.2-.3-.4-.3-.5s0-.3.1-.4l.7-.6c.3-.2.9-.4,1-.8s-.6-1.1-1-1.6a6.7,6.7,0,0,1-1.2-1.9c-.2-.6.1-1,.8-1.2s.4-.1.6.1h.3l.4-.3.9-.6c.8-.6,1.6-1.3,1.6-2.2A.4.4,0,0,0,801.9,174.5Z" fill="#d7e0ee"></path><path d="M805.6,208a1.1,1.1,0,0,1,1.1-.8,2.9,2.9,0,0,1,1.3.8,4.2,4.2,0,0,1,.8,1.2.8.8,0,0,1-.2.9c-.3.2-1-.2-1.5-.4l-2.4-1.2-.9-.6-.5-.3c-.1-.3,1.4.2,1.6.2Z" fill="#d7e0ee"></path><path d="M814,255.7a8.1,8.1,0,0,0-8,7.8c0,5.8,8,14.5,8,14.5s7.9-8.7,7.9-14.5A7.9,7.9,0,0,0,814,255.7Zm0,10.6a3,3,0,1,1,.1-6,3,3,0,0,1,2.9,3,2.9,2.9,0,0,1-2.9,3Z" fill="#f59d17"></path><ellipse cx="814" cy="280.3" rx="2.2" ry="0.5" opacity="0.1"></ellipse><path d="M862.7,133.7a7.9,7.9,0,0,0-7.9,7.8c0,5.9,7.9,14.5,7.9,14.5s8-8.6,8-14.5A8,8,0,0,0,862.7,133.7Zm0,10.6a3,3,0,0,1-2.9-3,2.9,2.9,0,0,1,3-3,3,3,0,0,1,2.9,3,2.9,2.9,0,0,1-2.9,3Z" fill="#f59d17"></path><ellipse cx="862.7" cy="158.3" rx="2.2" ry="0.5" opacity="0.1"></ellipse><path d="M851.1,136.5a8,8,0,0,0-8,7.8c0,5.8,8,14.4,8,14.4s7.9-8.6,7.9-14.4A7.8,7.8,0,0,0,851.1,136.5Zm0,10.6a3,3,0,0,1-3-3,3.1,3.1,0,0,1,3-3,3,3,0,0,1,0,6Z" fill="#f59d17"></path><ellipse cx="851.1" cy="161" rx="2.2" ry="0.5" opacity="0.1"></ellipse><path d="M821.1,114.8a7.9,7.9,0,0,0-7.9,7.8c0,5.8,7.9,14.5,7.9,14.5s8-8.7,8-14.5A8.1,8.1,0,0,0,821.1,114.8Zm0,10.6a3,3,0,0,1,.1-6,3,3,0,0,1,2.9,3,2.9,2.9,0,0,1-2.9,3Z" fill="#f59d17"></path><ellipse cx="821.1" cy="139.4" rx="2.2" ry="0.5" opacity="0.1"></ellipse><path d="M795,105.7a7.8,7.8,0,0,0-8,7.7c0,5.9,8,14.5,8,14.5s7.9-8.6,7.9-14.5A7.7,7.7,0,0,0,795,105.7Zm0,10.5a2.9,2.9,0,0,1-3-3,3,3,0,0,1,3-2.9,2.9,2.9,0,0,1,3,3,3,3,0,0,1-3,2.9Z" fill="#f59d17"></path><ellipse cx="795" cy="130.2" rx="2.2" ry="0.5" opacity="0.1"></ellipse><path d="M772.8,105.7a7.7,7.7,0,0,0-7.9,7.7c0,5.9,7.9,14.5,7.9,14.5s8-8.6,8-14.5A7.8,7.8,0,0,0,772.8,105.7Zm0,10.5a3,3,0,1,1,.1-5.9,2.9,2.9,0,0,1,2.9,3,2.9,2.9,0,0,1-2.9,2.9Z" fill="#f59d17"></path><ellipse cx="772.8" cy="130.2" rx="2.2" ry="0.5" opacity="0.1"></ellipse><path d="M669.2,110.3a8,8,0,0,0-8,7.8c0,5.9,8,14.5,8,14.5s7.9-8.6,7.9-14.5A8,8,0,0,0,669.2,110.3Zm0,10.6a3,3,0,1,1,3-2.9,3,3,0,0,1-3,2.9Z" fill="#f59d17"></path><ellipse cx="669.2" cy="134.9" rx="2.2" ry="0.5" opacity="0.1"></ellipse><path d="M680.1,119.7a7.8,7.8,0,0,0-8,7.7c0,5.9,8,14.5,8,14.5s7.9-8.6,7.9-14.5A7.8,7.8,0,0,0,680.1,119.7Zm0,10.5a2.9,2.9,0,0,1-3-3,3,3,0,0,1,3-2.9,2.9,2.9,0,0,1,3,3,3,3,0,0,1-3,2.9Z" fill="#f59d17"></path><ellipse cx="680.1" cy="144.2" rx="2.2" ry="0.5" opacity="0.1"></ellipse><path d="M608,75.5a8,8,0,0,0-7.9,7.8c0,5.9,7.9,14.5,7.9,14.5s8-8.6,8-14.5A8,8,0,0,0,608,75.5Zm0,10.6a3,3,0,1,1,.1-5.9,3,3,0,0,1,3,3,3.1,3.1,0,0,1-3,2.9Z" fill="#f59d17"></path><ellipse cx="608" cy="100.1" rx="2.2" ry="0.5" opacity="0.1"></ellipse><path d="M488.2,8.1a8.1,8.1,0,0,0-8,7.8c0,5.9,8,14.5,8,14.5s7.9-8.6,7.9-14.5A7.9,7.9,0,0,0,488.2,8.1Zm0,10.6a3,3,0,1,1,.1-5.9,3,3,0,0,1,0,5.9Z" fill="#f59d17"></path><ellipse cx="488.2" cy="32.7" rx="2.2" ry="0.5" opacity="0.1"></ellipse><path d="M438.5,23.6a7.9,7.9,0,0,0-7.9,7.8c0,5.9,7.9,14.5,7.9,14.5s8-8.6,8-14.5A8,8,0,0,0,438.5,23.6Zm0,10.6a3,3,0,0,1,.1-5.9,3,3,0,0,1,0,5.9Z" fill="#f59d17"></path><ellipse cx="438.5" cy="48.2" rx="2.2" ry="0.5" opacity="0.1"></ellipse><path d="M466.4,24.7a7.9,7.9,0,0,0-8,7.8c0,5.8,8,14.5,8,14.5s7.9-8.7,7.9-14.5A7.8,7.8,0,0,0,466.4,24.7Zm0,10.6a3,3,0,1,1,3-3,3.1,3.1,0,0,1-3,3Z" fill="#f59d17"></path><ellipse cx="466.4" cy="49.2" rx="2.2" ry="0.5" opacity="0.1"></ellipse><path d="M429.7,47.7a8.1,8.1,0,0,0-8,7.8c0,5.8,8,14.5,8,14.5s7.9-8.7,7.9-14.5A7.9,7.9,0,0,0,429.7,47.7Zm0,10.6a3,3,0,1,1,.1-6,3,3,0,0,1,2.9,3,2.9,2.9,0,0,1-2.9,3Z" fill="#f59d17"></path><ellipse cx="429.7" cy="72.3" rx="2.2" ry="0.5" opacity="0.1"></ellipse><path d="M500.7,183.6a7.8,7.8,0,0,0-7.9,7.8c0,5.8,7.9,14.4,7.9,14.4s8-8.6,8-14.4A7.9,7.9,0,0,0,500.7,183.6Zm0,10.6a3,3,0,0,1-2.9-3,3,3,0,1,1,5.9,0,3,3,0,0,1-2.9,3Z" fill="#f59d17"></path><ellipse cx="500.7" cy="208.1" rx="2.2" ry="0.5" opacity="0.1"></ellipse><path d="M92.9,146.3a8,8,0,0,0-8,7.8c0,5.9,8,14.5,8,14.5s7.9-8.6,7.9-14.5A7.9,7.9,0,0,0,92.9,146.3Zm0,10.6a3,3,0,1,1,3-2.9,3,3,0,0,1-3,2.9Z" fill="#f59d17"></path><ellipse cx="92.9" cy="170.9" rx="2.2" ry="0.5" opacity="0.1"></ellipse><path d="M84.9,151a7.9,7.9,0,0,0-7.9,7.8c0,5.9,7.9,14.5,7.9,14.5s8-8.6,8-14.5A8,8,0,0,0,84.9,151Zm0,10.6a3,3,0,0,1,.1-6,3.1,3.1,0,0,1,2.9,3,2.9,2.9,0,0,1-2.9,3Z" fill="#f59d17"></path><ellipse cx="84.9" cy="175.6" rx="2.2" ry="0.5" opacity="0.1"></ellipse><path d="M104.1,155.4a7.8,7.8,0,0,0-7.9,7.8c0,5.8,7.9,14.5,7.9,14.5s8-8.7,8-14.5A7.9,7.9,0,0,0,104.1,155.4Zm0,10.6a3,3,0,0,1-2.9-3,3,3,0,1,1,5.9,0,3,3,0,0,1-2.9,3Z" fill="#f59d17"></path><ellipse cx="104.1" cy="179.9" rx="2.2" ry="0.5" opacity="0.1"></ellipse><path d="M246.8,60.3a7.8,7.8,0,0,0-7.9,7.8c0,5.8,7.9,14.4,7.9,14.4s8-8.6,8-14.4A7.9,7.9,0,0,0,246.8,60.3Zm0,10.5a2.9,2.9,0,0,1-2.9-3,3,3,0,1,1,3,3Z" fill="#f59d17"></path><ellipse cx="246.8" cy="84.8" rx="2.2" ry="0.5" opacity="0.1"></ellipse><path d="M207.4,103.9a7.9,7.9,0,0,0-8,7.8c0,5.8,8,14.4,8,14.4s7.9-8.6,7.9-14.4A7.8,7.8,0,0,0,207.4,103.9Zm0,10.6a3.1,3.1,0,0,1-3-3.1,3,3,0,0,1,6,.1,3.1,3.1,0,0,1-3,3Z" fill="#f59d17"></path><ellipse cx="207.4" cy="128.4" rx="2.2" ry="0.5" opacity="0.1"></ellipse><path d="M197.3,106a8,8,0,0,0-8,7.8c0,5.9,8,14.5,8,14.5s7.9-8.6,7.9-14.5A7.9,7.9,0,0,0,197.3,106Zm0,10.6a3,3,0,0,1-3-3,3,3,0,1,1,6,.1,2.9,2.9,0,0,1-3,2.9Z" fill="#f59d17"></path><ellipse cx="197.3" cy="130.6" rx="2.2" ry="0.5" opacity="0.1"></ellipse><path d="M326.9,187.1a7.7,7.7,0,0,0-7.9,7.7c0,5.9,7.9,14.5,7.9,14.5s8-8.6,8-14.5A7.8,7.8,0,0,0,326.9,187.1Zm0,10.5a2.9,2.9,0,0,1-2.9-3,3,3,0,1,1,3,3Z" fill="#f59d17"></path><ellipse cx="326.9" cy="211.6" rx="2.2" ry="0.5" opacity="0.1"></ellipse><path d="M184.6,98.1a7.9,7.9,0,0,0-7.9,7.8c0,5.9,7.9,14.5,7.9,14.5s8-8.6,8-14.5A8,8,0,0,0,184.6,98.1Zm0,10.6a3,3,0,1,1,.1-5.9,3,3,0,0,1,0,5.9Z" fill="#f59d17"></path><ellipse cx="184.6" cy="122.7" rx="2.2" ry="0.5" opacity="0.1"></ellipse><path d="M447.8,31.5a7.9,7.9,0,0,0-7.9,7.8c0,5.9,7.9,14.5,7.9,14.5s8-8.6,8-14.5A8,8,0,0,0,447.8,31.5Zm0,10.6a3,3,0,0,1,.1-6,3.1,3.1,0,0,1,2.9,3.1,2.9,2.9,0,0,1-2.9,2.9Z" fill="#f59d17"></path><ellipse cx="447.8" cy="56.1" rx="2.2" ry="0.5" opacity="0.1"></ellipse><path d="M476.5,39.2a7.9,7.9,0,0,0-7.9,7.8c0,5.8,7.9,14.5,7.9,14.5s8-8.7,8-14.5A8,8,0,0,0,476.5,39.2Zm0,10.6a3,3,0,0,1,.1-6,3,3,0,0,1,2.9,3,2.9,2.9,0,0,1-2.9,3Z" fill="#f59d17"></path><ellipse cx="476.5" cy="63.8" rx="2.2" ry="0.5" opacity="0.1"></ellipse><path d="M459.8,39.2a7.9,7.9,0,0,0-7.9,7.8c0,5.8,7.9,14.5,7.9,14.5s8-8.7,8-14.5A8.1,8.1,0,0,0,459.8,39.2Zm0,10.6a3,3,0,0,1,.1-6,3,3,0,0,1,2.9,3,2.9,2.9,0,0,1-2.9,3Z" fill="#f59d17"></path><ellipse cx="459.8" cy="63.8" rx="2.2" ry="0.5" opacity="0.1"></ellipse><path d="M417.5,25a7.9,7.9,0,0,0-8,7.8c0,5.8,8,14.4,8,14.4s7.9-8.6,7.9-14.4A7.8,7.8,0,0,0,417.5,25Zm0,10.5a2.9,2.9,0,0,1-3-3,3,3,0,0,1,3-2.9,3,3,0,1,1,0,5.9Z" fill="#f59d17"></path><ellipse cx="417.5" cy="49.5" rx="2.2" ry="0.5" opacity="0.1"></ellipse><path d="M787,133.6a7.9,7.9,0,0,0-7.9,7.8c0,5.9,7.9,14.5,7.9,14.5s8-8.6,8-14.5A8,8,0,0,0,787,133.6Zm0,10.6a3,3,0,0,1,.1-6,3.1,3.1,0,0,1,2.9,3.1,2.9,2.9,0,0,1-2.9,2.9Z" fill="#f59d17"></path><ellipse cx="787" cy="158.2" rx="2.2" ry="0.5" opacity="0.1"></ellipse><path d="M777.2,263.3a7.9,7.9,0,0,0-7.9,7.8c0,5.8,7.9,14.5,7.9,14.5s8-8.7,8-14.5A8,8,0,0,0,777.2,263.3Zm0,10.6a3,3,0,0,1,.1-6,3,3,0,0,1,2.9,3,2.9,2.9,0,0,1-2.9,3Z" fill="#f59d17"></path><ellipse cx="777.2" cy="287.9" rx="2.2" ry="0.5" opacity="0.1"></ellipse></svg>