<?xml version="1.0" encoding="utf-8"?>
<!-- Generator: Adobe Illustrator 23.1.0, SVG Export Plug-In . SVG Version: 6.00 Build 0)  -->
<svg version="1.1" id="Layer_1" xmlns="http://www.w3.org/2000/svg" xmlns:xlink="http://www.w3.org/1999/xlink" x="0px" y="0px"
	 viewBox="0 0 301.6 169.2" style="enable-background:new 0 0 301.6 169.2;" xml:space="preserve">
<style type="text/css">
	.st0{fill:#25A9DE;}
</style>
<path class="st0" d="M300.1,110c0-2.1-0.6-4.3-0.7-4.6c-2.6-20.1-20.7-36.7-40.6-38.1c-1.9-0.1-10.4-8.3-12.2-9.4
	c-15.9-10.3-35.3-15.2-54.2-13.6c-3.5,0.3-7.4,0.7-10.4-1.2c-2.6-1.7-3.9-4.8-5.2-7.6c-9.5-20.3-31-34.3-53.3-34.8
	S79.1,13.2,68.7,33c-1.6,3-3,6.3-5.5,8.7c-3.9,3.8-9.7,4.6-15,5.9C23.4,53.9,3.9,77.5,2.5,103.2c-2.4,44.4,46.2,78.1,86,62.5
	c0.6-0.3,1.3-0.4,2-0.4l0,0c46.9,0.1,94,2.1,141,2.2c11.4,0,22.8-1.8,33.5-5.6C286.1,154.5,300.4,138.7,300.1,110z M286.7,120.2
	c-2.8,12.6-13.4,23.4-25.6,28.7c-14.9,6.5-31.7,6.6-48,6.6c-36.6,0-128-3.5-131.4-2.1c-16.6,6.7-38-0.6-50.9-13
	c-13-12.4-17.7-32.6-11.8-49.5c5.9-16.9,22.4-29.6,40.2-31.1c4.9-0.4,10.5-0.2,14.1-3.7c2.6-2.5,3.4-6.1,4.5-9.5
	C84,27.7,103.2,14,122.9,14.4c19.8,0.3,38.5,14.6,44,33.6c1.2,4.1,2.1,8.9,5.8,11.1c3.5,2.1,8,0.9,12.1,0
	c17.5-3.8,36.5-0.5,51.5,9.2c2.5,1.6,3.8,2.2,6.8,4.7c0.7,0.6,0.5,0.6,0.9,1c0.9,0.8,5,6,6.9,6.7c3.8,1.3,11.7,1.2,11.9,1.2
	c15.9,4,23.2,13.1,24.5,29.5C287.6,114.4,287.3,117.3,286.7,120.2z"/>
</svg>
