<svg version="1.2" xmlns="http://www.w3.org/2000/svg" viewBox="0 0 182 116" width="182" height="116"><style>.a{fill:#25a9de}</style><path fill-rule="evenodd" class="a" d="m15.8 57.2c2.4-1.5 2.9-2.7 2.6-5.5-2.6-21.2 8.8-40.6 27.9-48 19.7-7.7 41.2-1.2 53.8 16.6 1.7 2.4 2.8 3.2 5.8 2 17.2-6.7 35.3 1.3 42.1 18.6 1 2.5 2.4 3.5 4.9 4.1 19.1 4.8 30.3 21.1 27.9 40.2-2.2 18-17.6 30.9-37.1 30.9q-27.4 0-54.9 0c-18.7 0-37.3 0-56 0-15 0-27.1-8.9-31.1-22.7-4.1-14.1 1.3-28.3 14.1-36.2zm13.9 46.5c4.3 0.8 8.9 1 13.3 1 27.6 0.2 55.3 0.4 82.9 0.7 8.8 0.1 17.8 0.1 26-3 15.2-5.7 23.1-24 12.3-37.6-4.2-5.3-10.8-8.6-17.5-8.8-2.2-0.1-4.6 0.1-6.3-1.3-1.8-1.5-2-4-2.6-6.3-2-8.7-10.1-15.7-19-16.3-6.4-0.4-12.9 2.5-17.2 7.3-2 2.2-5.6 1.7-6.7-1.1-4-9.8-9.3-19.2-18.7-23.7-5.5-2.7-11.9-3.2-17.9-2.3-10.5 1.6-20.7 7.9-25 17.7-4.1 9.1-2.8 19.4-0.9 29.3 0.4 2.1-0.9 4.1-3 4.6-6.3 1.7-12.1 5.8-15.1 11.7-3.6 6.9-2.8 16.1 2.6 21.8 3.5 3.6 8 5.4 12.8 6.3z"/></svg>