<?xml version="1.0" encoding="utf-8"?>
<!-- Generator: Adobe Illustrator 23.1.0, SVG Export Plug-In . SVG Version: 6.00 Build 0)  -->
<svg version="1.1" id="Layer_1" xmlns="http://www.w3.org/2000/svg" xmlns:xlink="http://www.w3.org/1999/xlink" x="0px" y="0px"
	 viewBox="0 0 184.1 118.8" style="enable-background:new 0 0 184.1 118.8;" xml:space="preserve">
<style type="text/css">
	.st0{fill:#25A9DE;}
</style>
<path class="st0" d="M167.2,58.2c-2.4-1.5-2.9-2.7-2.6-5.5c2.6-21.2-8.8-40.6-27.9-48C117-3,95.5,3.5,82.9,21.3
	c-1.7,2.4-2.8,3.2-5.8,2C59.9,16.6,41.8,24.6,35,41.9c-1,2.5-2.4,3.5-4.9,4.1C11,50.8-0.2,67.1,2.2,86.2c2.2,18,17.6,30.9,37.1,30.9
	c18.3,0,36.6,0,54.9,0c18.7,0,37.3,0,56,0c15,0,27.1-8.9,31.1-22.7C185.4,80.3,180,66.1,167.2,58.2z M153.3,104.7
	c-4.3,0.8-8.9,1-13.3,1c-27.6,0.2-55.3,0.4-82.9,0.7c-8.8,0.1-17.8,0.1-26-3c-15.2-5.7-23.1-24-12.3-37.6c4.2-5.3,10.8-8.6,17.5-8.8
	c2.2-0.1,4.6,0.1,6.3-1.3c1.8-1.5,2-4,2.6-6.3c2-8.7,10.1-15.7,19-16.3c6.4-0.4,12.9,2.5,17.2,7.3c2,2.2,5.6,1.7,6.7-1.1
	c4-9.8,9.3-19.2,18.7-23.7c5.5-2.7,11.9-3.2,17.9-2.3c10.5,1.6,20.7,7.9,25,17.7c4.1,9.1,2.8,19.4,0.9,29.3c-0.4,2.1,0.9,4.1,3,4.6
	c6.3,1.7,12.1,5.8,15.1,11.7c3.6,6.9,2.8,16.1-2.6,21.8C162.6,102,158.1,103.8,153.3,104.7z"/>
</svg>
