<?xml version="1.0" encoding="utf-8"?>
<!-- Generator: Adobe Illustrator 16.0.0, SVG Export Plug-In . SVG Version: 6.00 Build 0)  -->
<!DOCTYPE svg PUBLIC "-//W3C//DTD SVG 1.1//EN" "http://www.w3.org/Graphics/SVG/1.1/DTD/svg11.dtd">
<svg version="1.1" id="Layer_1" xmlns="http://www.w3.org/2000/svg" xmlns:xlink="http://www.w3.org/1999/xlink" x="0px" y="0px"
	 width="678px" height="109.7px" viewBox="0 0 678 109.7" enable-background="new 0 0 678 109.7" xml:space="preserve">
<path fill="#A5745A" d="M56.839,88.431c0,6.418-2.125,11.374-6.375,14.868c-4.253,3.495-10.612,5.242-19.078,5.242H4.823V40.345
	h25.906c3.63,0,6.898,0.403,9.804,1.21c2.906,0.805,5.369,1.964,7.384,3.478c2.015,1.513,3.553,3.335,4.612,5.468
	c1.058,2.136,1.589,4.544,1.589,7.234c0,3.394-0.816,6.324-2.447,8.795c-1.629,2.469-4.105,4.479-7.433,6.024
	c2.15,0.537,4.007,1.317,5.568,2.342c1.564,1.025,2.874,2.219,3.934,3.579c1.057,1.36,1.838,2.891,2.342,4.586
	C56.587,84.76,56.839,86.551,56.839,88.431 M17.777,68.167h12.348c3.832,0,6.654-0.661,8.468-1.99
	c1.814-1.326,2.721-3.585,2.721-6.778c0-1.411-0.209-2.648-0.631-3.705c-0.418-1.057-1.1-1.932-2.039-2.622
	c-0.942-0.687-2.16-1.209-3.654-1.561c-1.498-0.355-3.336-0.529-5.52-0.529H17.777V68.167z M17.777,97.904H30.63
	c4.333,0,7.561-0.78,9.675-2.342c2.117-1.562,3.177-3.958,3.177-7.182c0-1.681-0.236-3.127-0.706-4.334
	c-0.472-1.211-1.234-2.203-2.294-2.977c-1.057-0.771-2.46-1.344-4.207-1.712c-1.749-0.37-3.883-0.555-6.402-0.555H17.777V97.904z"/>
<path fill="#A5745A" d="M135.209,108.541h-14.012l-6-16.987c-0.536-1.476-1.207-2.839-2.015-4.081
	c-0.807-1.242-1.757-2.302-2.846-3.177c-1.092-0.872-2.294-1.543-3.604-2.016c-1.312-0.469-2.758-0.704-4.336-0.704H89.694v26.965
	H76.64V40.346h30.293c2.552,0,4.913,0.11,7.081,0.327c2.168,0.22,4.159,0.614,5.973,1.186c1.814,0.572,3.442,1.361,4.889,2.367
	c1.443,1.009,2.704,2.321,3.78,3.933c2.184,3.226,3.276,7.089,3.276,11.591c0,4.806-1.277,8.696-3.831,11.669
	c-2.554,2.974-6.147,4.999-10.786,6.072v0.153c2.621,0.874,4.797,2.377,6.528,4.51c1.73,2.136,3.268,4.932,4.612,8.394
	L135.209,108.541z M89.694,70.891h15.876c2.321,0,4.301-0.193,5.949-0.579c1.647-0.387,3-0.993,4.057-1.816
	c1.06-0.821,1.841-1.89,2.345-3.199c0.504-1.312,0.756-2.89,0.756-4.738c0-3.394-1-5.896-2.999-7.51s-5.015-2.42-9.048-2.42H89.694
	V70.891z"/>
<path fill="#A5745A" d="M183.385,39.187c4.937,0,9.407,0.848,13.405,2.547c3.998,1.695,7.419,4.081,10.258,7.155
	c2.839,3.076,5.031,6.781,6.576,11.114c1.546,4.338,2.321,9.158,2.321,14.466c0,5.242-0.757,10.023-2.27,14.341
	c-1.511,4.317-3.679,8.031-6.501,11.138c-2.823,3.11-6.241,5.512-10.258,7.207c-4.014,1.699-8.527,2.547-13.531,2.547
	c-4.975,0-9.485-0.848-13.534-2.547c-4.051-1.695-7.502-4.089-10.36-7.18c-2.854-3.091-5.047-6.805-6.576-11.141
	c-1.529-4.333-2.294-9.123-2.294-14.365c0-5.308,0.772-10.128,2.318-14.466c1.546-4.333,3.748-8.038,6.603-11.114
	c2.858-3.074,6.301-5.46,10.333-7.155C173.908,40.034,178.41,39.187,183.385,39.187 M183.283,98.61c3.024,0,5.729-0.596,8.114-1.787
	c2.385-1.192,4.411-2.857,6.074-4.99c1.664-2.134,2.931-4.68,3.805-7.637c0.875-2.957,1.312-6.2,1.312-9.729
	c0-3.561-0.429-6.821-1.285-9.778c-0.858-2.956-2.109-5.5-3.756-7.636c-1.648-2.134-3.647-3.797-5.997-4.99
	c-2.353-1.192-5.042-1.787-8.066-1.787c-3.024,0-5.736,0.587-8.14,1.762c-2.402,1.178-4.444,2.831-6.124,4.964
	c-1.679,2.136-2.964,4.679-3.855,7.636s-1.336,6.233-1.336,9.829c0,3.528,0.445,6.771,1.336,9.729s2.176,5.503,3.855,7.637
	c1.68,2.133,3.706,3.798,6.075,4.99C177.662,98.015,180.326,98.61,183.283,98.61"/>
<polygon fill="#A5745A" points="291.189,108.541 278.033,108.541 247.59,59.398 247.941,83.641 247.941,108.541 235.645,108.541 
	235.645,40.346 248.851,40.346 279.294,89.487 278.94,65.194 278.94,40.346 291.189,40.346 "/>
<path fill="#A5745A" d="M371.418,108.541h-14.961l-17.344-27.368l-4.079,6.806l-13.11,20.563h-15.068L331.2,72.653l-22.38-32.307
	h15.071l11.541,17.893c0.644,1.007,1.266,2.031,1.867,3.075c0.601,1.041,1.213,2.05,1.814,3.024
	c0.601-0.975,1.212-1.983,1.835-3.024c0.622-1.044,1.256-2.068,1.899-3.075l11.592-17.893h15.015l-22.433,32.307L371.418,108.541z"
	/>
<polygon fill="#A5745A" points="436.281,51.636 415.519,51.636 415.519,108.541 402.462,108.541 402.462,51.636 381.898,51.636 
	381.898,40.345 436.281,40.345 "/>
<path fill="#A5745A" d="M483.553,39.187c4.942,0,9.407,0.848,13.41,2.547c3.998,1.695,7.417,4.081,10.256,7.155
	c2.839,3.076,5.033,6.781,6.579,11.114c1.545,4.338,2.318,9.158,2.318,14.466c0,5.242-0.757,10.023-2.271,14.341
	c-1.513,4.317-3.682,8.031-6.504,11.138c-2.817,3.11-6.241,5.512-10.255,7.207c-4.014,1.699-8.527,2.547-13.534,2.547
	c-4.975,0-9.482-0.848-13.534-2.547c-4.046-1.695-7.502-4.089-10.356-7.18s-5.05-6.805-6.574-11.141
	c-1.533-4.333-2.297-9.123-2.297-14.365c0-5.308,0.773-10.128,2.318-14.466c1.546-4.333,3.746-8.038,6.606-11.114
	c2.854-3.074,6.3-5.46,10.33-7.155C474.076,40.034,478.578,39.187,483.553,39.187 M483.451,98.61c3.026,0,5.731-0.596,8.119-1.787
	c2.383-1.192,4.405-2.857,6.068-4.99c1.664-2.134,2.937-4.68,3.811-7.637c0.87-2.957,1.31-6.2,1.31-9.729
	c0-3.561-0.429-6.821-1.288-9.778c-0.853-2.956-2.108-5.5-3.751-7.636c-1.647-2.134-3.648-3.797-5.999-4.99
	c-2.356-1.192-5.039-1.787-8.065-1.787c-3.027,0-5.737,0.587-8.141,1.762c-2.404,1.178-4.443,2.831-6.123,4.964
	c-1.68,2.136-2.968,4.679-3.858,7.636c-0.892,2.957-1.331,6.233-1.331,9.829c0,3.528,0.439,6.771,1.331,9.729
	c0.891,2.957,2.179,5.503,3.858,7.637c1.68,2.133,3.702,3.798,6.074,4.99C477.832,98.015,480.494,98.61,483.451,98.61"/>
<polygon fill="#A5745A" points="591.357,108.541 578.204,108.541 547.761,59.398 548.115,83.641 548.115,108.541 535.815,108.541 
	535.815,40.346 549.022,40.346 579.465,89.487 579.111,65.194 579.111,40.346 591.357,40.346 "/>
<polygon fill="#A5745A" points="674.283,24.225 674.283,45.933 650.092,45.933 650.092,70.158 628.35,70.158 628.35,45.933 
	604.158,45.933 604.158,24.225 628.35,24.225 628.35,0 650.092,0 650.092,24.225 "/>
</svg>
