<?xml version="1.0" encoding="utf-8"?>
<!-- Generator: Adobe Illustrator 16.0.0, SVG Export Plug-In . SVG Version: 6.00 Build 0)  -->
<!DOCTYPE svg PUBLIC "-//W3C//DTD SVG 1.1//EN" "http://www.w3.org/Graphics/SVG/1.1/DTD/svg11.dtd">
<svg version="1.1" id="Layer_1" xmlns="http://www.w3.org/2000/svg" xmlns:xlink="http://www.w3.org/1999/xlink" x="0px" y="0px"
	 width="541.892px" height="308.107px" viewBox="0 0 541.892 308.107" enable-background="new 0 0 541.892 308.107"
	 xml:space="preserve">
<circle fill-rule="evenodd" clip-rule="evenodd" fill="#2F2857" cx="271.208" cy="88.905" r="79.831"/>
<circle fill="none" stroke="#2C2A29" stroke-width="0.5669" stroke-miterlimit="22.9256" cx="271.208" cy="88.905" r="79.831"/>
<path fill="#B58C2E" d="M267.673,52.409l-2.436,2.437c-2.624-1.346-5.919-0.922-8.115,1.275c-2.722,2.721-2.722,7.137,0.003,9.864
	c2.722,2.721,7.139,2.721,9.859,0c2.198-2.199,2.621-5.495,1.276-8.116l2.437-2.436l2.438,2.436
	c-1.347,2.621-0.923,5.917,1.274,8.116c2.721,2.721,7.138,2.721,9.859,0c2.727-2.727,2.727-7.143,0.004-9.864
	c-2.198-2.197-5.492-2.621-8.116-1.275l-2.437-2.437l9.78-9.78c1.667-1.669,1.667-4.375,0-6.045l-12.803,12.801l-12.802-12.801
	c-1.67,1.669-1.67,4.376,0,6.045L267.673,52.409z M264.694,63.693c-1.455,1.455-3.821,1.455-5.277,0
	c-1.458-1.46-1.458-3.826-0.004-5.281c1.459-1.459,3.826-1.459,5.285,0C266.153,59.867,266.153,62.233,264.694,63.693z
	 M281.981,58.412c1.456,1.455,1.456,3.821-0.003,5.281c-1.455,1.455-3.822,1.455-5.278,0c-1.457-1.46-1.457-3.826-0.003-5.281
	C278.156,56.953,280.523,56.953,281.981,58.412z"/>
<path fill="#B58C2E" d="M270.868,124.8l-2.53-2.53c-2.722,1.396-6.143,0.957-8.423-1.323c-2.827-2.825-2.827-7.409,0.004-10.239
	c2.825-2.825,7.409-2.825,10.233,0c2.282,2.281,2.722,5.704,1.325,8.424l2.528,2.529l2.529-2.529
	c-1.396-2.721-0.958-6.144,1.326-8.424c2.823-2.825,7.407-2.825,10.232,0c2.83,2.83,2.83,7.414,0.005,10.239
	c-2.282,2.28-5.702,2.72-8.425,1.323l-2.528,2.53l10.15,10.15c1.733,1.733,1.733,4.543,0,6.275l-13.29-13.288l-13.288,13.288
	c-1.734-1.732-1.734-4.542,0-6.275L270.868,124.8z M267.773,113.086c-1.509-1.51-3.966-1.51-5.477,0
	c-1.515,1.514-1.515,3.971-0.004,5.481c1.514,1.515,3.972,1.515,5.486,0C269.29,117.057,269.29,114.6,267.773,113.086z
	 M285.719,118.567c1.511-1.51,1.511-3.967-0.004-5.481c-1.509-1.51-3.969-1.51-5.478,0c-1.514,1.514-1.514,3.971-0.003,5.481
	C281.747,120.082,284.207,120.082,285.719,118.567z"/>
<path fill="#B58C2E" d="M308.069,85.312l-2.274-2.591c1.514-2.531,1.306-5.846-0.745-8.181c-2.539-2.891-6.947-3.177-9.844-0.636
	c-2.891,2.54-3.179,6.946-0.639,9.839c2.052,2.336,5.313,2.971,8.015,1.799l2.274,2.589l-2.588,2.273
	c-2.529-1.513-5.847-1.304-8.184,0.748c-2.891,2.539-3.18,6.945-0.638,9.837c2.542,2.897,6.95,3.184,9.841,0.644
	c2.335-2.05,2.971-5.311,1.799-8.015l2.589-2.274l9.125,10.393c1.557,1.774,4.259,1.95,6.032,0.392l-11.941-13.605l13.604-11.944
	c-1.558-1.774-4.26-1.951-6.033-0.393L308.069,85.312z M297,81.606c-1.356-1.547-1.203-3.909,0.344-5.267
	c1.55-1.361,3.913-1.208,5.27,0.339c1.362,1.551,1.209,3.913-0.344,5.273C300.723,83.31,298.364,83.157,297,81.606z M301.149,99.199
	c-1.547,1.357-3.907,1.204-5.269-0.346c-1.357-1.547-1.204-3.909,0.343-5.267c1.55-1.36,3.912-1.207,5.269,0.339
	C302.854,95.476,302.702,97.838,301.149,99.199z"/>
<path fill="#B58C2E" d="M234.348,87.649l2.274-2.59c-1.513-2.53-1.304-5.845,0.746-8.18c2.539-2.893,6.945-3.179,9.843-0.636
	c2.892,2.539,3.179,6.946,0.639,9.838c-2.051,2.336-5.313,2.972-8.016,1.8l-2.273,2.588l2.589,2.273
	c2.528-1.512,5.844-1.304,8.181,0.747c2.892,2.54,3.179,6.947,0.639,9.838c-2.542,2.896-6.95,3.184-9.842,0.644
	c-2.333-2.05-2.969-5.311-1.799-8.015l-2.59-2.274l-9.123,10.392c-1.558,1.774-4.26,1.95-6.035,0.393l11.944-13.605l-13.604-11.944
	c1.558-1.774,4.259-1.951,6.032-0.393L234.348,87.649z M245.417,83.943c1.357-1.545,1.205-3.908-0.342-5.266
	c-1.55-1.36-3.913-1.207-5.271,0.339c-1.362,1.55-1.208,3.912,0.343,5.272C241.694,85.648,244.054,85.495,245.417,83.943z
	 M241.268,101.537c1.547,1.357,3.908,1.204,5.269-0.346c1.359-1.547,1.205-3.909-0.342-5.266c-1.55-1.361-3.912-1.208-5.271,0.339
	C239.563,97.814,239.716,100.177,241.268,101.537z"/>
<path fill="#B58C2E" d="M271.912,84.338l3.314,3.156l15.148-15.909l4.361,4.152l2.924-3.07l-4.361-4.153l0.665-0.698
	c3.819-4.011,6.469-2.953,9.207,0.252l2.889-3.036c-4.487-5.137-10.063-5.989-15.411-0.372L271.912,84.338z"/>
<path fill="#B58C2E" d="M275.451,88.749l-2.953,3.499l16.793,14.164l-3.883,4.603l3.241,2.734l3.882-4.604l0.737,0.621
	c4.235,3.571,3.336,6.281,0.304,9.205l3.204,2.702c4.858-4.789,5.371-10.404-0.557-15.406L275.451,88.749z"/>
<path fill="#B58C2E" d="M270.938,92.374l-3.303-3.167l-15.206,15.854l-4.347-4.168l-2.934,3.06l4.345,4.168l-0.666,0.696
	c-3.836,3.998-6.48,2.93-9.206-0.285l-2.9,3.025c4.469,5.154,10.04,6.025,15.409,0.428L270.938,92.374z"/>
<path fill="#B58C2E" d="M267.308,87.759l3.104-3.362l-16.141-14.903l4.085-4.424l-3.115-2.876l-4.085,4.425l-0.707-0.655
	c-4.071-3.757-3.053-6.423,0.108-9.208l-3.08-2.844c-5.067,4.565-5.833,10.153-0.135,15.414L267.308,87.759z"/>
<path fill="#2F2857" d="M379.455,200.726c0,3.826-0.556,4.483-2.595,4.483h-3.66v-10.237c0-1.892,0.14-2.243,1.622-2.243h4.401
	c2.549,0,3.012,0.44,4.263,5.23h2.874l-1.528-7.779h-22.708v2.153c3.337,0,3.755,0.482,3.755,3.779v21.225
	c0,3.253-0.324,3.78-3.755,3.78v2.108h15.339v-2.108c-4.03,0-4.263-0.439-4.263-3.78v-9.581h3.708c2.037,0,2.547,0.44,2.547,4.661
	h2.78v-11.691H379.455z M413.032,218.26c0.232,0.66,0.372,1.23,0.372,1.626c0,0.879-0.603,1.231-2.317,1.231v2.108h12.372v-2.108
	c-1.529,0-2.085-0.484-3.012-3.121l-9.917-28.432h-4.587l-9.22,29.047c-0.649,2.021-1.345,2.506-2.733,2.506v2.108h8.062v-2.108
	c-1.574,0-2.177-0.22-2.177-1.187c0-0.483,0.137-1.23,0.415-2.199l1.206-4.393h10.054L413.032,218.26z M402.375,210.788
	l3.893-13.312h0.186l4.265,13.312H402.375z M450.918,192.815c2.827,0,3.336,0.223,4.357,5.759h2.781l-1.113-8.395h-26.18
	l-1.159,8.395h2.827c1.019-5.494,1.482-5.759,4.308-5.759h3.476v24.521c0,3.296-0.323,3.78-4.216,3.78v2.108h15.707v-2.108
	c-3.938,0-4.217-0.484-4.217-3.78v-24.521H450.918z M491.63,194.531c1.67-2.021,2.689-2.198,4.45-2.198v-2.153h-10.24v2.153
	c1.392,0,1.947,0.265,1.947,0.836s-0.604,1.449-1.531,2.679l-7.783,9.932h-0.139v-9.623c0-3.296,0.323-3.823,3.01-3.823v-2.153
	h-14.038v2.153c3.429,0,3.752,0.482,3.752,3.779v21.225c0,3.253-0.323,3.78-3.752,3.78v2.108h14.178v-2.108
	c-2.779,0-3.149-0.527-3.149-3.822v-7.164l2.364-3.032l8.524,16.127h9.313v-2.108c-1.944,0-2.547-0.397-4.355-3.604l-8.617-15.511
	L491.63,194.531z M525.349,218.26c0.231,0.66,0.371,1.23,0.371,1.626c0,0.879-0.602,1.231-2.316,1.231v2.108h12.371v-2.108
	c-1.528,0-2.085-0.484-3.011-3.121l-9.917-28.432h-4.589l-9.22,29.047c-0.647,2.021-1.344,2.506-2.734,2.506v2.108h8.065v-2.108
	c-1.576,0-2.18-0.22-2.18-1.187c0-0.483,0.139-1.23,0.417-2.199l1.204-4.393h10.056L525.349,218.26z M514.691,210.788l3.894-13.312
	h0.186l4.263,13.312H514.691z"/>
<path fill="#B58C2E" d="M296.637,194.531c1.669-2.021,2.688-2.198,4.45-2.198v-2.153h-10.24v2.153c1.392,0,1.944,0.265,1.944,0.836
	s-0.602,1.449-1.528,2.679l-7.783,9.932h-0.14v-9.623c0-3.296,0.323-3.823,3.011-3.823v-2.153h-14.039v2.153
	c3.43,0,3.753,0.482,3.753,3.779v21.225c0,3.253-0.323,3.78-3.753,3.78v2.108h14.179v-2.108c-2.779,0-3.15-0.527-3.15-3.822v-7.164
	l2.363-3.032l8.526,16.127h9.313v-2.108c-1.947,0-2.55-0.397-4.355-3.604l-8.619-15.511L296.637,194.531z M330.355,218.26
	c0.232,0.66,0.372,1.23,0.372,1.626c0,0.879-0.604,1.231-2.319,1.231v2.108h12.374v-2.108c-1.53,0-2.085-0.484-3.014-3.121
	l-9.915-28.432h-4.587l-9.222,29.047c-0.649,2.021-1.343,2.506-2.734,2.506v2.108h8.063v-2.108c-1.573,0-2.177-0.22-2.177-1.187
	c0-0.483,0.138-1.23,0.416-2.199l1.203-4.393h10.057L330.355,218.26z M319.698,210.788l3.894-13.312h0.184l4.265,13.312H319.698z"/>
<path fill="#2F2857" d="M23.972,200.726c0,3.826-0.557,4.483-2.595,4.483h-3.661v-10.237c0-1.892,0.139-2.243,1.622-2.243h4.402
	c2.549,0,3.012,0.44,4.264,5.23h2.873l-1.529-7.779H6.642v2.153c3.336,0,3.753,0.482,3.753,3.779v21.225
	c0,3.253-0.324,3.78-3.753,3.78v2.108H21.98v-2.108c-4.032,0-4.264-0.439-4.264-3.78v-9.581h3.708c2.039,0,2.548,0.44,2.548,4.661
	h2.78v-11.691H23.972z M57.549,218.26c0.232,0.66,0.371,1.23,0.371,1.626c0,0.879-0.603,1.231-2.317,1.231v2.108h12.373v-2.108
	c-1.53,0-2.086-0.484-3.013-3.121l-9.917-28.432H50.46l-9.221,29.047c-0.649,2.021-1.344,2.506-2.734,2.506v2.108h8.063v-2.108
	c-1.575,0-2.178-0.22-2.178-1.187c0-0.483,0.139-1.23,0.417-2.199l1.206-4.393h10.055L57.549,218.26z M46.892,210.788l3.893-13.312
	h0.185l4.263,13.312H46.892z M76.994,214.92c0.557,2.197,1.066,4.66,1.344,7.603c2.364,0.791,5.376,1.362,8.341,1.362
	c7.691,0,12.28-4.131,12.28-9.581c0-5.139-2.78-7.03-8.851-11.116c-4.169-2.812-5.931-4.262-5.931-6.944
	c0-2.327,1.622-4.13,4.68-4.13c3.661,0,4.772,1.494,5.745,6.329l2.874-0.438c-0.51-2.857-0.834-5.45-0.973-7.164
	c-1.901-0.747-4.542-1.275-7.6-1.275c-8.664,0-11.259,4.925-11.259,8.439c0,4.964,2.688,6.81,8.108,10.457
	c4.866,3.296,6.348,4.702,6.348,7.778c0,3.295-2.455,5.095-5.235,5.095c-3.382,0-5.513-1.448-6.95-7.072L76.994,214.92z
	 M142.914,190.18h-13.993v2.153c2.687,0,2.965,0.44,2.965,3.604v8.876h-11.631v-8.921c0-3.119,0.279-3.56,2.919-3.56v-2.153h-13.993
	v2.153c3.429,0,3.754,0.482,3.754,3.779v21.225c0,3.253-0.325,3.78-3.754,3.78v2.108h13.993v-2.108c-2.64,0-2.919-0.439-2.919-3.604
	v-10.15h11.631v10.15c0,3.165-0.278,3.604-2.965,3.604v2.108h13.993v-2.108c-3.428,0-3.752-0.527-3.752-3.78v-21.225
	c0-3.297,0.324-3.779,3.752-3.779V190.18z M152.907,223.226h15.198v-2.108c-3.614,0-3.939-0.527-3.939-3.78v-21.225
	c0-3.297,0.325-3.779,3.939-3.779v-2.153h-15.198v2.153c3.613,0,3.938,0.482,3.938,3.779v21.225c0,3.253-0.325,3.78-3.938,3.78
	V223.226z M193.758,223.885c4.634,0,8.294-1.142,10.936-3.909c2.548-2.639,4.217-6.856,4.217-13.272
	c0-6.415-1.808-17.139-15.153-17.139c-12.278,0-15.059,9.274-15.059,17.139c0,6.416,1.668,10.634,4.216,13.272
	C185.929,223.138,190.005,223.885,193.758,223.885z M193.758,191.851c6.673,0,7.507,7.953,7.507,14.853
	c0,6.416-0.88,14.852-7.553,14.852c-6.487,0-7.46-8.348-7.46-14.852C186.252,199.76,187.133,191.851,193.758,191.851z
	 M219.459,190.18v2.153c3.197,0,3.567,0.353,3.567,3.692v21.312c0,3.253-0.37,3.78-3.521,3.78v2.108h10.147v-2.108
	c-3.151,0-3.521-0.527-3.521-3.78v-20.653h0.092L241.7,223.71h4.912v-27.598c0-3.297,0.511-3.779,3.429-3.779v-2.153h-10.148v2.153
	c3.151,0,3.662,0.482,3.662,3.779v18.412h-0.093L229.7,190.18H219.459z"/>
<path fill="#B58C2E" d="M487.639,266.45l-4.504-2.755c-1.093-0.587-1.924-1.199-1.843-2.254c0.071-1.291,1.285-2.209,3.114-2.209
	c2.272,0,3.549,1.127,3.549,2.847h0.232l0.329-3.228h0.005l0.058-0.491h-1.527c-1.186-0.147-2.755-0.261-3.71-0.261
	c-2.896,0-4.872,1.593-5.113,4.297c-0.213,1.941,0.615,3.658,2.496,4.641l4.063,2.557c1.513,0.784,2.118,1.573,2.118,2.552
	c0,1.389-1.073,2.558-3.285,2.577c-3.028,0.013-4.849-2.138-4.688-4.703h-0.223c-0.687,1.073-1.073,3.236-0.638,4.318
	c0.816,0.88,2.787,1.509,5.231,1.509c3.945,0,6.488-1.924,6.664-5.134C490.098,268.691,489.128,267.23,487.639,266.45z
	 M473.261,270.272c-0.743,2.512-2.388,4.054-4.775,4.077h-3.413v-6.723h3.263c1.31,0.038,2.127,0.983,2.127,2.241v0.197h0.283
	v-6.002l-0.283,0.005v0.18c0,1.271-0.833,2.221-2.166,2.245h-3.224v-6.887h4.084c1.627,0.024,2.582,1.055,2.582,2.688v0.265h0.282
	v-4.527c-0.44,0.181-1.876,0.431-2.939,0.435h-9.969l0.005,0.285h0.337c0.84,0,1.525,0.632,1.536,1.484v13.483
	c-0.021,0.842-0.7,1.479-1.536,1.479h-0.337l-0.005,0.282h13.319l1.101-5.209H473.261z M454.867,275.199h-0.335
	c-0.898,0-1.622-0.643-1.649-1.499v-13.464c0.033-0.847,0.751-1.484,1.649-1.484h0.326l0.005-0.285h-8.035v0.285h0.337
	c0.887,0,1.63,0.646,1.633,1.502v13.442c-0.003,0.854-0.746,1.503-1.633,1.503h-0.337v0.282h8.044L454.867,275.199z
	 M441.661,273.267c-0.994-1.328-1.821-2.737-2.057-3.169c-0.529-0.873-1.612-2.073-2.732-2.418c2.789-0.403,3.932-2.578,3.932-4.571
	c0-3.533-3.043-4.636-6.191-4.642h-8.729v0.285h0.359c0.819,0,1.479,0.623,1.495,1.469v13.499c-0.021,0.846-0.695,1.479-1.513,1.479
	h-0.342v0.282h7.817l-0.004-0.282h-0.307c-0.757,0-1.546-0.563-1.551-1.509v-14.056c0.325,0.015,0.892-0.018,1.631,0.015
	c0.987,0.048,2.896,0.449,3.024,3.246c0.024,0.554-0.038,0.961-0.095,1.188c-0.478,2.383-1.776,2.816-2.959,2.832
	c-0.42,0.008-0.713,0.005-0.729,0.005v0.225c0.524,0.043,1.229,0.549,1.707,1.739c0.261,0.955,1.282,2.86,1.909,3.877
	c1.347,2.125,2.793,2.721,5.87,2.721h2.379v-0.282C443.409,275.194,442.771,274.774,441.661,273.267z M409.304,269.914l2.545-5.902
	l2.509,5.902H409.304z M422.86,275.199c-0.774,0-1.676-0.445-2.225-1.585l-7.591-15.926h-0.241c-0.09,0.798-1.131,3.001-1.323,3.437
	l-5.851,12.595c-0.539,1.059-1.447,1.479-2.184,1.479h-0.223v0.282h5.677v-0.282h-0.224c-0.647,0-1.375-0.54-0.986-1.541
	l1.135-2.628h6.005l1.103,2.594c0.42,1.022-0.313,1.575-0.97,1.575h-0.221v0.282h8.332v-0.282H422.86z M390.914,274.35h-3.194
	v-14.774h3.194c3.563,0,5.747,2.769,5.747,7.411c0,4.616-2.203,7.367-5.747,7.367V274.35z M391.248,258.467h-7.565h-2.022v0.279
	h0.339c0.88,0.006,1.575,0.625,1.618,1.485v13.436c-0.017,0.852-0.719,1.532-1.59,1.532h-0.348l-0.006,0.282h2.027h7.547
	c6.084,0,9.742-3.157,9.742-8.492C400.99,261.634,397.332,258.467,391.248,258.467z M377.714,258.467h-7.958v0.285h0.482
	c0.854,0,1.54,0.619,1.545,1.445l0.014,9.325l-13.005-11.438l-0.007-0.004h-0.265c0,0,0.309,1.286,0.309,3.203v12.469
	c-0.006,0.822-0.705,1.446-1.562,1.446h-0.46l-0.006,0.282h7.92v-0.282h-0.473c-0.855,0-1.535-0.624-1.563-1.446l-0.005-9.379
	l13.043,11.477h0.252c0,0-0.308-1.317-0.308-3.293V260.16c0.047-0.808,0.719-1.408,1.564-1.408h0.479L377.714,258.467z
	 M353.312,258.473h-3.494h-1.738v0.246h0.389c0.702,0,1.265,0.521,1.295,1.223l-0.007,9.544c-0.02,3.279-1.771,5.237-4.73,5.237
	c-2.867,0-4.571-2.07-4.571-5.555v-9.22c0.007-0.709,0.568-1.229,1.278-1.229h0.405v-0.246h-7.448v0.246h0.387
	c0.709,0,1.289,0.521,1.295,1.229v9.404c0,4.05,2.676,6.494,8.119,6.494c4.542,0,7.139-2.467,7.139-6.545v-9.374
	c0.014-0.698,0.596-1.209,1.294-1.209h0.389V258.473z M320.537,274.745c-3.441,0-5.686-2.968-5.686-7.759
	c0-4.813,2.244-7.781,5.686-7.781c3.46,0,5.691,2.969,5.691,7.781C326.228,271.777,323.997,274.745,320.537,274.745z M320.537,258.1
	c-6.007,0-10.025,3.385-10.025,8.887c0,5.481,4.019,8.864,10.025,8.864c6.026,0,10.049-3.383,10.049-8.864
	C330.585,261.484,326.563,258.1,320.537,258.1z M297.517,274.354h-1.155v-14.778h0.796c1.787,0,3.07,0.859,3.07,3.393
	c0,2.338-1.33,3.275-3.04,3.275v0.246c2.328-0.021,4.025,1.185,4.025,3.894C301.213,273.275,299.537,274.354,297.517,274.354z
	 M301.364,266.21c1.561-0.139,3.106-1.369,3.106-3.512c0-3.549-3.423-4.231-6.396-4.231h-5.653h-1.956v0.285h0.322
	c0.866,0,1.541,0.615,1.555,1.488v13.46c-0.014,0.851-0.688,1.499-1.555,1.499h-0.322v0.282h8.22c3.813,0,7.122-1.294,7.122-4.843
	C305.807,268.058,303.792,266.388,301.364,266.21z M268.845,274.35h-3.194v-14.774h3.194c3.563,0,5.749,2.769,5.749,7.411
	c0,4.616-2.204,7.367-5.749,7.367V274.35z M269.182,258.467h-7.568h-2.022v0.279h0.34c0.879,0.006,1.574,0.625,1.618,1.485v13.436
	c-0.017,0.852-0.719,1.532-1.589,1.532h-0.35l-0.005,0.282h2.027h7.549c6.081,0,9.739-3.157,9.739-8.492
	C278.921,261.634,275.263,258.467,269.182,258.467z M255.647,258.467h-7.959v0.285h0.483c0.854,0,1.539,0.619,1.545,1.445
	l0.013,9.325l-13.006-11.438l-0.006-0.004h-0.264c0,0,0.308,1.286,0.308,3.203v12.469c-0.004,0.822-0.705,1.446-1.56,1.446h-0.463
	l-0.005,0.282h7.92v-0.282h-0.472c-0.855,0-1.536-0.624-1.564-1.446l-0.005-9.379l13.044,11.477h0.251c0,0-0.309-1.317-0.309-3.293
	V260.16c0.047-0.808,0.718-1.408,1.565-1.408h0.478L255.647,258.467z M220.926,274.745c-3.44,0-5.686-2.968-5.686-7.759
	c0-4.813,2.245-7.781,5.686-7.781c3.46,0,5.691,2.969,5.691,7.781C226.618,271.777,224.387,274.745,220.926,274.745z M220.926,258.1
	c-6.007,0-10.024,3.385-10.024,8.887c0,5.481,4.018,8.864,10.024,8.864c6.026,0,10.048-3.383,10.048-8.864
	C230.975,261.484,226.952,258.1,220.926,258.1z M203.266,258.467v0.285h0.308c0.708,0,1.238,0.713,0.917,1.403l-3.843,6.504
	l-3.771-6.513c-0.303-0.668,0.189-1.395,0.911-1.395h0.308v-0.285h-8.616v0.285h0.346c1.044,0,1.98,0.604,2.491,1.39h0.008
	l5.001,7.765v5.79c-0.01,0.854-0.725,1.503-1.578,1.503h-0.326v0.282h7.93v-0.282h-0.316c-0.88,0-1.584-0.648-1.607-1.503v-5.774
	l5.047-7.771h0.005c0.521-0.752,1.451-1.398,2.505-1.398h0.354v-0.285H203.266z M187.048,270.272
	c-0.741,2.512-2.387,4.054-4.774,4.077h-3.412v-6.723h3.261c1.309,0.038,2.127,0.983,2.127,2.241v0.197h0.283v-6.002l-0.283,0.005
	v0.18c0,1.271-0.832,2.221-2.165,2.245h-3.224v-6.887h4.083c1.626,0.024,2.58,1.055,2.58,2.688v0.265h0.285v-4.527
	c-0.44,0.181-1.877,0.431-2.941,0.435h-9.967l0.004,0.285h0.336c0.842,0,1.526,0.632,1.535,1.484v13.483
	c-0.018,0.842-0.699,1.479-1.535,1.479h-0.336l-0.004,0.282h13.319l1.101-5.209H187.048z M160.396,274.354h-1.159v-14.778h0.799
	c1.786,0,3.068,0.859,3.068,3.393c0,2.338-1.329,3.275-3.04,3.275v0.246c2.331-0.021,4.027,1.185,4.027,3.894
	C164.09,273.275,162.414,274.354,160.396,274.354z M164.242,266.21c1.56-0.139,3.105-1.369,3.105-3.512
	c0-3.549-3.422-4.231-6.395-4.231H155.3h-1.956v0.285h0.321c0.866,0,1.541,0.615,1.554,1.488v13.46
	c-0.013,0.851-0.688,1.499-1.554,1.499h-0.321v0.282h8.218c3.814,0,7.123-1.294,7.123-4.843
	C168.685,268.058,166.672,266.388,164.242,266.21z M141.907,270.272c-0.741,2.512-2.386,4.054-4.773,4.077h-3.412v-6.723h3.261
	c1.309,0.038,2.127,0.983,2.127,2.241v0.197h0.283v-6.002l-0.283,0.005v0.18c0,1.271-0.832,2.221-2.165,2.245h-3.223v-6.887h4.083
	c1.627,0.024,2.581,1.055,2.581,2.688v0.265h0.284v-4.527c-0.44,0.181-1.877,0.431-2.94,0.435h-9.967l0.004,0.285h0.336
	c0.842,0,1.526,0.632,1.535,1.484v13.483c-0.018,0.842-0.699,1.479-1.535,1.479h-0.336l-0.004,0.282h13.318l1.101-5.209H141.907z
	 M124.13,270.27c-0.742,2.515-2.377,4.057-4.774,4.08h-3.412v-14.096c0.024-0.855,0.715-1.502,1.575-1.502h0.315l0.005-0.285h-7.854
	v0.285h0.321c0.841,0,1.551,0.646,1.556,1.502v13.462c-0.02,0.846-0.7,1.483-1.537,1.483h-0.336l-0.004,0.282h13.328l1.111-5.212
	H124.13z M101.134,258.467v0.285h0.307c0.709,0,1.238,0.713,0.917,1.403l-3.843,6.504l-3.772-6.513
	c-0.302-0.668,0.19-1.395,0.913-1.395h0.309v-0.285h-8.617v0.285h0.345c1.044,0,1.98,0.604,2.49,1.39h0.009l5,7.765v5.79
	c-0.008,0.854-0.722,1.503-1.577,1.503h-0.327v0.282h7.931v-0.282h-0.317c-0.879,0-1.583-0.648-1.606-1.503v-5.774l5.047-7.771
	h0.006c0.52-0.752,1.451-1.398,2.505-1.398h0.354v-0.285H101.134z M81.721,258.44h0.005H71.252c-1.064,0-2.515-0.256-2.974-0.437
	v4.501h0.284v-0.266c0-1.615,0.936-2.642,2.595-2.664h3.28v14.121c-0.024,0.854-0.709,1.503-1.564,1.503h-0.302v0.282h7.841
	l-0.005-0.282h-0.297c-0.852,0-1.55-0.638-1.57-1.479v-14.145h3.28c1.659,0.022,2.61,1.049,2.595,2.664v0.266h0.285v-4.501
	c-0.354,0.181-1.91,0.437-2.973,0.437H81.721z M62.322,266.45l-4.504-2.755c-1.091-0.587-1.924-1.199-1.843-2.254
	c0.07-1.291,1.286-2.209,3.115-2.209c2.273,0,3.549,1.127,3.549,2.847h0.231l0.332-3.228h0.004l0.057-0.491h-1.527
	c-1.186-0.147-2.755-0.261-3.71-0.261c-2.896,0-4.873,1.593-5.113,4.297c-0.212,1.941,0.614,3.658,2.495,4.641l4.065,2.557
	c1.513,0.784,2.117,1.573,2.117,2.552c0,1.389-1.073,2.558-3.285,2.577c-3.029,0.013-4.849-2.138-4.688-4.703h-0.222
	c-0.685,1.073-1.073,3.236-0.638,4.318c0.818,0.88,2.789,1.509,5.233,1.509c3.946,0,6.488-1.924,6.664-5.134
	C64.78,268.691,63.811,267.23,62.322,266.45z"/>
</svg>
